SplineFontDB: 3.2
FontName: ayuta-black
FullName: ayuta black
FamilyName: ayuta
Weight: Black
Copyright: Copyright 2024 The Ayuta Project Authors (github.com/mitradranirban)
Version: 1.0
StyleMapFamilyName: 
ItalicAngle: 0
UnderlinePosition: 0
UnderlineWidth: 0
Ascent: 1638
Descent: 410
InvalidEm: 1
UFOAscent: 1638.4
UFODescent: -512
LayerCount: 2
Layer: 0 0 "Back" 1
Layer: 1 0 "Fore" 0
StyleMap: 0x0000
FSType: 0
OS2Version: 0
OS2_WeightWidthSlopeOnly: 0
OS2_UseTypoMetrics: 0
CreationTime: 1728386954
ModificationTime: 1728388025
PfmFamily: 16
TTFWeight: 400
TTFWidth: 5
LineGap: 0
VLineGap: 0
OS2TypoAscent: 0
OS2TypoAOffset: 1
OS2TypoDescent: 0
OS2TypoDOffset: 1
OS2TypoLinegap: 0
OS2WinAscent: 0
OS2WinAOffset: 1
OS2WinDescent: 0
OS2WinDOffset: 1
HheadAscent: 0
HheadAOffset: 1
HheadDescent: 0
HheadDOffset: 1
OS2CapHeight: 1536
OS2XHeight: 1024
MarkAttachClasses: 1
DEI: 91125
LangName: 1033 "Copyright 2024 The Ayuta Project Authors (github.com/mitradranirban)" "" "" "" "" "" "" "" "Dr Anirban Mitra" "Dr Anirban Mitra" "A Variable Hangul font created using rectangular components" "https://fonts.atipra.in" "https://github.com/mitradranirban" "Copyright 2024 The Samaano Project Authors (https://github.com/mitradranirban/samaano-fonts) This Font Software is licensed under the SIL Open Font License, Version 1.1.This license is available with a FAQ at: http://scripts.sil.org/OFL" "http://scripts.sil.org/OFL"
PickledDataWithLists: "(dp0
Vxyz.fontra.lineMetricsHorizontalLayout.zones
p1
(dp2
Vascender
p3
I16
sVbaseline
p4
I-16
sVcapHeight
p5
I16
sVdescender
p6
I-16
sVxHeight
p7
I16
ss."
Encoding: UnicodeFull
UnicodeInterp: none
NameList: AGL For New Fonts
DisplaySize: -96
AntiAlias: 1
FitToEm: 0
WidthSeparation: 150
WinInfo: 44018 13 5
BeginPrivate: 0
EndPrivate
BeginChars: 1114112 599

StartChar: uni0000
Encoding: 0 0 0
Width: 1024
VWidth: 0
Flags: HW
LayerCount: 2
Fore
SplineSet
18 -26 m 257
 1016 -26 l 257
 1016 1614 l 257
 18 1614 l 257
 18 -26 l 257
92 54 m 257
 92 1537 l 257
 485 817 l 257
 92 54 l 257
184 54 m 257
 523 740 l 257
 864 54 l 257
 184 54 l 257
212 1548 m 257
 843 1548 l 257
 525 899 l 257
 212 1548 l 257
563 822 m 257
 939 1548 l 257
 939 54 l 257
 563 822 l 257
EndSplineSet
EndChar

StartChar: exclam
Encoding: 33 33 2
Width: 1024
VWidth: 0
Flags: HW
LayerCount: 2
Fore
SplineSet
440 17 m 257
 584 17 l 257
 584 265 l 257
 440 265 l 257
 440 17 l 257
450 502 m 257
 578 502 l 257
 578 1520 l 257
 450 1520 l 257
 450 502 l 257
EndSplineSet
EndChar

StartChar: quotedbl
Encoding: 34 34 3
Width: 1024
VWidth: 0
Flags: HW
LayerCount: 2
Fore
SplineSet
240 1326 m 257
 384 1326 l 257
 384 1574 l 257
 240 1574 l 257
 240 1326 l 257
640 1326 m 257
 784 1326 l 257
 784 1574 l 257
 640 1574 l 257
 640 1326 l 257
EndSplineSet
EndChar

StartChar: numbersign
Encoding: 35 35 4
Width: 1024
VWidth: 0
Flags: HW
LayerCount: 2
Fore
SplineSet
228 1347 m 257
 228 313 l 257
 368 313 l 257
 368 1347 l 257
 228 1347 l 257
638 1350 m 257
 638 279 l 257
 806 279 l 257
 806 1350 l 257
 638 1350 l 257
98 1157 m 257
 98 1010 l 257
 916 1010 l 257
 916 1157 l 257
 98 1157 l 257
98 767 m 257
 98 592 l 257
 926 592 l 257
 926 767 l 257
 98 767 l 257
EndSplineSet
EndChar

StartChar: dollar
Encoding: 36 36 5
Width: 1024
VWidth: 0
Flags: HW
LayerCount: 2
Fore
SplineSet
126 1537 m 257
 126 1358 l 257
 724 1358 l 257
 724 1537 l 257
 126 1537 l 257
126 1542 m 257
 126 1028 l 257
 331 1028 l 257
 331 1542 l 257
 126 1542 l 257
154 163 m 257
 154 0 l 257
 862 0 l 257
 862 163 l 257
 154 163 l 257
692 0 m 257
 898 0 l 257
 898 355 l 257
 692 355 l 257
 692 0 l 257
126 1028 m 257
 692 355 l 257
 898 355 l 257
 331 1028 l 257
 126 1028 l 257
385 1636 m 257
 385 -215 l 257
 599 -215 l 257
 599 1636 l 257
 385 1636 l 257
EndSplineSet
EndChar

StartChar: percent
Encoding: 37 37 6
Width: 1024
VWidth: 0
Flags: HW
LayerCount: 2
Fore
SplineSet
78 522 m 257
 122 377 l 257
 946 716 l 257
 902 860 l 257
 78 522 l 257
218 1148 m 257
 218 822 l 257
 296 822 l 257
 296 1148 l 257
 218 1148 l 257
218 1152 m 257
 218 1057 l 257
 566 1057 l 257
 566 1152 l 257
 218 1152 l 257
218 871 m 257
 218 789 l 257
 562 789 l 257
 562 871 l 257
 218 871 l 257
474 1152 m 257
 474 791 l 257
 566 791 l 257
 566 1152 l 257
 474 1152 l 257
546 436 m 257
 546 110 l 257
 624 110 l 257
 624 436 l 257
 546 436 l 257
546 440 m 257
 546 345 l 257
 892 345 l 257
 892 440 l 257
 546 440 l 257
546 159 m 257
 546 77 l 257
 890 77 l 257
 890 159 l 257
 546 159 l 257
800 440 m 257
 800 79 l 257
 892 79 l 257
 892 440 l 257
 800 440 l 257
EndSplineSet
EndChar

StartChar: ampersand
Encoding: 38 38 7
Width: 1024
VWidth: 0
Flags: HW
LayerCount: 2
Fore
SplineSet
260 1537 m 257
 708 12 l 257
 854 56 l 257
 422 1537 l 257
 260 1537 l 257
804 1401 m 257
 804 1537 l 257
 338 1537 l 257
 338 1401 l 257
 804 1401 l 257
644 1446 m 257
 644 917 l 257
 804 917 l 257
 804 1446 l 257
 644 1446 l 257
108 1045 m 257
 108 843 l 257
 804 843 l 257
 804 1045 l 257
 108 1045 l 257
108 1045 m 257
 108 24 l 257
 318 24 l 257
 318 1045 l 257
 108 1045 l 257
108 190 m 257
 108 6 l 257
 916 6 l 257
 916 190 l 257
 108 190 l 257
EndSplineSet
EndChar

StartChar: quotesingle
Encoding: 39 39 8
Width: 1024
VWidth: 0
Flags: HW
LayerCount: 2
Fore
SplineSet
447 1496 m 257
 447 1264 l 257
 577 1264 l 257
 577 1496 l 257
 447 1496 l 257
EndSplineSet
EndChar

StartChar: parenleft
Encoding: 40 40 9
Width: 1024
VWidth: 0
Flags: HW
LayerCount: 2
Fore
SplineSet
324 1023 m 257
 324 179 l 257
 514 179 l 257
 514 1023 l 257
 324 1023 l 257
642 1633 m 257
 324 1028 l 257
 512 1028 l 257
 672 1640 l 257
 642 1633 l 257
324 179 m 257
 668 -406 l 257
 700 -406 l 257
 514 179 l 257
 324 179 l 257
EndSplineSet
EndChar

StartChar: parenright
Encoding: 41 41 10
Width: 1024
VWidth: 0
Flags: HW
LayerCount: 2
Fore
SplineSet
488 1023 m 257
 488 179 l 257
 678 179 l 257
 678 1023 l 257
 488 1023 l 257
346 1629 m 257
 488 1023 l 257
 678 1023 l 257
 384 1629 l 257
 346 1629 l 257
488 179 m 257
 346 -406 l 257
 374 -406 l 257
 678 179 l 257
 488 179 l 257
EndSplineSet
EndChar

StartChar: asterisk
Encoding: 42 42 11
Width: 1024
VWidth: 0
Flags: HW
LayerCount: 2
Fore
SplineSet
422 1297 m 257
 422 300 l 257
 652 300 l 257
 652 1297 l 257
 422 1297 l 257
65 1099 m 257
 793 360 l 257
 952 504 l 257
 220 1241 l 257
 65 1099 l 257
817 1232 m 257
 94 525 l 257
 236 372 l 257
 959 1079 l 257
 817 1232 l 257
EndSplineSet
EndChar

StartChar: plus
Encoding: 43 43 12
Width: 1024
VWidth: 0
Flags: HW
LayerCount: 2
Fore
SplineSet
384 1221 m 257
 384 165 l 257
 609 165 l 257
 609 1221 l 257
 384 1221 l 257
61 821 m 257
 61 613 l 257
 963 613 l 257
 963 821 l 257
 61 821 l 257
EndSplineSet
EndChar

StartChar: comma
Encoding: 44 44 13
Width: 1024
VWidth: 0
Flags: HW
LayerCount: 2
Fore
SplineSet
398 237 m 257
 398 8 l 257
 646 8 l 257
 646 237 l 257
 398 237 l 257
496 135 m 257
 378 -146 l 257
 522 -206 l 257
 644 0 l 257
 496 135 l 257
EndSplineSet
EndChar

StartChar: hyphen
Encoding: 45 45 14
Width: 1024
VWidth: 0
Flags: HW
LayerCount: 2
Fore
SplineSet
99 808 m 257
 99 600 l 257
 925 600 l 257
 925 808 l 257
 99 808 l 257
EndSplineSet
EndChar

StartChar: period
Encoding: 46 46 15
Width: 1024
VWidth: 0
Flags: HW
LayerCount: 2
Fore
SplineSet
380 246 m 257
 380 0 l 257
 644 0 l 257
 644 246 l 257
 380 246 l 257
EndSplineSet
EndChar

StartChar: slash
Encoding: 47 47 16
Width: 1024
VWidth: 0
Flags: HW
LayerCount: 2
Fore
SplineSet
703 1483 m 257
 133 6 l 257
 321 -67 l 257
 891 1410 l 257
 703 1483 l 257
EndSplineSet
EndChar

StartChar: zero
Encoding: 48 48 17
Width: 1024
VWidth: 0
Flags: HW
LayerCount: 2
Fore
SplineSet
412 908 m 257
 613 908 l 257
 613 708 l 257
 412 708 l 257
 412 908 l 257
295 1359 m 257
 730 1359 l 257
 730 208 l 257
 295 208 l 257
 295 1359 l 257
93 1559 m 257
 93 7 l 257
 930 7 l 257
 930 1559 l 257
 93 1559 l 257
EndSplineSet
EndChar

StartChar: one
Encoding: 49 49 18
Width: 1024
VWidth: 0
Flags: HW
LayerCount: 2
Fore
SplineSet
412 0 m 257
 611 0 l 257
 611 1548 l 257
 412 1548 l 257
 412 0 l 257
416 1548 m 257
 218 1252 l 257
 368 1152 l 257
 566 1449 l 257
 416 1548 l 257
EndSplineSet
EndChar

StartChar: two
Encoding: 50 50 19
Width: 1024
VWidth: 0
Flags: HW
LayerCount: 2
Fore
SplineSet
109 1344 m 257
 718 1344 l 257
 718 908 l 257
 116 908 l 257
 116 0 l 257
 904 0 l 257
 904 200 l 257
 319 200 l 257
 319 707 l 257
 918 707 l 257
 918 1548 l 257
 109 1548 l 257
 109 1344 l 257
EndSplineSet
EndChar

StartChar: three
Encoding: 51 51 20
Width: 1024
VWidth: 0
Flags: HW
LayerCount: 2
Fore
SplineSet
101 736 m 257
 759 736 l 257
 759 192 l 257
 59 192 l 257
 59 -8 l 257
 963 -8 l 257
 963 1553 l 257
 89 1553 l 257
 89 1353 l 257
 757 1353 l 257
 757 936 l 257
 101 936 l 257
 101 736 l 257
EndSplineSet
EndChar

StartChar: four
Encoding: 52 52 21
Width: 1024
VWidth: 0
Flags: HW
LayerCount: 2
Fore
SplineSet
91 761 m 257
 733 761 l 257
 733 7 l 257
 929 7 l 257
 929 1548 l 257
 730 1548 l 257
 730 961 l 257
 291 961 l 257
 291 1548 l 257
 91 1548 l 257
 91 761 l 257
EndSplineSet
EndChar

StartChar: five
Encoding: 53 53 22
Width: 1024
VWidth: 0
Flags: HW
LayerCount: 2
Fore
SplineSet
772 759 m 257
 772 198 l 257
 59 198 l 257
 59 0 l 257
 977 0 l 257
 977 959 l 257
 260 959 l 257
 260 1352 l 257
 987 1352 l 257
 987 1548 l 257
 60 1548 l 257
 60 759 l 257
 772 759 l 257
EndSplineSet
EndChar

StartChar: six
Encoding: 54 54 23
Width: 1024
VWidth: 0
Flags: HW
LayerCount: 2
Fore
SplineSet
41 1548 m 257
 41 201 l 257
 41 0 l 257
 980 0 l 257
 980 959 l 257
 244 959 l 257
 244 1348 l 257
 985 1348 l 257
 985 1548 l 257
 41 1548 l 257
772 759 m 257
 772 203 l 257
 250 203 l 257
 250 759 l 257
 772 759 l 257
EndSplineSet
EndChar

StartChar: seven
Encoding: 55 55 24
Width: 1024
VWidth: 0
Flags: HW
LayerCount: 2
Fore
SplineSet
54 1355 m 257
 764 1355 l 257
 764 0 l 257
 967 0 l 257
 967 1557 l 257
 54 1557 l 257
 54 1355 l 257
EndSplineSet
EndChar

StartChar: eight
Encoding: 56 56 25
Width: 1024
VWidth: 0
Flags: HW
LayerCount: 2
Fore
SplineSet
56 1548 m 257
 56 0 l 257
 969 0 l 257
 969 1548 l 257
 56 1548 l 257
767 759 m 257
 767 197 l 257
 260 197 l 257
 260 759 l 257
 767 759 l 257
768 959 m 257
 260 959 l 257
 260 1350 l 257
 768 1350 l 257
 768 959 l 257
EndSplineSet
EndChar

StartChar: nine
Encoding: 57 57 26
Width: 1024
VWidth: 0
Flags: HW
LayerCount: 2
Fore
SplineSet
781 759 m 257
 781 200 l 257
 79 200 l 257
 79 0 l 257
 977 0 l 257
 977 1554 l 257
 57 1554 l 257
 57 1537 l 257
 57 759 l 257
 781 759 l 257
778 959 m 257
 257 959 l 257
 257 1354 l 257
 778 1354 l 257
 778 959 l 257
EndSplineSet
EndChar

StartChar: colon
Encoding: 58 58 27
Width: 1024
VWidth: 0
Flags: HW
LayerCount: 2
Fore
SplineSet
400 430 m 257
 400 201 l 257
 648 201 l 257
 648 430 l 257
 400 430 l 257
376 1294 m 257
 376 1047 l 257
 642 1047 l 257
 642 1294 l 257
 376 1294 l 257
EndSplineSet
EndChar

StartChar: semicolon
Encoding: 59 59 28
Width: 1024
VWidth: 0
Flags: HW
LayerCount: 2
Fore
SplineSet
400 430 m 257
 400 201 l 257
 648 201 l 257
 648 430 l 257
 400 430 l 257
498 328 m 257
 380 47 l 257
 524 -13 l 257
 646 197 l 257
 498 328 l 257
376 871 m 257
 376 624 l 257
 642 624 l 257
 642 871 l 257
 376 871 l 257
EndSplineSet
EndChar

StartChar: less
Encoding: 60 60 29
Width: 1024
VWidth: 0
Flags: HW
LayerCount: 2
Fore
SplineSet
103 777 m 257
 103 569 l 257
 921 807 l 257
 921 1013 l 257
 103 777 l 257
103 777 m 257
 103 569 l 257
 919 122 l 257
 919 319 l 257
 103 777 l 257
EndSplineSet
EndChar

StartChar: equal
Encoding: 61 61 30
Width: 1024
VWidth: 0
Flags: HW
LayerCount: 2
Fore
SplineSet
104 914 m 257
 104 724 l 257
 920 724 l 257
 920 914 l 257
 104 914 l 257
104 540 m 257
 104 350 l 257
 920 350 l 257
 920 540 l 257
 104 540 l 257
EndSplineSet
EndChar

StartChar: greater
Encoding: 62 62 31
Width: 1024
VWidth: 0
Flags: HW
LayerCount: 2
Fore
SplineSet
922 777 m 257
 100 1013 l 257
 100 807 l 257
 924 568 l 257
 922 777 l 257
922 777 m 257
 102 319 l 257
 102 122 l 257
 924 568 l 257
 922 777 l 257
EndSplineSet
EndChar

StartChar: question
Encoding: 63 63 32
Width: 1024
VWidth: 0
Flags: HW
LayerCount: 2
Fore
SplineSet
368 247 m 257
 368 0 l 257
 614 0 l 257
 614 247 l 257
 368 247 l 257
192 1519 m 257
 192 1333 l 257
 828 1333 l 257
 828 1519 l 257
 192 1519 l 257
638 1514 m 257
 638 966 l 257
 832 966 l 257
 832 1514 l 257
 638 1514 l 257
368 1015 m 257
 368 816 l 257
 832 816 l 257
 832 1015 l 257
 368 1015 l 257
368 1011 m 257
 368 392 l 257
 616 392 l 257
 616 1011 l 257
 368 1011 l 257
EndSplineSet
EndChar

StartChar: at
Encoding: 64 64 33
Width: 1024
VWidth: 0
Flags: HW
LayerCount: 2
Fore
SplineSet
101 1023 m 257
 101 879 l 257
 920 879 l 257
 920 1023 l 257
 101 1023 l 257
637 592 m 257
 637 0 l 257
 790 0 l 257
 790 592 l 257
 637 592 l 257
304 600 m 257
 304 444 l 257
 729 444 l 257
 729 600 l 257
 304 600 l 257
301 589 m 257
 301 12 l 257
 475 12 l 257
 475 589 l 257
 301 589 l 257
299 188 m 257
 299 0 l 257
 793 0 l 257
 793 188 l 257
 299 188 l 257
13 1023 m 257
 13 -223 l 257
 189 -223 l 257
 189 1023 l 257
 13 1023 l 257
11 -86 m 257
 11 -258 l 257
 959 -258 l 257
 959 -86 l 257
 11 -86 l 257
862 1011 m 257
 862 0 l 257
 1013 0 l 257
 1013 1011 l 257
 862 1011 l 257
734 175 m 257
 734 0 l 257
 943 0 l 257
 943 175 l 257
 734 175 l 257
EndSplineSet
EndChar

StartChar: A
Encoding: 65 65 34
Width: 1024
VWidth: 0
Flags: HW
LayerCount: 2
Fore
SplineSet
125 0 m 257
 324 0 l 257
 324 1548 l 257
 125 1548 l 257
 125 0 l 257
186 1332 m 257
 847 1332 l 257
 847 1548 l 257
 186 1548 l 257
 186 1332 l 257
204 1023 m 257
 204 849 l 257
 835 849 l 257
 835 1023 l 257
 204 1023 l 257
722 0 m 257
 922 0 l 257
 922 1548 l 257
 722 1548 l 257
 722 0 l 257
EndSplineSet
EndChar

StartChar: B
Encoding: 66 66 35
Width: 1024
VWidth: 0
Flags: HW
LayerCount: 2
Fore
SplineSet
110 0 m 257
 318 0 l 257
 318 1537 l 257
 110 1537 l 257
 110 0 l 257
434 1331 m 257
 947 989 l 257
 947 1215 l 257
 434 1537 l 257
 434 1331 l 257
433 820 m 257
 948 991 l 257
 948 1215 l 257
 433 1023 l 257
 433 820 l 257
375 201 m 257
 375 0 l 257
 929 364 l 257
 929 588 l 257
 375 201 l 257
442 567 m 257
 929 364 l 257
 929 586 l 257
 442 766 l 257
 442 567 l 257
271 1023 m 257
 271 820 l 257
 433 820 l 257
 433 1023 l 257
 271 1023 l 257
270 766 m 257
 270 567 l 257
 442 567 l 257
 442 766 l 257
 270 766 l 257
208 200 m 257
 208 0 l 257
 375 0 l 257
 375 200 l 257
 208 200 l 257
270 1537 m 257
 270 1331 l 257
 433 1331 l 257
 433 1537 l 257
 270 1537 l 257
EndSplineSet
EndChar

StartChar: C
Encoding: 67 67 36
Width: 1024
VWidth: 0
Flags: HW
LayerCount: 2
Fore
SplineSet
71 1537 m 257
 71 0 l 257
 271 0 l 257
 271 1537 l 257
 71 1537 l 257
170 1537 m 257
 170 1338 l 257
 953 1338 l 257
 953 1537 l 257
 170 1537 l 257
156 199 m 257
 156 0 l 257
 951 0 l 257
 951 199 l 257
 156 199 l 257
EndSplineSet
EndChar

StartChar: D
Encoding: 68 68 37
Width: 1024
VWidth: 0
Flags: HW
LayerCount: 2
Fore
SplineSet
107 1548 m 257
 107 0 l 257
 309 0 l 257
 309 1548 l 257
 107 1548 l 257
433 1548 m 257
 433 1350 l 257
 916 767 l 257
 916 1023 l 257
 433 1548 l 257
441 201 m 257
 441 0 l 257
 913 769 l 257
 913 1023 l 257
 441 201 l 257
271 1548 m 257
 271 1349 l 257
 433 1349 l 257
 433 1548 l 257
 271 1548 l 257
279 200 m 257
 279 0 l 257
 441 0 l 257
 441 200 l 257
 279 200 l 257
EndSplineSet
EndChar

StartChar: E
Encoding: 69 69 38
Width: 1024
VWidth: 0
Flags: HW
LayerCount: 2
Fore
SplineSet
103 1537 m 257
 103 0 l 257
 303 0 l 257
 303 1537 l 257
 103 1537 l 257
181 1537 m 257
 181 1333 l 257
 900 1333 l 257
 900 1537 l 257
 181 1537 l 257
170 203 m 257
 170 0 l 257
 916 0 l 257
 916 203 l 257
 170 203 l 257
170 888 m 257
 170 688 l 257
 669 688 l 257
 669 888 l 257
 170 888 l 257
EndSplineSet
EndChar

StartChar: F
Encoding: 70 70 39
Width: 1024
VWidth: 0
Flags: HW
LayerCount: 2
Fore
SplineSet
141 1548 m 257
 141 0 l 257
 341 0 l 257
 341 1548 l 257
 141 1548 l 257
243 1548 m 257
 243 1347 l 257
 877 1347 l 257
 877 1548 l 257
 243 1548 l 257
231 875 m 257
 231 672 l 257
 780 672 l 257
 780 875 l 257
 231 875 l 257
EndSplineSet
EndChar

StartChar: G
Encoding: 71 71 40
Width: 1024
VWidth: 0
Flags: HW
LayerCount: 2
Fore
SplineSet
110 1548 m 257
 110 0 l 257
 312 0 l 257
 312 1548 l 257
 110 1548 l 257
168 1548 m 257
 168 1347 l 257
 868 1347 l 257
 868 1548 l 257
 168 1548 l 257
141 202 m 257
 141 0 l 257
 904 0 l 257
 904 202 l 257
 141 202 l 257
705 561 m 257
 705 18 l 257
 904 18 l 257
 904 561 l 257
 705 561 l 257
EndSplineSet
EndChar

StartChar: H
Encoding: 72 72 41
Width: 1024
VWidth: 0
Flags: HW
LayerCount: 2
Fore
SplineSet
89 1537 m 257
 89 0 l 257
 289 0 l 257
 289 1537 l 257
 89 1537 l 257
675 1537 m 257
 675 0 l 257
 885 0 l 257
 885 1537 l 257
 675 1537 l 257
209 1023 m 257
 209 818 l 257
 755 818 l 257
 755 1023 l 257
 209 1023 l 257
EndSplineSet
EndChar

StartChar: I
Encoding: 73 73 42
Width: 1024
VWidth: 0
Flags: HW
LayerCount: 2
Fore
SplineSet
144 1537 m 257
 144 1335 l 257
 845 1335 l 257
 845 1537 l 257
 144 1537 l 257
377 1468 m 257
 377 84 l 257
 577 84 l 257
 577 1468 l 257
 377 1468 l 257
124 204 m 257
 124 6 l 257
 880 6 l 257
 880 204 l 257
 124 204 l 257
EndSplineSet
EndChar

StartChar: J
Encoding: 74 74 43
Width: 1024
VWidth: 0
Flags: HW
LayerCount: 2
Fore
SplineSet
700 1527 m 257
 700 0 l 257
 900 0 l 257
 900 1527 l 257
 700 1527 l 257
126 208 m 257
 126 0 l 257
 741 0 l 257
 741 208 l 257
 126 208 l 257
125 503 m 257
 125 52 l 257
 323 52 l 257
 323 503 l 257
 125 503 l 257
EndSplineSet
EndChar

StartChar: K
Encoding: 75 75 44
Width: 1024
VWidth: 0
Flags: HW
LayerCount: 2
Fore
SplineSet
118 1537 m 257
 118 5 l 257
 319 5 l 257
 319 1537 l 257
 118 1537 l 257
163 999 m 257
 282 835 l 257
 939 1529 l 257
 672 1529 l 257
 163 999 l 257
293 798 m 257
 156 643 l 257
 711 0 l 257
 992 0 l 257
 293 798 l 257
EndSplineSet
EndChar

StartChar: L
Encoding: 76 76 45
Width: 1024
VWidth: 0
Flags: HW
LayerCount: 2
Fore
SplineSet
53 1542 m 257
 53 0 l 257
 251 0 l 257
 251 1542 l 257
 53 1542 l 257
162 202 m 257
 162 0 l 257
 888 0 l 257
 888 202 l 257
 162 202 l 257
EndSplineSet
EndChar

StartChar: M
Encoding: 77 77 46
Width: 1024
VWidth: 0
Flags: HW
LayerCount: 2
Fore
SplineSet
101 1548 m 257
 101 0 l 257
 304 0 l 257
 304 1548 l 257
 101 1548 l 257
722 1537 m 257
 722 0 l 257
 924 0 l 257
 924 1537 l 257
 722 1537 l 257
138 1429 m 257
 428 1031 l 257
 616 1031 l 257
 280 1548 l 257
 138 1429 l 257
749 1537 m 257
 427 1023 l 257
 614 1023 l 257
 915 1488 l 257
 749 1537 l 257
EndSplineSet
EndChar

StartChar: N
Encoding: 78 78 47
Width: 1024
VWidth: 0
Flags: HW
LayerCount: 2
Fore
SplineSet
95 1548 m 257
 95 0 l 257
 300 0 l 257
 300 1548 l 257
 95 1548 l 257
722 1548 m 257
 722 0 l 257
 924 0 l 257
 924 1548 l 257
 722 1548 l 257
96 1548 m 257
 723 0 l 257
 926 0 l 257
 301 1548 l 257
 96 1548 l 257
EndSplineSet
EndChar

StartChar: O
Encoding: 79 79 48
Width: 1024
VWidth: 0
Flags: HW
LayerCount: 2
Fore
SplineSet
110 1537 m 257
 110 0 l 257
 311 0 l 257
 311 1537 l 257
 110 1537 l 257
707 1537 m 257
 707 0 l 257
 910 0 l 257
 910 1537 l 257
 707 1537 l 257
174 1537 m 257
 174 1337 l 257
 817 1337 l 257
 817 1537 l 257
 174 1537 l 257
150 204 m 257
 150 0 l 257
 823 0 l 257
 823 204 l 257
 150 204 l 257
EndSplineSet
EndChar

StartChar: P
Encoding: 80 80 49
Width: 1024
VWidth: 0
Flags: HW
LayerCount: 2
Fore
SplineSet
112 1548 m 257
 112 9 l 257
 302 9 l 257
 302 1548 l 257
 112 1548 l 257
191 1548 m 257
 191 1346 l 257
 847 1346 l 257
 847 1548 l 257
 191 1548 l 257
667 1548 m 257
 667 881 l 257
 867 881 l 257
 867 1548 l 257
 667 1548 l 257
175 1068 m 257
 175 868 l 257
 862 868 l 257
 862 1068 l 257
 175 1068 l 257
EndSplineSet
EndChar

StartChar: Q
Encoding: 81 81 50
Width: 1024
VWidth: 0
Flags: HW
LayerCount: 2
Fore
SplineSet
110 1537 m 257
 110 5 l 257
 309 5 l 257
 309 1537 l 257
 110 1537 l 257
709 1537 m 257
 709 0 l 257
 910 0 l 257
 910 1537 l 257
 709 1537 l 257
174 1537 m 257
 174 1337 l 257
 817 1337 l 257
 817 1537 l 257
 174 1537 l 257
150 205 m 257
 150 0 l 257
 823 0 l 257
 823 205 l 257
 150 205 l 257
558 21 m 257
 744 -285 l 257
 935 -169 l 257
 749 137 l 257
 558 21 l 257
EndSplineSet
EndChar

StartChar: R
Encoding: 82 82 51
Width: 1024
VWidth: 0
Flags: HW
LayerCount: 2
Fore
SplineSet
112 1537 m 257
 112 0 l 257
 313 0 l 257
 313 1537 l 257
 112 1537 l 257
191 1537 m 257
 191 1335 l 257
 847 1335 l 257
 847 1537 l 257
 191 1537 l 257
674 1537 m 257
 674 872 l 257
 874 872 l 257
 874 1537 l 257
 674 1537 l 257
175 1079 m 257
 175 868 l 257
 862 868 l 257
 862 1079 l 257
 175 1079 l 257
314 874 m 257
 716 0 l 257
 956 0 l 257
 541 872 l 257
 314 874 l 257
EndSplineSet
EndChar

StartChar: S
Encoding: 83 83 52
Width: 1024
VWidth: 0
Flags: HW
LayerCount: 2
Fore
SplineSet
146 1537 m 257
 146 1336 l 257
 744 1336 l 257
 744 1537 l 257
 146 1537 l 257
146 1542 m 257
 146 1028 l 257
 348 1028 l 257
 348 1542 l 257
 146 1542 l 257
174 199 m 257
 174 0 l 257
 882 0 l 257
 882 199 l 257
 174 199 l 257
717 0 m 257
 918 0 l 257
 918 355 l 257
 717 355 l 257
 717 0 l 257
146 1028 m 257
 717 355 l 257
 918 355 l 257
 348 1028 l 257
 146 1028 l 257
EndSplineSet
EndChar

StartChar: T
Encoding: 84 84 53
Width: 1024
VWidth: 0
Flags: HW
LayerCount: 2
Fore
SplineSet
125 1548 m 257
 125 1348 l 257
 899 1348 l 257
 899 1548 l 257
 125 1548 l 257
412 1436 m 257
 412 6 l 257
 612 6 l 257
 612 1436 l 257
 412 1436 l 257
EndSplineSet
EndChar

StartChar: U
Encoding: 85 85 54
Width: 1024
VWidth: 0
Flags: HW
LayerCount: 2
Fore
SplineSet
157 1537 m 257
 157 0 l 257
 357 0 l 257
 357 1537 l 257
 157 1537 l 257
668 1537 m 257
 668 0 l 257
 867 0 l 257
 867 1537 l 257
 668 1537 l 257
204 200 m 257
 204 0 l 257
 824 0 l 257
 824 200 l 257
 204 200 l 257
EndSplineSet
EndChar

StartChar: V
Encoding: 86 86 55
Width: 1024
VWidth: 0
Flags: HW
LayerCount: 2
Fore
SplineSet
106 1548 m 257
 366 0 l 257
 587 0 l 257
 307 1548 l 257
 106 1548 l 257
716 1548 m 257
 491 0 l 257
 714 0 l 257
 917 1548 l 257
 716 1548 l 257
EndSplineSet
EndChar

StartChar: W
Encoding: 87 87 56
Width: 1024
VWidth: 0
Flags: HW
LayerCount: 2
Fore
SplineSet
104 1548 m 257
 104 0 l 257
 305 0 l 257
 305 1548 l 257
 104 1548 l 257
721 1548 m 257
 721 12 l 257
 922 12 l 257
 922 1548 l 257
 721 1548 l 257
413 1028 m 257
 413 0 l 257
 614 0 l 257
 614 1028 l 257
 413 1028 l 257
103 201 m 257
 103 0 l 257
 922 0 l 257
 922 201 l 257
 103 201 l 257
EndSplineSet
EndChar

StartChar: X
Encoding: 88 88 57
Width: 1024
VWidth: 0
Flags: HW
LayerCount: 2
Fore
SplineSet
91 1548 m 257
 733 0 l 257
 933 0 l 257
 290 1548 l 257
 91 1548 l 257
94 6 m 257
 295 6 l 257
 925 1548 l 257
 726 1548 l 257
 94 6 l 257
EndSplineSet
EndChar

StartChar: Y
Encoding: 89 89 58
Width: 1024
VWidth: 0
Flags: HW
LayerCount: 2
Fore
SplineSet
411 897 m 257
 411 0 l 257
 613 0 l 257
 613 897 l 257
 411 897 l 257
160 1548 m 257
 160 859 l 257
 360 859 l 257
 360 1548 l 257
 160 1548 l 257
665 1548 m 257
 665 859 l 257
 864 859 l 257
 864 1548 l 257
 665 1548 l 257
228 1023 m 257
 228 859 l 257
 774 859 l 257
 774 1023 l 257
 228 1023 l 257
EndSplineSet
EndChar

StartChar: Z
Encoding: 90 90 59
Width: 1024
VWidth: 0
Flags: HW
LayerCount: 2
Fore
SplineSet
97 1548 m 257
 97 1336 l 257
 931 1336 l 257
 931 1548 l 257
 97 1548 l 257
98 212 m 257
 98 0 l 257
 926 0 l 257
 926 212 l 257
 98 212 l 257
670 1335 m 257
 98 211 l 257
 305 211 l 257
 915 1335 l 257
 670 1335 l 257
EndSplineSet
EndChar

StartChar: bracketleft
Encoding: 91 91 60
Width: 1024
VWidth: 0
Flags: HW
LayerCount: 2
Fore
SplineSet
162 1542 m 257
 162 -242 l 257
 284 -242 l 257
 284 1542 l 257
 162 1542 l 257
216 1543 m 257
 216 1416 l 257
 425 1416 l 257
 425 1543 l 257
 216 1543 l 257
216 -91 m 257
 216 -242 l 257
 430 -242 l 257
 430 -91 l 257
 216 -91 l 257
EndSplineSet
EndChar

StartChar: backslash
Encoding: 92 92 61
Width: 1024
VWidth: 0
Flags: HW
LayerCount: 2
Fore
SplineSet
168 1441 m 257
 795 -13 l 257
 986 65 l 257
 360 1519 l 257
 168 1441 l 257
EndSplineSet
EndChar

StartChar: bracketright
Encoding: 93 93 62
Width: 1024
VWidth: 0
Flags: HW
LayerCount: 2
Fore
SplineSet
366 1542 m 257
 366 -242 l 257
 488 -242 l 257
 488 1542 l 257
 366 1542 l 257
216 1543 m 257
 216 1416 l 257
 425 1416 l 257
 425 1543 l 257
 216 1543 l 257
216 -91 m 257
 216 -242 l 257
 430 -242 l 257
 430 -91 l 257
 216 -91 l 257
EndSplineSet
EndChar

StartChar: asciicircum
Encoding: 94 94 63
Width: 1024
VWidth: 0
Flags: HW
LayerCount: 2
Fore
SplineSet
607 1023 m 257
 458 1023 l 257
 193 407 l 257
 343 345 l 257
 607 1023 l 257
464 904 m 257
 720 343 l 257
 870 400 l 257
 607 1023 l 257
 464 904 l 257
EndSplineSet
EndChar

StartChar: underscore
Encoding: 95 95 64
Width: 1024
VWidth: 0
Flags: HW
LayerCount: 2
Fore
SplineSet
-5 -5 m 257
 -5 -71 l 257
 1019 -71 l 257
 1019 -5 l 257
 -5 -5 l 257
EndSplineSet
EndChar

StartChar: grave
Encoding: 96 96 65
Width: 1024
VWidth: 0
Flags: HW
LayerCount: 2
Fore
SplineSet
266 1358 m 257
 411 1057 l 257
 560 1129 l 257
 414 1430 l 257
 266 1358 l 257
EndSplineSet
EndChar

StartChar: a
Encoding: 97 97 66
Width: 1024
VWidth: 0
Flags: HW
LayerCount: 2
Fore
SplineSet
168 1023 m 257
 168 824 l 257
 774 824 l 257
 774 1023 l 257
 168 1023 l 257
661 1023 m 257
 661 0 l 257
 855 0 l 257
 855 1023 l 257
 661 1023 l 257
172 599 m 257
 172 400 l 257
 796 400 l 257
 796 599 l 257
 172 599 l 257
172 575 m 257
 172 0 l 257
 373 0 l 257
 373 575 l 257
 172 575 l 257
170 201 m 257
 170 0 l 257
 860 0 l 257
 860 201 l 257
 170 201 l 257
EndSplineSet
EndChar

StartChar: b
Encoding: 98 98 67
Width: 1024
VWidth: 0
Flags: HW
LayerCount: 2
Fore
SplineSet
135 1537 m 257
 135 0 l 257
 334 0 l 257
 334 1537 l 257
 135 1537 l 257
232 1033 m 257
 232 834 l 257
 750 834 l 257
 750 1033 l 257
 232 1033 l 257
690 1033 m 257
 690 0 l 257
 889 0 l 257
 889 1033 l 257
 690 1033 l 257
260 207 m 257
 260 0 l 257
 810 0 l 257
 810 207 l 257
 260 207 l 257
EndSplineSet
EndChar

StartChar: c
Encoding: 99 99 68
Width: 1024
VWidth: 0
Flags: HW
LayerCount: 2
Fore
SplineSet
164 1023 m 257
 164 826 l 257
 860 826 l 257
 860 1023 l 257
 164 1023 l 257
166 984 m 257
 166 0 l 257
 368 0 l 257
 368 984 l 257
 166 984 l 257
272 201 m 257
 272 0 l 257
 854 0 l 257
 854 201 l 257
 272 201 l 257
EndSplineSet
EndChar

StartChar: d
Encoding: 100 100 69
Width: 1024
VWidth: 0
Flags: HW
LayerCount: 2
Fore
SplineSet
692 1527 m 257
 692 0 l 257
 893 0 l 257
 893 1527 l 257
 692 1527 l 257
228 1023 m 257
 228 822 l 257
 781 822 l 257
 781 1023 l 257
 228 1023 l 257
132 1023 m 257
 132 0 l 257
 333 0 l 257
 333 1023 l 257
 132 1023 l 257
228 195 m 257
 228 0 l 257
 845 0 l 257
 845 195 l 257
 228 195 l 257
EndSplineSet
EndChar

StartChar: e
Encoding: 101 101 70
Width: 1024
VWidth: 0
Flags: HW
LayerCount: 2
Fore
SplineSet
219 1023 m 257
 219 812 l 257
 854 812 l 257
 854 1023 l 257
 219 1023 l 257
169 1023 m 257
 169 0 l 257
 371 0 l 257
 371 1023 l 257
 169 1023 l 257
271 201 m 257
 271 0 l 257
 853 0 l 257
 853 201 l 257
 271 201 l 257
239 625 m 257
 239 446 l 257
 829 446 l 257
 829 625 l 257
 239 625 l 257
657 993 m 257
 657 445 l 257
 852 445 l 257
 852 993 l 257
 657 993 l 257
EndSplineSet
EndChar

StartChar: f
Encoding: 102 102 71
Width: 1024
VWidth: 0
Flags: HW
LayerCount: 2
Fore
SplineSet
316 1023 m 257
 316 -406 l 257
 516 -406 l 257
 516 1023 l 257
 316 1023 l 257
378 1023 m 257
 378 831 l 257
 860 831 l 257
 860 1023 l 257
 378 1023 l 257
132 559 m 257
 132 356 l 257
 763 356 l 257
 763 559 l 257
 132 559 l 257
EndSplineSet
EndChar

StartChar: g
Encoding: 103 103 72
Width: 1024
VWidth: 0
Flags: HW
LayerCount: 2
Fore
SplineSet
297 1023 m 257
 297 0 l 257
 489 0 l 257
 489 1023 l 257
 297 1023 l 257
337 1023 m 257
 337 823 l 257
 853 823 l 257
 853 1023 l 257
 337 1023 l 257
681 1023 m 257
 681 -411 l 257
 875 -411 l 257
 875 1023 l 257
 681 1023 l 257
360 198 m 257
 360 0 l 257
 817 0 l 257
 817 198 l 257
 360 198 l 257
291 -214 m 257
 291 -413 l 257
 826 -413 l 257
 826 -214 l 257
 291 -214 l 257
EndSplineSet
EndChar

StartChar: h
Encoding: 104 104 73
Width: 1024
VWidth: 0
Flags: HW
LayerCount: 2
Fore
SplineSet
174 1537 m 257
 174 6 l 257
 374 6 l 257
 374 1537 l 257
 174 1537 l 257
311 1023 m 257
 311 826 l 257
 842 826 l 257
 842 1023 l 257
 311 1023 l 257
651 1023 m 257
 651 0 l 257
 850 0 l 257
 850 1023 l 257
 651 1023 l 257
EndSplineSet
EndChar

StartChar: i
Encoding: 105 105 74
Width: 1024
VWidth: 0
Flags: HW
LayerCount: 2
Fore
SplineSet
411 1018 m 257
 411 139 l 257
 613 139 l 257
 613 1018 l 257
 411 1018 l 257
141 204 m 257
 141 6 l 257
 883 6 l 257
 883 204 l 257
 141 204 l 257
347 1369 m 257
 347 1168 l 257
 545 1168 l 257
 545 1369 l 257
 347 1369 l 257
191 1018 m 257
 191 818 l 257
 567 818 l 257
 567 1018 l 257
 191 1018 l 257
EndSplineSet
EndChar

StartChar: j
Encoding: 106 106 75
Width: 1024
VWidth: 0
Flags: HW
LayerCount: 2
Fore
SplineSet
627 1023 m 257
 627 -411 l 257
 826 -411 l 257
 826 1023 l 257
 627 1023 l 257
197 -209 m 257
 197 -406 l 257
 727 -406 l 257
 727 -209 l 257
 197 -209 l 257
198 -6 m 257
 198 -351 l 257
 398 -351 l 257
 398 -6 l 257
 198 -6 l 257
619 1413 m 257
 619 1214 l 257
 820 1214 l 257
 820 1413 l 257
 619 1413 l 257
EndSplineSet
EndChar

StartChar: k
Encoding: 107 107 76
Width: 1024
VWidth: 0
Flags: HW
LayerCount: 2
Fore
SplineSet
118 1537 m 257
 118 5 l 257
 318 5 l 257
 318 1537 l 257
 118 1537 l 257
167 516 m 257
 216 298 l 257
 903 1023 l 257
 686 1023 l 257
 167 516 l 257
424 631 m 257
 272 483 l 257
 722 0 l 257
 960 0 l 257
 424 631 l 257
EndSplineSet
EndChar

StartChar: l
Encoding: 108 108 77
Width: 1024
VWidth: 0
Flags: HW
LayerCount: 2
Fore
SplineSet
195 209 m 257
 195 9 l 257
 829 9 l 257
 829 209 l 257
 195 209 l 257
412 1548 m 257
 412 86 l 257
 612 86 l 257
 612 1548 l 257
 412 1548 l 257
256 1548 m 257
 256 1349 l 257
 491 1349 l 257
 491 1548 l 257
 256 1548 l 257
EndSplineSet
EndChar

StartChar: m
Encoding: 109 109 78
Width: 1024
VWidth: 0
Flags: HW
LayerCount: 2
Fore
SplineSet
110 993 m 257
 110 0 l 257
 310 0 l 257
 310 993 l 257
 110 993 l 257
425 972 m 257
 425 0 l 257
 625 0 l 257
 625 972 l 257
 425 972 l 257
740 976 m 257
 740 0 l 257
 940 0 l 257
 940 976 l 257
 740 976 l 257
33 1023 m 257
 33 826 l 257
 939 826 l 257
 939 1023 l 257
 33 1023 l 257
EndSplineSet
EndChar

StartChar: n
Encoding: 110 110 79
Width: 1024
VWidth: 0
Flags: HW
LayerCount: 2
Fore
SplineSet
244 990 m 257
 244 0 l 257
 445 0 l 257
 445 990 l 257
 244 990 l 257
643 976 m 257
 643 0 l 257
 844 0 l 257
 844 976 l 257
 643 976 l 257
65 1023 m 257
 65 826 l 257
 843 826 l 257
 843 1023 l 257
 65 1023 l 257
EndSplineSet
EndChar

StartChar: o
Encoding: 111 111 80
Width: 1024
VWidth: 0
Flags: HW
LayerCount: 2
Fore
SplineSet
104 1023 m 257
 104 0 l 257
 304 0 l 257
 304 1023 l 257
 104 1023 l 257
719 1023 m 257
 719 0 l 257
 921 0 l 257
 921 1023 l 257
 719 1023 l 257
227 1023 m 257
 227 822 l 257
 813 822 l 257
 813 1023 l 257
 227 1023 l 257
231 200 m 257
 231 0 l 257
 803 0 l 257
 803 200 l 257
 231 200 l 257
EndSplineSet
EndChar

StartChar: p
Encoding: 112 112 81
Width: 1024
VWidth: 0
Flags: HW
LayerCount: 2
Fore
SplineSet
173 1203 m 257
 173 -406 l 257
 373 -406 l 257
 373 1203 l 257
 173 1203 l 257
271 1023 m 257
 271 821 l 257
 810 821 l 257
 810 1023 l 257
 271 1023 l 257
275 202 m 257
 275 0 l 257
 815 0 l 257
 815 202 l 257
 275 202 l 257
613 876 m 257
 613 175 l 257
 811 175 l 257
 811 876 l 257
 613 876 l 257
EndSplineSet
EndChar

StartChar: q
Encoding: 113 113 82
Width: 1024
VWidth: 0
Flags: HW
LayerCount: 2
Fore
SplineSet
662 1201 m 257
 662 -406 l 257
 861 -406 l 257
 861 1201 l 257
 662 1201 l 257
189 1023 m 257
 189 823 l 257
 838 823 l 257
 838 1023 l 257
 189 1023 l 257
190 203 m 257
 190 0 l 257
 806 0 l 257
 806 203 l 257
 190 203 l 257
188 855 m 257
 188 107 l 257
 388 107 l 257
 388 855 l 257
 188 855 l 257
701 -268 m 257
 701 -406 l 257
 937 -406 l 257
 937 -268 l 257
 701 -268 l 257
EndSplineSet
EndChar

StartChar: r
Encoding: 114 114 83
Width: 1024
VWidth: 0
Flags: HW
LayerCount: 2
Fore
SplineSet
165 1023 m 257
 165 821 l 257
 898 821 l 257
 898 1023 l 257
 165 1023 l 257
380 954 m 257
 380 0 l 257
 580 0 l 257
 580 954 l 257
 380 954 l 257
698 976 m 257
 698 650 l 257
 898 650 l 257
 898 976 l 257
 698 976 l 257
EndSplineSet
EndChar

StartChar: s
Encoding: 115 115 84
Width: 1024
VWidth: 0
Flags: HW
LayerCount: 2
Fore
SplineSet
186 1023 m 257
 186 826 l 257
 795 826 l 257
 795 1023 l 257
 186 1023 l 257
186 1023 m 257
 186 736 l 257
 386 736 l 257
 386 1023 l 257
 186 1023 l 257
187 201 m 257
 187 0 l 257
 792 0 l 257
 792 201 l 257
 187 201 l 257
591 293 m 257
 591 12 l 257
 791 12 l 257
 791 293 l 257
 591 293 l 257
187 736 m 257
 591 293 l 257
 791 293 l 257
 387 736 l 257
 187 736 l 257
EndSplineSet
EndChar

StartChar: t
Encoding: 116 116 85
Width: 1024
VWidth: 0
Flags: HW
LayerCount: 2
Fore
SplineSet
410 1548 m 257
 410 0 l 257
 610 0 l 257
 610 1548 l 257
 410 1548 l 257
418 199 m 257
 418 0 l 257
 809 0 l 257
 809 199 l 257
 418 199 l 257
174 1023 m 257
 174 824 l 257
 848 824 l 257
 848 1023 l 257
 174 1023 l 257
EndSplineSet
EndChar

StartChar: u
Encoding: 117 117 86
Width: 1024
VWidth: 0
Flags: HW
LayerCount: 2
Fore
SplineSet
139 1023 m 257
 139 0 l 257
 340 0 l 257
 340 1023 l 257
 139 1023 l 257
571 1023 m 257
 571 0 l 257
 771 0 l 257
 771 1023 l 257
 571 1023 l 257
186 200 m 257
 186 0 l 257
 888 0 l 257
 888 200 l 257
 186 200 l 257
EndSplineSet
EndChar

StartChar: v
Encoding: 118 118 87
Width: 1024
VWidth: 0
Flags: HW
LayerCount: 2
Fore
SplineSet
181 1023 m 257
 410 0 l 257
 617 0 l 257
 380 1023 l 257
 181 1023 l 257
643 1023 m 257
 408 0 l 257
 615 0 l 257
 843 1023 l 257
 643 1023 l 257
EndSplineSet
EndChar

StartChar: w
Encoding: 119 119 88
Width: 1024
VWidth: 0
Flags: HW
LayerCount: 2
Fore
SplineSet
103 1023 m 257
 103 0 l 257
 302 0 l 257
 302 1023 l 257
 103 1023 l 257
722 1028 m 257
 722 12 l 257
 921 12 l 257
 921 1028 l 257
 722 1028 l 257
408 610 m 257
 408 0 l 257
 609 0 l 257
 609 610 l 257
 408 610 l 257
102 276 m 257
 102 0 l 257
 921 0 l 257
 921 276 l 257
 102 276 l 257
EndSplineSet
EndChar

StartChar: x
Encoding: 120 120 89
Width: 1024
VWidth: 0
Flags: HW
LayerCount: 2
Fore
SplineSet
91 0 m 257
 292 0 l 257
 927 1023 l 257
 728 1023 l 257
 91 0 l 257
93 1023 m 257
 735 0 l 257
 934 0 l 257
 295 1023 l 257
 93 1023 l 257
EndSplineSet
EndChar

StartChar: y
Encoding: 121 121 90
Width: 1024
VWidth: 0
Flags: HW
LayerCount: 2
Fore
SplineSet
680 1023 m 257
 680 -406 l 257
 880 -406 l 257
 880 1023 l 257
 680 1023 l 257
147 -211 m 257
 147 -406 l 257
 864 -406 l 257
 864 -211 l 257
 147 -211 l 257
147 1023 m 257
 147 264 l 257
 347 264 l 257
 347 1023 l 257
 147 1023 l 257
147 464 m 257
 147 264 l 257
 765 264 l 257
 765 464 l 257
 147 464 l 257
EndSplineSet
EndChar

StartChar: z
Encoding: 122 122 91
Width: 1024
VWidth: 0
Flags: HW
LayerCount: 2
Fore
SplineSet
98 1023 m 257
 98 826 l 257
 926 826 l 257
 926 1023 l 257
 98 1023 l 257
98 201 m 257
 98 0 l 257
 926 0 l 257
 926 201 l 257
 98 201 l 257
634 826 m 257
 98 201 l 257
 404 201 l 257
 926 826 l 257
 634 826 l 257
EndSplineSet
EndChar

StartChar: braceleft
Encoding: 123 123 92
Width: 1024
VWidth: 0
Flags: HW
LayerCount: 2
Fore
SplineSet
421 1548 m 257
 421 838 l 257
 567 838 l 257
 567 1548 l 257
 421 1548 l 257
433 424 m 257
 433 -286 l 257
 579 -286 l 257
 579 424 l 257
 433 424 l 257
132 690 m 257
 132 630 l 257
 567 838 l 257
 421 838 l 257
 132 690 l 257
132 690 m 257
 132 630 l 257
 431 425 l 257
 580 425 l 257
 132 690 l 257
422 1603 m 257
 422 1452 l 257
 690 1574 l 257
 694 1603 l 257
 422 1603 l 257
434 -140 m 257
 434 -287 l 257
 710 -287 l 257
 710 -274 l 257
 434 -140 l 257
EndSplineSet
EndChar

StartChar: bar
Encoding: 124 124 93
Width: 1024
VWidth: 0
Flags: HW
LayerCount: 2
Fore
SplineSet
525 1435 m 257
 525 -90 l 257
 728 -90 l 257
 728 1435 l 257
 525 1435 l 257
EndSplineSet
EndChar

StartChar: braceright
Encoding: 125 125 94
Width: 1024
VWidth: 0
Flags: HW
LayerCount: 2
Fore
SplineSet
437 1548 m 257
 275 1548 l 257
 275 838 l 257
 437 838 l 257
 437 1548 l 257
423 424 m 257
 263 424 l 257
 263 -286 l 257
 423 -286 l 257
 423 424 l 257
710 690 m 257
 432 838 l 257
 271 838 l 257
 710 630 l 257
 710 690 l 257
710 690 m 257
 263 424 l 257
 423 424 l 257
 710 630 l 257
 710 690 l 257
438 1603 m 257
 163 1603 l 257
 167 1574 l 257
 438 1452 l 257
 438 1603 l 257
408 -140 m 257
 132 -274 l 257
 132 -284 l 257
 408 -284 l 257
 408 -140 l 257
EndSplineSet
EndChar

StartChar: asciitilde
Encoding: 126 126 95
Width: 1024
VWidth: 0
Flags: HW
LayerCount: 2
Fore
SplineSet
330 815 m 257
 330 716 l 257
 680 655 l 257
 680 754 l 257
 330 815 l 257
92 757 m 257
 107 659 l 257
 330 716 l 257
 330 815 l 257
 92 757 l 257
680 754 m 257
 680 655 l 257
 861 796 l 257
 837 892 l 257
 680 754 l 257
EndSplineSet
EndChar

StartChar: exclamdown
Encoding: 161 161 97
Width: 1024
VWidth: 0
Flags: HW
LayerCount: 2
Fore
SplineSet
672 1520 m 257
 528 1520 l 257
 528 1272 l 257
 672 1272 l 257
 672 1520 l 257
662 1035 m 257
 534 1035 l 257
 534 17 l 257
 662 17 l 257
 662 1035 l 257
EndSplineSet
EndChar

StartChar: cent
Encoding: 162 162 98
Width: 1024
VWidth: 0
Flags: HW
LayerCount: 2
Fore
SplineSet
691 1183 m 257
 544 1183 l 257
 544 -86 l 257
 691 -86 l 257
 691 1183 l 257
164 1023 m 257
 164 826 l 257
 860 826 l 257
 860 1023 l 257
 164 1023 l 257
166 984 m 257
 166 0 l 257
 368 0 l 257
 368 984 l 257
 166 984 l 257
272 201 m 257
 272 0 l 257
 854 0 l 257
 854 201 l 257
 272 201 l 257
EndSplineSet
EndChar

StartChar: sterling
Encoding: 163 163 99
Width: 1024
VWidth: 0
Flags: HW
LayerCount: 2
Fore
SplineSet
381 1543 m 257
 381 1344 l 257
 672 1344 l 257
 672 1543 l 257
 381 1543 l 257
54 770 m 257
 54 571 l 257
 780 571 l 257
 780 770 l 257
 54 770 l 257
337 1542 m 257
 337 0 l 257
 535 0 l 257
 535 1542 l 257
 337 1542 l 257
162 202 m 257
 162 0 l 257
 888 0 l 257
 888 202 l 257
 162 202 l 257
EndSplineSet
EndChar

StartChar: currency
Encoding: 164 164 100
Width: 1024
VWidth: 0
Flags: HW
LayerCount: 2
Fore
SplineSet
79 1202 m 257
 79 180 l 257
 279 180 l 257
 279 1202 l 257
 79 1202 l 257
694 1204 m 257
 694 180 l 257
 896 180 l 257
 896 1204 l 257
 694 1204 l 257
202 1204 m 257
 202 1002 l 257
 788 1002 l 257
 788 1204 l 257
 202 1204 l 257
206 380 m 257
 206 181 l 257
 778 181 l 257
 778 380 l 257
 206 380 l 257
0 1356 m 257
 0 1109 l 257
 268 1109 l 257
 268 1356 l 257
 0 1356 l 257
698 1331 m 257
 698 1084 l 257
 962 1084 l 257
 962 1331 l 257
 698 1331 l 257
10 366 m 257
 10 119 l 257
 274 119 l 257
 274 366 l 257
 10 366 l 257
680 371 m 257
 680 124 l 257
 944 124 l 257
 944 371 l 257
 680 371 l 257
EndSplineSet
EndChar

StartChar: yen
Encoding: 165 165 101
Width: 1024
VWidth: 0
Flags: HW
LayerCount: 2
Fore
SplineSet
228 775 m 257
 228 615 l 257
 774 615 l 257
 774 775 l 257
 228 775 l 257
228 540 m 257
 228 380 l 257
 774 380 l 257
 774 540 l 257
 228 540 l 257
411 897 m 257
 411 0 l 257
 613 0 l 257
 613 897 l 257
 411 897 l 257
160 1548 m 257
 160 859 l 257
 360 859 l 257
 360 1548 l 257
 160 1548 l 257
665 1548 m 257
 665 859 l 257
 864 859 l 257
 864 1548 l 257
 665 1548 l 257
228 1023 m 257
 228 859 l 257
 774 859 l 257
 774 1023 l 257
 228 1023 l 257
EndSplineSet
EndChar

StartChar: brokenbar
Encoding: 166 166 102
Width: 1024
VWidth: 0
Flags: HW
LayerCount: 2
Fore
SplineSet
511 -332 m 257
 621 -332 l 257
 621 682 l 257
 511 682 l 257
 511 -332 l 257
514 790 m 257
 624 790 l 257
 624 1636 l 257
 514 1636 l 257
 514 790 l 257
EndSplineSet
EndChar

StartChar: section
Encoding: 167 167 103
Width: 1024
VWidth: 0
Flags: HW
LayerCount: 2
Fore
SplineSet
146 1238 m 257
 146 1035 l 257
 744 1035 l 257
 744 1238 l 257
 146 1238 l 257
146 1241 m 257
 146 605 l 257
 348 605 l 257
 348 1241 l 257
 146 1241 l 257
183 -61 m 257
 183 -260 l 257
 891 -260 l 257
 891 -61 l 257
 183 -61 l 257
726 -259 m 257
 927 -259 l 257
 927 95 l 257
 726 95 l 257
 726 -259 l 257
146 605 m 257
 726 95 l 257
 927 95 l 257
 348 605 l 257
 146 605 l 257
146 1626 m 257
 146 1423 l 257
 744 1423 l 257
 744 1626 l 257
 146 1626 l 257
146 1629 m 257
 146 1237 l 257
 348 1237 l 257
 348 1629 l 257
 146 1629 l 257
174 286 m 257
 174 87 l 257
 882 87 l 257
 882 286 l 257
 174 286 l 257
717 88 m 257
 918 88 l 257
 918 442 l 257
 717 442 l 257
 717 88 l 257
146 1237 m 257
 717 442 l 257
 918 442 l 257
 348 1237 l 257
 146 1237 l 257
EndSplineSet
EndChar

StartChar: dieresis
Encoding: 168 168 104
Width: 1024
VWidth: 0
Flags: HW
LayerCount: 2
Fore
SplineSet
345 1030 m 257
 345 929 l 257
 457 929 l 257
 457 1030 l 257
 345 1030 l 257
587 1030 m 257
 587 929 l 257
 699 929 l 257
 699 1030 l 257
 587 1030 l 257
EndSplineSet
EndChar

StartChar: copyright
Encoding: 169 169 105
Width: 1024
VWidth: 0
Flags: HW
LayerCount: 2
Fore
SplineSet
16 1537 m 257
 16 0 l 257
 217 0 l 257
 217 1537 l 257
 16 1537 l 257
814 1537 m 257
 814 0 l 257
 1017 0 l 257
 1017 1537 l 257
 814 1537 l 257
126 1537 m 257
 126 1337 l 257
 817 1337 l 257
 817 1537 l 257
 126 1537 l 257
150 204 m 257
 150 0 l 257
 823 0 l 257
 823 204 l 257
 150 204 l 257
262 1197 m 257
 262 996 l 257
 697 996 l 257
 697 1197 l 257
 262 1197 l 257
263 1154 m 257
 263 340 l 257
 432 340 l 257
 432 1154 l 257
 263 1154 l 257
263 495 m 257
 263 294 l 257
 703 294 l 257
 703 495 l 257
 263 495 l 257
EndSplineSet
EndChar

StartChar: ordfeminine
Encoding: 170 170 106
Width: 1024
VWidth: 0
Flags: HW
LayerCount: 2
Fore
SplineSet
168 1319 m 257
 168 1119 l 257
 774 1119 l 257
 774 1319 l 257
 168 1319 l 257
661 1320 m 257
 661 296 l 257
 855 296 l 257
 855 1320 l 257
 661 1320 l 257
172 894 m 257
 172 695 l 257
 796 695 l 257
 796 894 l 257
 172 894 l 257
172 870 m 257
 172 293 l 257
 373 293 l 257
 373 870 l 257
 172 870 l 257
170 496 m 257
 170 296 l 257
 860 296 l 257
 860 496 l 257
 170 496 l 257
77 162 m 257
 77 0 l 257
 945 0 l 257
 945 162 l 257
 77 162 l 257
EndSplineSet
EndChar

StartChar: guillemotleft
Encoding: 171 171 107
Width: 1024
VWidth: 0
Flags: HW
LayerCount: 2
Fore
SplineSet
134 609 m 257
 134 454 l 257
 503 631 l 257
 503 784 l 257
 134 609 l 257
134 609 m 257
 134 454 l 257
 502 122 l 257
 502 268 l 257
 134 609 l 257
549 609 m 257
 549 454 l 257
 918 631 l 257
 918 784 l 257
 549 609 l 257
549 609 m 257
 549 454 l 257
 917 122 l 257
 917 268 l 257
 549 609 l 257
EndSplineSet
EndChar

StartChar: logicalnot
Encoding: 172 172 108
Width: 1024
VWidth: 0
Flags: HW
LayerCount: 2
Fore
SplineSet
641 935 m 257
 641 640 l 257
 751 640 l 257
 751 935 l 257
 641 935 l 257
211 935 m 257
 211 835 l 257
 761 835 l 257
 761 935 l 257
 211 935 l 257
EndSplineSet
EndChar

StartChar: registered
Encoding: 174 174 109
Width: 1024
VWidth: 0
Flags: HW
LayerCount: 2
Fore
SplineSet
389 1032 m 257
 389 501 l 257
 457 501 l 257
 457 1032 l 257
 389 1032 l 257
414 1032 m 257
 414 963 l 257
 643 963 l 257
 643 1032 l 257
 414 1032 l 257
583 1032 m 257
 583 802 l 257
 652 802 l 257
 652 1032 l 257
 583 1032 l 257
410 875 m 257
 410 801 l 257
 648 801 l 257
 648 875 l 257
 410 875 l 257
457 809 m 257
 596 500 l 257
 679 500 l 257
 527 809 l 257
 457 809 l 257
33 1537 m 257
 33 0 l 257
 234 0 l 257
 234 1537 l 257
 33 1537 l 257
772 1537 m 257
 772 0 l 257
 975 0 l 257
 975 1537 l 257
 772 1537 l 257
174 1537 m 257
 174 1337 l 257
 817 1337 l 257
 817 1537 l 257
 174 1537 l 257
150 204 m 257
 150 0 l 257
 823 0 l 257
 823 204 l 257
 150 204 l 257
EndSplineSet
EndChar

StartChar: macron
Encoding: 175 175 110
Width: 1024
VWidth: 0
Flags: HW
LayerCount: 2
Fore
SplineSet
245 1023 m 257
 245 944 l 257
 805 944 l 257
 805 1023 l 257
 245 1023 l 257
EndSplineSet
EndChar

StartChar: degree
Encoding: 176 176 111
Width: 1024
VWidth: 0
Flags: HW
LayerCount: 2
Fore
SplineSet
467 1456 m 257
 615 1456 l 257
 615 1326 l 257
 467 1326 l 257
 467 1456 l 257
362 1548 m 257
 362 1238 l 257
 722 1238 l 257
 722 1548 l 257
 362 1548 l 257
EndSplineSet
EndChar

StartChar: plusminus
Encoding: 177 177 112
Width: 1024
VWidth: 0
Flags: HW
LayerCount: 2
Fore
SplineSet
99 108 m 257
 99 -100 l 257
 925 -100 l 257
 925 108 l 257
 99 108 l 257
384 1221 m 257
 384 165 l 257
 609 165 l 257
 609 1221 l 257
 384 1221 l 257
61 821 m 257
 61 613 l 257
 963 613 l 257
 963 821 l 257
 61 821 l 257
EndSplineSet
EndChar

StartChar: uni00B2
Encoding: 178 178 113
Width: 1024
VWidth: 0
Flags: HW
LayerCount: 2
Fore
SplineSet
225 1455 m 257
 573 1455 l 257
 573 1259 l 257
 229 1259 l 257
 229 851 l 257
 678 851 l 257
 678 940 l 257
 345 940 l 257
 345 1168 l 257
 687 1168 l 257
 687 1548 l 257
 225 1548 l 257
 225 1455 l 257
EndSplineSet
EndChar

StartChar: uni00B3
Encoding: 179 179 114
Width: 1024
VWidth: 0
Flags: HW
LayerCount: 2
Fore
SplineSet
193 1215 m 257
 645 1215 l 257
 645 990 l 257
 164 990 l 257
 164 908 l 257
 785 908 l 257
 785 1553 l 257
 185 1553 l 257
 185 1471 l 257
 644 1471 l 257
 644 1298 l 257
 193 1298 l 257
 193 1215 l 257
EndSplineSet
EndChar

StartChar: acute
Encoding: 180 180 115
Width: 1024
VWidth: 0
Flags: HW
LayerCount: 2
Fore
SplineSet
522 1556 m 257
 392 1302 l 257
 480 1256 l 257
 611 1511 l 257
 522 1556 l 257
EndSplineSet
EndChar

StartChar: mu
Encoding: 181 181 116
Width: 1024
VWidth: 0
Flags: HW
LayerCount: 2
Fore
SplineSet
731 935 m 257
 731 0 l 257
 841 0 l 257
 841 935 l 257
 731 935 l 257
296 120 m 257
 296 0 l 257
 811 0 l 257
 811 120 l 257
 296 120 l 257
196 935 m 257
 196 -430 l 257
 291 -430 l 257
 291 935 l 257
 196 935 l 257
EndSplineSet
EndChar

StartChar: paragraph
Encoding: 182 182 117
Width: 1024
VWidth: 0
Flags: HW
LayerCount: 2
Fore
SplineSet
36 1130 m 257
 36 985 l 257
 601 985 l 257
 601 1130 l 257
 36 1130 l 257
36 1548 m 257
 36 1000 l 257
 196 1000 l 257
 196 1548 l 257
 36 1548 l 257
36 1548 m 257
 36 1435 l 257
 856 1435 l 257
 856 1548 l 257
 36 1548 l 257
506 1548 m 257
 506 0 l 257
 651 0 l 257
 651 1548 l 257
 506 1548 l 257
776 1548 m 257
 776 0 l 257
 881 0 l 257
 881 1548 l 257
 776 1548 l 257
EndSplineSet
EndChar

StartChar: periodcentered
Encoding: 183 183 118
Width: 1024
VWidth: 0
Flags: HW
LayerCount: 2
Fore
SplineSet
379 1146 m 257
 379 899 l 257
 644 899 l 257
 644 1146 l 257
 379 1146 l 257
EndSplineSet
EndChar

StartChar: cedilla
Encoding: 184 184 119
Width: 1024
VWidth: 0
Flags: HW
LayerCount: 2
Fore
SplineSet
301 242 m 257
 301 -82 l 257
 457 -82 l 257
 457 242 l 257
 301 242 l 257
302 -226 m 257
 302 -346 l 257
 748 -346 l 257
 748 -226 l 257
 302 -226 l 257
596 62 m 257
 596 -310 l 257
 748 -310 l 257
 748 62 l 257
 596 62 l 257
302 62 m 257
 302 -94 l 257
 748 -94 l 257
 748 62 l 257
 302 62 l 257
EndSplineSet
EndChar

StartChar: uni00B9
Encoding: 185 185 120
Width: 1024
VWidth: 887
Flags: HW
LayerCount: 2
Fore
SplineSet
510.75 887 m 257
 610.25 887 l 257
 610.25 1661 l 257
 510.75 1661 l 257
 510.75 887 l 257
512.75 1661 m 257
 413.75 1513 l 257
 488.75 1463 l 257
 587.75 1611.5 l 257
 512.75 1661 l 257
EndSplineSet
EndChar

StartChar: ordmasculine
Encoding: 186 186 121
Width: 1024
VWidth: 0
Flags: HW
LayerCount: 2
Fore
SplineSet
104 1023 m 257
 104 0 l 257
 304 0 l 257
 304 1023 l 257
 104 1023 l 257
719 1023 m 257
 719 0 l 257
 921 0 l 257
 921 1023 l 257
 719 1023 l 257
227 1023 m 257
 227 822 l 257
 813 822 l 257
 813 1023 l 257
 227 1023 l 257
231 200 m 257
 231 0 l 257
 803 0 l 257
 803 200 l 257
 231 200 l 257
-5 -70 m 257
 -5 -136 l 257
 1019 -136 l 257
 1019 -70 l 257
 -5 -70 l 257
EndSplineSet
EndChar

StartChar: guillemotright
Encoding: 187 187 122
Width: 1024
VWidth: 0
Flags: HW
LayerCount: 2
Fore
SplineSet
920 609 m 257
 551 784 l 257
 551 631 l 257
 920 454 l 257
 920 609 l 257
920 609 m 257
 552 268 l 257
 552 122 l 257
 920 454 l 257
 920 609 l 257
505 609 m 257
 136 784 l 257
 136 631 l 257
 505 454 l 257
 505 609 l 257
505 609 m 257
 137 268 l 257
 137 122 l 257
 505 454 l 257
 505 609 l 257
EndSplineSet
EndChar

StartChar: onequarter
Encoding: 188 188 123
Width: 1024
VWidth: 0
Flags: HW
LayerCount: 2
Fore
SplineSet
666 1480 m 257
 79 10 l 257
 182 10 l 257
 769 1480 l 257
 666 1480 l 257
307 1045 m 257
 361 1045 l 257
 361 1548 l 257
 307 1548 l 257
 307 1045 l 257
312 1548 m 257
 202 1428 l 257
 222 1391 l 257
 341 1537 l 257
 312 1548 l 257
568 379 m 257
 873 379 l 257
 873 7 l 257
 932 7 l 257
 932 768 l 257
 872 768 l 257
 872 445 l 257
 627 445 l 257
 627 770 l 257
 568 770 l 257
 568 379 l 257
EndSplineSet
EndChar

StartChar: onehalf
Encoding: 189 189 124
Width: 1024
VWidth: 0
Flags: HW
LayerCount: 2
Fore
SplineSet
703 1483 m 257
 133 6 l 257
 310 -30 l 257
 880 1447 l 257
 703 1483 l 257
298 863 m 257
 381 863 l 257
 381 1548 l 257
 298 1548 l 257
 298 863 l 257
300 1548 m 257
 218 1419 l 257
 280 1374 l 257
 362 1506 l 257
 300 1548 l 257
654 603 m 257
 853 603 l 257
 853 407 l 257
 656 407 l 257
 656 0 l 257
 913 0 l 257
 913 90 l 257
 722 90 l 257
 722 317 l 257
 918 317 l 257
 918 693 l 257
 654 693 l 257
 654 603 l 257
EndSplineSet
EndChar

StartChar: threequarters
Encoding: 190 190 125
Width: 1024
VWidth: 0
Flags: HW
LayerCount: 2
Fore
SplineSet
703 1483 m 257
 133 6 l 257
 321 -67 l 257
 891 1410 l 257
 703 1483 l 257
77 1272 m 257
 355 1272 l 257
 355 1084 l 257
 59 1084 l 257
 59 1015 l 257
 441 1015 l 257
 441 1553 l 257
 72 1553 l 257
 72 1484 l 257
 354 1484 l 257
 354 1340 l 257
 77 1340 l 257
 77 1272 l 257
643 340 m 257
 908 340 l 257
 908 7 l 257
 989 7 l 257
 989 687 l 257
 907 687 l 257
 907 428 l 257
 725 428 l 257
 725 689 l 257
 643 689 l 257
 643 340 l 257
EndSplineSet
EndChar

StartChar: questiondown
Encoding: 191 191 126
Width: 1024
VWidth: 0
Flags: HW
LayerCount: 2
Fore
SplineSet
655 1273 m 257
 655 1519 l 257
 405 1519 l 257
 405 1272 l 257
 655 1273 l 257
832 0 m 257
 832 186 l 257
 195 186 l 257
 195 0 l 257
 832 0 l 257
385 5 m 257
 385 553 l 257
 191 553 l 257
 191 5 l 257
 385 5 l 257
655 504 m 257
 655 703 l 257
 191 703 l 257
 191 504 l 257
 655 504 l 257
655 508 m 257
 655 1127 l 257
 407 1127 l 257
 407 508 l 257
 655 508 l 257
EndSplineSet
EndChar

StartChar: AE
Encoding: 198 198 133
Width: 1024
VWidth: 0
Flags: HW
LayerCount: 2
Fore
SplineSet
646 185 m 257
 646 0 l 257
 996 0 l 257
 996 185 l 257
 646 185 l 257
125 0 m 257
 324 0 l 257
 324 1548 l 257
 125 1548 l 257
 125 0 l 257
186 1332 m 257
 974 1332 l 257
 974 1548 l 257
 186 1548 l 257
 186 1332 l 257
204 1023 m 257
 204 849 l 257
 922 849 l 257
 922 1023 l 257
 204 1023 l 257
551 0 m 257
 751 0 l 257
 751 1548 l 257
 551 1548 l 257
 551 0 l 257
EndSplineSet
EndChar

StartChar: Eth
Encoding: 208 208 143
Width: 1024
VWidth: 0
Flags: HW
LayerCount: 2
Fore
SplineSet
0 935 m 257
 0 730 l 257
 476 730 l 257
 476 935 l 257
 0 935 l 257
107 1548 m 257
 107 0 l 257
 309 0 l 257
 309 1548 l 257
 107 1548 l 257
433 1548 m 257
 433 1350 l 257
 916 767 l 257
 916 1023 l 257
 433 1548 l 257
441 201 m 257
 441 0 l 257
 913 769 l 257
 913 1023 l 257
 441 201 l 257
271 1548 m 257
 271 1349 l 257
 433 1349 l 257
 433 1548 l 257
 271 1548 l 257
279 200 m 257
 279 0 l 257
 441 0 l 257
 441 200 l 257
 279 200 l 257
EndSplineSet
EndChar

StartChar: multiply
Encoding: 215 215 150
Width: 1024
VWidth: 0
Flags: HW
LayerCount: 2
Fore
SplineSet
91 302 m 257
 292 302 l 257
 927 1323 l 257
 728 1323 l 257
 91 302 l 257
93 1325 m 257
 735 298 l 257
 934 298 l 257
 295 1325 l 257
 93 1325 l 257
EndSplineSet
EndChar

StartChar: Oslash
Encoding: 216 216 151
Width: 1024
VWidth: 0
Flags: HW
LayerCount: 2
Fore
SplineSet
788 1667 m 257
 35 -45 l 257
 223 -118 l 257
 976 1594 l 257
 788 1667 l 257
110 1537 m 257
 110 0 l 257
 311 0 l 257
 311 1537 l 257
 110 1537 l 257
707 1537 m 257
 707 0 l 257
 910 0 l 257
 910 1537 l 257
 707 1537 l 257
174 1537 m 257
 174 1337 l 257
 817 1337 l 257
 817 1537 l 257
 174 1537 l 257
150 204 m 257
 150 0 l 257
 823 0 l 257
 823 204 l 257
 150 204 l 257
EndSplineSet
EndChar

StartChar: Thorn
Encoding: 222 222 157
Width: 1024
VWidth: 0
Flags: HW
LayerCount: 2
Fore
SplineSet
112 1542 m 257
 112 9 l 257
 302 9 l 257
 302 1542 l 257
 112 1542 l 257
191 1234 m 257
 191 1035 l 257
 847 1035 l 257
 847 1234 l 257
 191 1234 l 257
667 1233 m 257
 667 569 l 257
 867 569 l 257
 867 1233 l 257
 667 1233 l 257
179 684 m 257
 179 484 l 257
 866 484 l 257
 866 684 l 257
 179 684 l 257
EndSplineSet
EndChar

StartChar: germandbls
Encoding: 223 223 158
Width: 1024
VWidth: 0
Flags: HW
LayerCount: 2
Fore
SplineSet
18 1221 m 257
 18 1023 l 257
 269 1023 l 257
 269 1221 l 257
 18 1221 l 257
204 1548 m 257
 204 0 l 257
 410 0 l 257
 410 1548 l 257
 204 1548 l 257
410 1548 m 257
 410 1328 l 257
 805 1328 l 257
 805 1548 l 257
 410 1548 l 257
690 1548 m 257
 690 1023 l 257
 889 1023 l 257
 889 1548 l 257
 690 1548 l 257
690 1062 m 257
 490 1062 l 257
 490 826 l 257
 690 826 l 257
 690 1062 l 257
690 848 m 257
 690 175 l 257
 890 175 l 257
 890 848 l 257
 690 848 l 257
547 251 m 257
 547 40 l 257
 890 40 l 257
 890 251 l 257
 547 251 l 257
EndSplineSet
EndChar

StartChar: ae
Encoding: 230 230 165
Width: 1024
VWidth: 0
Flags: HW
LayerCount: 2
Fore
SplineSet
48 1023 m 257
 48 824 l 257
 867 824 l 257
 867 1023 l 257
 48 1023 l 257
449 1023 m 257
 449 0 l 257
 643 0 l 257
 643 1023 l 257
 449 1023 l 257
71 599 m 257
 71 400 l 257
 868 400 l 257
 868 599 l 257
 71 599 l 257
71 575 m 257
 71 0 l 257
 272 0 l 257
 272 575 l 257
 71 575 l 257
69 201 m 257
 69 0 l 257
 989 0 l 257
 989 201 l 257
 69 201 l 257
773 1023 m 257
 773 400 l 257
 968 400 l 257
 968 1023 l 257
 773 1023 l 257
EndSplineSet
EndChar

StartChar: eth
Encoding: 240 240 175
Width: 1024
VWidth: 0
Flags: HW
LayerCount: 2
Fore
SplineSet
241 1548 m 257
 692 0 l 257
 893 0 l 257
 442 1548 l 257
 241 1548 l 257
228 1023 m 257
 228 822 l 257
 569 822 l 257
 569 1023 l 257
 228 1023 l 257
132 1023 m 257
 132 0 l 257
 333 0 l 257
 333 1023 l 257
 132 1023 l 257
228 195 m 257
 228 0 l 257
 845 0 l 257
 845 195 l 257
 228 195 l 257
161 1416 m 257
 161 1229 l 257
 693 1229 l 257
 693 1416 l 257
 161 1416 l 257
EndSplineSet
EndChar

StartChar: divide
Encoding: 247 247 182
Width: 1024
VWidth: 0
Flags: HW
LayerCount: 2
Fore
SplineSet
400 430 m 257
 400 201 l 257
 648 201 l 257
 648 430 l 257
 400 430 l 257
376 1294 m 257
 376 1047 l 257
 642 1047 l 257
 642 1294 l 257
 376 1294 l 257
99 808 m 257
 99 600 l 257
 925 600 l 257
 925 808 l 257
 99 808 l 257
EndSplineSet
EndChar

StartChar: oslash
Encoding: 248 248 183
Width: 1024
VWidth: 0
Flags: HW
LayerCount: 2
Fore
SplineSet
837 1164 m 257
 9 -5 l 257
 171 -103 l 257
 1000 1066 l 257
 837 1164 l 257
104 1023 m 257
 104 0 l 257
 304 0 l 257
 304 1023 l 257
 104 1023 l 257
719 1023 m 257
 719 0 l 257
 921 0 l 257
 921 1023 l 257
 719 1023 l 257
227 1023 m 257
 227 822 l 257
 813 822 l 257
 813 1023 l 257
 227 1023 l 257
231 200 m 257
 231 0 l 257
 803 0 l 257
 803 200 l 257
 231 200 l 257
EndSplineSet
EndChar

StartChar: thorn
Encoding: 254 254 189
Width: 1024
VWidth: 0
Flags: HW
LayerCount: 2
Fore
SplineSet
173 1034 m 257
 173 -406 l 257
 373 -406 l 257
 373 1034 l 257
 173 1034 l 257
360 667 m 257
 360 468 l 257
 916 468 l 257
 916 667 l 257
 360 667 l 257
368 6 m 257
 368 -195 l 257
 914 -195 l 257
 914 6 l 257
 368 6 l 257
716 597 m 257
 716 -104 l 257
 914 -104 l 257
 914 597 l 257
 716 597 l 257
EndSplineSet
EndChar

StartChar: dcaron
Encoding: 271 271 206
Width: 1024
VWidth: 0
Flags: HW
LayerCount: 2
Fore
SplineSet
613 1527 m 257
 613 0 l 257
 814 0 l 257
 814 1527 l 257
 613 1527 l 257
149 1023 m 257
 149 822 l 257
 702 822 l 257
 702 1023 l 257
 149 1023 l 257
53 1023 m 257
 53 0 l 257
 254 0 l 257
 254 1023 l 257
 53 1023 l 257
149 195 m 257
 149 0 l 257
 766 0 l 257
 766 195 l 257
 149 195 l 257
860 1496 m 257
 860 1264 l 257
 990 1264 l 257
 990 1496 l 257
 860 1496 l 257
EndSplineSet
EndChar

StartChar: Dcroat
Encoding: 272 272 207
Width: 1024
VWidth: 0
Flags: HW
LayerCount: 2
Fore
SplineSet
0 935 m 257
 0 730 l 257
 476 730 l 257
 476 935 l 257
 0 935 l 257
107 1548 m 257
 107 0 l 257
 309 0 l 257
 309 1548 l 257
 107 1548 l 257
433 1548 m 257
 433 1350 l 257
 916 767 l 257
 916 1023 l 257
 433 1548 l 257
441 201 m 257
 441 0 l 257
 913 769 l 257
 913 1023 l 257
 441 201 l 257
271 1548 m 257
 271 1349 l 257
 433 1349 l 257
 433 1548 l 257
 271 1548 l 257
279 200 m 257
 279 0 l 257
 441 0 l 257
 441 200 l 257
 279 200 l 257
EndSplineSet
EndChar

StartChar: dcroat
Encoding: 273 273 208
Width: 1024
VWidth: 0
Flags: HW
LayerCount: 2
Fore
SplineSet
692 1527 m 257
 692 0 l 257
 893 0 l 257
 893 1527 l 257
 692 1527 l 257
228 1023 m 257
 228 822 l 257
 781 822 l 257
 781 1023 l 257
 228 1023 l 257
132 1023 m 257
 132 0 l 257
 333 0 l 257
 333 1023 l 257
 132 1023 l 257
228 195 m 257
 228 0 l 257
 845 0 l 257
 845 195 l 257
 228 195 l 257
555 1403 m 257
 555 1202 l 257
 999 1202 l 257
 999 1403 l 257
 555 1403 l 257
EndSplineSet
EndChar

StartChar: uni0123
Encoding: 291 291 226
Width: 1024
VWidth: 0
Flags: HW
LayerCount: 2
Fore
SplineSet
297 1023 m 257
 297 0 l 257
 489 0 l 257
 489 1023 l 257
 297 1023 l 257
337 1023 m 257
 337 823 l 257
 853 823 l 257
 853 1023 l 257
 337 1023 l 257
681 1023 m 257
 681 -411 l 257
 875 -411 l 257
 875 1023 l 257
 681 1023 l 257
360 198 m 257
 360 0 l 257
 817 0 l 257
 817 198 l 257
 360 198 l 257
291 -214 m 257
 291 -413 l 257
 826 -413 l 257
 826 -214 l 257
 291 -214 l 257
447 1496 m 257
 447 1198 l 257
 577 1198 l 257
 577 1496 l 257
 447 1496 l 257
EndSplineSet
EndChar

StartChar: Hbar
Encoding: 294 294 229
Width: 1024
VWidth: 0
Flags: HW
LayerCount: 2
Fore
SplineSet
89 1537 m 257
 89 0 l 257
 289 0 l 257
 289 1537 l 257
 89 1537 l 257
675 1537 m 257
 675 0 l 257
 885 0 l 257
 885 1537 l 257
 675 1537 l 257
209 1023 m 257
 209 818 l 257
 755 818 l 257
 755 1023 l 257
 209 1023 l 257
28 1434 m 257
 28 1226 l 257
 953 1226 l 257
 953 1434 l 257
 28 1434 l 257
EndSplineSet
EndChar

StartChar: hbar
Encoding: 295 295 230
Width: 1024
VWidth: 0
Flags: HW
LayerCount: 2
Fore
SplineSet
174 1537 m 257
 174 6 l 257
 374 6 l 257
 374 1537 l 257
 174 1537 l 257
311 1023 m 257
 311 826 l 257
 842 826 l 257
 842 1023 l 257
 311 1023 l 257
651 1023 m 257
 651 0 l 257
 850 0 l 257
 850 1023 l 257
 651 1023 l 257
38 1429 m 257
 38 1221 l 257
 494 1221 l 257
 494 1429 l 257
 38 1429 l 257
EndSplineSet
EndChar

StartChar: dotlessi
Encoding: 305 305 240
Width: 1024
VWidth: 0
Flags: HW
LayerCount: 2
Fore
SplineSet
411 1018 m 257
 411 139 l 257
 613 139 l 257
 613 1018 l 257
 411 1018 l 257
141 204 m 257
 141 6 l 257
 883 6 l 257
 883 204 l 257
 141 204 l 257
191 1018 m 257
 191 818 l 257
 567 818 l 257
 567 1018 l 257
 191 1018 l 257
EndSplineSet
EndChar

StartChar: Lcaron
Encoding: 317 317 249
Width: 1024
VWidth: 0
Flags: HW
LayerCount: 2
Fore
SplineSet
53 1542 m 257
 53 0 l 257
 251 0 l 257
 251 1542 l 257
 53 1542 l 257
162 202 m 257
 162 0 l 257
 888 0 l 257
 888 202 l 257
 162 202 l 257
447 1496 m 257
 447 1264 l 257
 577 1264 l 257
 577 1496 l 257
 447 1496 l 257
EndSplineSet
EndChar

StartChar: lcaron
Encoding: 318 318 250
Width: 1024
VWidth: 0
Flags: HW
LayerCount: 2
Fore
SplineSet
133 209 m 257
 133 9 l 257
 767 9 l 257
 767 209 l 257
 133 209 l 257
350 1548 m 257
 350 86 l 257
 550 86 l 257
 550 1548 l 257
 350 1548 l 257
194 1548 m 257
 194 1349 l 257
 429 1349 l 257
 429 1548 l 257
 194 1548 l 257
630 1496 m 257
 630 1264 l 257
 760 1264 l 257
 760 1496 l 257
 630 1496 l 257
EndSplineSet
EndChar

StartChar: Lslash
Encoding: 321 321 253
Width: 1024
VWidth: 0
Flags: HW
LayerCount: 2
Fore
SplineSet
171 1542 m 257
 171 0 l 257
 369 0 l 257
 369 1542 l 257
 171 1542 l 257
280 202 m 257
 280 0 l 257
 1006 0 l 257
 1006 202 l 257
 280 202 l 257
16 902 m 257
 96 730 l 257
 530 932 l 257
 450 1104 l 257
 16 902 l 257
EndSplineSet
EndChar

StartChar: lslash
Encoding: 322 322 254
Width: 1024
VWidth: 0
Flags: HW
LayerCount: 2
Fore
SplineSet
195 209 m 257
 195 9 l 257
 829 9 l 257
 829 209 l 257
 195 209 l 257
412 1548 m 257
 412 86 l 257
 612 86 l 257
 612 1548 l 257
 412 1548 l 257
256 1548 m 257
 256 1349 l 257
 491 1349 l 257
 491 1548 l 257
 256 1548 l 257
815 1213 m 257
 112 830 l 257
 214 656 l 257
 917 1039 l 257
 815 1213 l 257
EndSplineSet
EndChar

StartChar: OE
Encoding: 338 338 267
Width: 1024
VWidth: 0
Flags: HW
LayerCount: 2
Fore
SplineSet
111 1548 m 257
 111 0 l 257
 312 0 l 257
 312 1548 l 257
 111 1548 l 257
503 1548 m 257
 503 0 l 257
 704 0 l 257
 704 1548 l 257
 503 1548 l 257
148 1548 m 257
 148 1349 l 257
 880 1349 l 257
 880 1548 l 257
 148 1548 l 257
150 200 m 257
 150 0 l 257
 888 0 l 257
 888 200 l 257
 150 200 l 257
606 859 m 257
 606 659 l 257
 850 659 l 257
 850 859 l 257
 606 859 l 257
EndSplineSet
EndChar

StartChar: oe
Encoding: 339 339 268
Width: 1024
VWidth: 0
Flags: HW
LayerCount: 2
Fore
SplineSet
597 645 m 257
 597 446 l 257
 824 446 l 257
 824 645 l 257
 597 645 l 257
799 1023 m 257
 799 445 l 257
 999 445 l 257
 999 1023 l 257
 799 1023 l 257
103 1023 m 257
 103 0 l 257
 303 0 l 257
 303 1023 l 257
 103 1023 l 257
451 1023 m 257
 451 0 l 257
 651 0 l 257
 651 1023 l 257
 451 1023 l 257
158 1023 m 257
 158 823 l 257
 859 823 l 257
 859 1023 l 257
 158 1023 l 257
149 200 m 257
 149 0 l 257
 999 0 l 257
 999 200 l 257
 149 200 l 257
EndSplineSet
EndChar

StartChar: tcaron
Encoding: 357 357 286
Width: 1024
VWidth: 0
Flags: HW
LayerCount: 2
Fore
SplineSet
342 1529 m 257
 342 0 l 257
 543 0 l 257
 543 1529 l 257
 342 1529 l 257
495 199 m 257
 495 0 l 257
 886 0 l 257
 886 199 l 257
 495 199 l 257
70 1023 m 257
 70 824 l 257
 849 824 l 257
 849 1023 l 257
 70 1023 l 257
672 1496 m 257
 672 1291 l 257
 802 1291 l 257
 802 1496 l 257
 672 1496 l 257
EndSplineSet
EndChar

StartChar: florin
Encoding: 402 402 310
Width: 1024
VWidth: 0
Flags: HW
LayerCount: 2
Fore
SplineSet
413 1023 m 257
 413 -406 l 257
 613 -406 l 257
 613 1023 l 257
 413 1023 l 257
475 1023 m 257
 475 831 l 257
 957 831 l 257
 957 1023 l 257
 475 1023 l 257
229 559 m 257
 229 356 l 257
 860 356 l 257
 860 559 l 257
 229 559 l 257
167 -201 m 257
 167 -406 l 257
 615 -406 l 257
 615 -201 l 257
 167 -201 l 257
EndSplineSet
EndChar

StartChar: uni0237
Encoding: 567 567 315
Width: 1024
VWidth: 0
Flags: HW
LayerCount: 2
Fore
SplineSet
627 1023 m 257
 627 -411 l 257
 826 -411 l 257
 826 1023 l 257
 627 1023 l 257
197 -209 m 257
 197 -406 l 257
 727 -406 l 257
 727 -209 l 257
 197 -209 l 257
198 -6 m 257
 198 -351 l 257
 398 -351 l 257
 398 -6 l 257
 198 -6 l 257
EndSplineSet
EndChar

StartChar: circumflex
Encoding: 710 710 316
Width: 1024
VWidth: 0
Flags: HW
LayerCount: 2
Fore
SplineSet
502 2158 m 257
 442 2158 l 257
 336 1911 l 257
 396 1886 l 257
 502 2158 l 257
444 2110 m 257
 547 1886 l 257
 607 1908 l 257
 502 2158 l 257
 444 2110 l 257
EndSplineSet
EndChar

StartChar: caron
Encoding: 711 711 317
Width: 1024
VWidth: 0
Flags: HW
LayerCount: 2
Fore
SplineSet
550 1083 m 257
 412 1437 l 257
 334 1404 l 257
 472 1083 l 257
 550 1083 l 257
475 1146 m 257
 550 1083 l 257
 687 1408 l 257
 609 1437 l 257
 475 1146 l 257
EndSplineSet
EndChar

StartChar: uni02C9
Encoding: 713 713 318
Width: 1024
VWidth: 0
Flags: HW
LayerCount: 2
Fore
SplineSet
226 1630 m 257
 226 1548 l 257
 786 1548 l 257
 786 1630 l 257
 226 1630 l 257
EndSplineSet
EndChar

StartChar: uni02CA
Encoding: 714 714 319
Width: 1024
VWidth: 0
Flags: HW
LayerCount: 2
Fore
SplineSet
551 2180 m 257
 421 1926 l 257
 509 1880 l 257
 640 2135 l 257
 551 2180 l 257
EndSplineSet
EndChar

StartChar: uni02CB
Encoding: 715 715 320
Width: 1024
VWidth: 0
Flags: HW
LayerCount: 2
Fore
SplineSet
421 2107 m 257
 541 1871 l 257
 632 1917 l 257
 513 2154 l 257
 421 2107 l 257
EndSplineSet
EndChar

StartChar: breve
Encoding: 728 728 321
Width: 1024
VWidth: 0
Flags: HW
LayerCount: 2
Fore
SplineSet
656 1548 m 257
 656 1480 l 257
 821 1548 l 257
 821 1645 l 257
 656 1548 l 257
332 1548 m 257
 332 1480 l 257
 656 1480 l 257
 656 1548 l 257
 332 1548 l 257
161 1630 m 257
 161 1548 l 257
 332 1480 l 257
 332 1548 l 257
 161 1630 l 257
EndSplineSet
EndChar

StartChar: dotaccent
Encoding: 729 729 322
Width: 1024
VWidth: 0
Flags: HW
LayerCount: 2
Fore
SplineSet
397 1053 m 257
 397 902 l 257
 565 902 l 257
 565 1053 l 257
 397 1053 l 257
EndSplineSet
EndChar

StartChar: ring
Encoding: 730 730 323
Width: 1024
VWidth: 0
Flags: HW
LayerCount: 2
Fore
SplineSet
467 1756 m 257
 615 1756 l 257
 615 1626 l 257
 467 1626 l 257
 467 1756 l 257
362 1847 m 257
 362 1537 l 257
 722 1537 l 257
 722 1847 l 257
 362 1847 l 257
EndSplineSet
EndChar

StartChar: ogonek
Encoding: 731 731 324
Width: 1024
VWidth: 0
Flags: HW
LayerCount: 2
Fore
SplineSet
259 -288 m 257
 259 -406 l 257
 801 -406 l 257
 801 -288 l 257
 259 -288 l 257
259 0 m 257
 259 -406 l 257
 377 -406 l 257
 377 0 l 257
 259 0 l 257
259 0 m 257
 259 -121 l 257
 801 -121 l 257
 801 0 l 257
 259 0 l 257
EndSplineSet
EndChar

StartChar: tilde
Encoding: 732 732 325
Width: 1024
VWidth: 0
Flags: HW
LayerCount: 2
Fore
SplineSet
359 1607 m 257
 359 1528 l 257
 639 1479 l 257
 639 1558 l 257
 359 1607 l 257
169 1560 m 257
 181 1482 l 257
 359 1528 l 257
 359 1607 l 257
 169 1560 l 257
639 1558 m 257
 639 1479 l 257
 784 1592 l 257
 765 1668 l 257
 639 1558 l 257
EndSplineSet
EndChar

StartChar: hungarumlaut
Encoding: 733 733 326
Width: 1024
VWidth: 0
Flags: HW
LayerCount: 2
Fore
SplineSet
240 122 m 257
 384 122 l 257
 384 370 l 257
 240 370 l 257
 240 122 l 257
640 122 m 257
 784 122 l 257
 784 370 l 257
 640 370 l 257
 640 122 l 257
EndSplineSet
EndChar

StartChar: gravecomb
Encoding: 768 768 327
Width: 1024
VWidth: 0
Flags: HW
LayerCount: 2
Fore
SplineSet
421 2107 m 257
 541 1871 l 257
 632 1917 l 257
 513 2154 l 257
 421 2107 l 257
EndSplineSet
EndChar

StartChar: acutecomb
Encoding: 769 769 328
Width: 1024
VWidth: 0
Flags: HW
LayerCount: 2
Fore
SplineSet
551 2180 m 257
 421 1926 l 257
 509 1880 l 257
 640 2135 l 257
 551 2180 l 257
EndSplineSet
EndChar

StartChar: uni0302
Encoding: 770 770 329
Width: 1024
VWidth: 0
Flags: HW
LayerCount: 2
Fore
SplineSet
502 2158 m 257
 442 2158 l 257
 336 1911 l 257
 396 1886 l 257
 502 2158 l 257
444 2110 m 257
 547 1886 l 257
 607 1908 l 257
 502 2158 l 257
 444 2110 l 257
EndSplineSet
EndChar

StartChar: tildecomb
Encoding: 771 771 330
Width: 1024
VWidth: 0
Flags: HW
LayerCount: 2
Fore
SplineSet
330 2015 m 257
 330 1916 l 257
 680 1855 l 257
 680 1954 l 257
 330 2015 l 257
92 1957 m 257
 107 1859 l 257
 330 1916 l 257
 330 2015 l 257
 92 1957 l 257
680 1954 m 257
 680 1855 l 257
 861 1996 l 257
 837 2092 l 257
 680 1954 l 257
EndSplineSet
EndChar

StartChar: uni0304
Encoding: 772 772 331
Width: 1024
VWidth: 0
Flags: HW
LayerCount: 2
Fore
SplineSet
226 1630 m 257
 226 1548 l 257
 786 1548 l 257
 786 1630 l 257
 226 1630 l 257
EndSplineSet
EndChar

StartChar: uni0306
Encoding: 774 774 332
Width: 1024
VWidth: 0
Flags: HW
LayerCount: 2
Fore
SplineSet
656 1548 m 257
 656 1480 l 257
 821 1548 l 257
 821 1645 l 257
 656 1548 l 257
332 1548 m 257
 332 1480 l 257
 656 1480 l 257
 656 1548 l 257
 332 1548 l 257
161 1630 m 257
 161 1548 l 257
 332 1480 l 257
 332 1548 l 257
 161 1630 l 257
EndSplineSet
EndChar

StartChar: uni0307
Encoding: 775 775 333
Width: 1024
VWidth: 0
Flags: HW
LayerCount: 2
Fore
SplineSet
400 1788 m 257
 400 1586 l 257
 624 1586 l 257
 624 1788 l 257
 400 1788 l 257
EndSplineSet
EndChar

StartChar: uni0308
Encoding: 776 776 334
Width: 1024
VWidth: 0
Flags: HW
LayerCount: 2
Fore
SplineSet
335 1738 m 257
 335 1637 l 257
 447 1637 l 257
 447 1738 l 257
 335 1738 l 257
577 1738 m 257
 577 1637 l 257
 689 1637 l 257
 689 1738 l 257
 577 1738 l 257
EndSplineSet
EndChar

StartChar: uni030A
Encoding: 778 778 335
Width: 1024
VWidth: 0
Flags: HW
LayerCount: 2
Fore
SplineSet
467 1756 m 257
 615 1756 l 257
 615 1626 l 257
 467 1626 l 257
 467 1756 l 257
362 1847 m 257
 362 1537 l 257
 722 1537 l 257
 722 1847 l 257
 362 1847 l 257
EndSplineSet
EndChar

StartChar: uni030C
Encoding: 780 780 337
Width: 1024
VWidth: 0
Flags: HW
LayerCount: 2
Fore
SplineSet
552 1349 m 257
 446 1621 l 257
 386 1596 l 257
 492 1349 l 257
 552 1349 l 257
494 1397 m 257
 552 1349 l 257
 657 1599 l 257
 597 1621 l 257
 494 1397 l 257
EndSplineSet
EndChar

StartChar: dotbelowcomb
Encoding: 803 803 338
Width: 1024
VWidth: 0
Flags: HW
LayerCount: 2
Fore
SplineSet
380 -204 m 257
 380 -451 l 257
 644 -451 l 257
 644 -204 l 257
 380 -204 l 257
EndSplineSet
EndChar

StartChar: uni0326
Encoding: 806 806 339
Width: 1024
VWidth: 0
Flags: HW
LayerCount: 2
Fore
SplineSet
397 0 m 257
 397 -230 l 257
 645 -230 l 257
 645 0 l 257
 397 0 l 257
496 -103 m 257
 378 -384 l 257
 521 -444 l 257
 643 -234 l 257
 496 -103 l 257
EndSplineSet
EndChar

StartChar: uni0327
Encoding: 807 807 340
Width: 1024
VWidth: 0
Flags: HW
LayerCount: 2
Fore
SplineSet
577 180 m 257
 577 -144 l 257
 733 -144 l 257
 733 180 l 257
 577 180 l 257
578 -288 m 257
 578 -406 l 257
 1024 -406 l 257
 1024 -288 l 257
 578 -288 l 257
872 0 m 257
 872 -372 l 257
 1024 -372 l 257
 1024 0 l 257
 872 0 l 257
578 0 m 257
 578 -156 l 257
 1024 -156 l 257
 1024 0 l 257
 578 0 l 257
EndSplineSet
EndChar

StartChar: uni0328
Encoding: 808 808 341
Width: 1024
VWidth: 0
Flags: HW
LayerCount: 2
Fore
SplineSet
482 -288 m 257
 482 -406 l 257
 1024 -406 l 257
 1024 -288 l 257
 482 -288 l 257
482 0 m 257
 482 -406 l 257
 600 -406 l 257
 600 0 l 257
 482 0 l 257
482 0 m 257
 482 -121 l 257
 1024 -121 l 257
 1024 0 l 257
 482 0 l 257
EndSplineSet
EndChar

StartChar: uni0331
Encoding: 817 817 342
Width: 1024
VWidth: 0
Flags: HW
LayerCount: 2
Fore
SplineSet
226 -170 m 257
 226 -248 l 257
 786 -248 l 257
 786 -170 l 257
 226 -170 l 257
EndSplineSet
EndChar

StartChar: uni1100
Encoding: 4352 4352 343
Width: 1024
VWidth: 0
Flags: HW
LayerCount: 2
Fore
SplineSet
18 -26 m 257
 1016 -26 l 257
 1016 1614 l 257
 18 1614 l 257
 18 -26 l 257
92 54 m 257
 92 1537 l 257
 485 817 l 257
 92 54 l 257
184 54 m 257
 523 740 l 257
 864 54 l 257
 184 54 l 257
212 1548 m 257
 843 1548 l 257
 525 899 l 257
 212 1548 l 257
563 822 m 257
 939 1548 l 257
 939 54 l 257
 563 822 l 257
EndSplineSet
EndChar

StartChar: uni1101
Encoding: 4353 4353 344
Width: 1024
VWidth: 0
Flags: HW
LayerCount: 2
Fore
SplineSet
18 -26 m 257
 1016 -26 l 257
 1016 1614 l 257
 18 1614 l 257
 18 -26 l 257
92 54 m 257
 92 1537 l 257
 485 817 l 257
 92 54 l 257
184 54 m 257
 523 740 l 257
 864 54 l 257
 184 54 l 257
212 1548 m 257
 843 1548 l 257
 525 899 l 257
 212 1548 l 257
563 822 m 257
 939 1548 l 257
 939 54 l 257
 563 822 l 257
EndSplineSet
EndChar

StartChar: uni1102
Encoding: 4354 4354 345
Width: 1024
VWidth: 0
Flags: HW
LayerCount: 2
Fore
SplineSet
18 -26 m 257
 1016 -26 l 257
 1016 1614 l 257
 18 1614 l 257
 18 -26 l 257
92 54 m 257
 92 1537 l 257
 485 817 l 257
 92 54 l 257
184 54 m 257
 523 740 l 257
 864 54 l 257
 184 54 l 257
212 1548 m 257
 843 1548 l 257
 525 899 l 257
 212 1548 l 257
563 822 m 257
 939 1548 l 257
 939 54 l 257
 563 822 l 257
EndSplineSet
EndChar

StartChar: uni1103
Encoding: 4355 4355 346
Width: 1024
VWidth: 0
Flags: HW
LayerCount: 2
Fore
SplineSet
18 -26 m 257
 1016 -26 l 257
 1016 1614 l 257
 18 1614 l 257
 18 -26 l 257
92 54 m 257
 92 1537 l 257
 485 817 l 257
 92 54 l 257
184 54 m 257
 523 740 l 257
 864 54 l 257
 184 54 l 257
212 1548 m 257
 843 1548 l 257
 525 899 l 257
 212 1548 l 257
563 822 m 257
 939 1548 l 257
 939 54 l 257
 563 822 l 257
EndSplineSet
EndChar

StartChar: uni1104
Encoding: 4356 4356 347
Width: 1024
VWidth: 0
Flags: HW
LayerCount: 2
Fore
SplineSet
18 -26 m 257
 1016 -26 l 257
 1016 1614 l 257
 18 1614 l 257
 18 -26 l 257
92 54 m 257
 92 1537 l 257
 485 817 l 257
 92 54 l 257
184 54 m 257
 523 740 l 257
 864 54 l 257
 184 54 l 257
212 1548 m 257
 843 1548 l 257
 525 899 l 257
 212 1548 l 257
563 822 m 257
 939 1548 l 257
 939 54 l 257
 563 822 l 257
EndSplineSet
EndChar

StartChar: uni1105
Encoding: 4357 4357 348
Width: 1024
VWidth: 0
Flags: HW
LayerCount: 2
Fore
SplineSet
18 -26 m 257
 1016 -26 l 257
 1016 1614 l 257
 18 1614 l 257
 18 -26 l 257
92 54 m 257
 92 1537 l 257
 485 817 l 257
 92 54 l 257
184 54 m 257
 523 740 l 257
 864 54 l 257
 184 54 l 257
212 1548 m 257
 843 1548 l 257
 525 899 l 257
 212 1548 l 257
563 822 m 257
 939 1548 l 257
 939 54 l 257
 563 822 l 257
EndSplineSet
EndChar

StartChar: uni1106
Encoding: 4358 4358 349
Width: 1024
VWidth: 0
Flags: HW
LayerCount: 2
Fore
SplineSet
18 -26 m 257
 1016 -26 l 257
 1016 1614 l 257
 18 1614 l 257
 18 -26 l 257
92 54 m 257
 92 1537 l 257
 485 817 l 257
 92 54 l 257
184 54 m 257
 523 740 l 257
 864 54 l 257
 184 54 l 257
212 1548 m 257
 843 1548 l 257
 525 899 l 257
 212 1548 l 257
563 822 m 257
 939 1548 l 257
 939 54 l 257
 563 822 l 257
EndSplineSet
EndChar

StartChar: uni1107
Encoding: 4359 4359 350
Width: 1024
VWidth: 0
Flags: HW
LayerCount: 2
Fore
SplineSet
18 -26 m 257
 1016 -26 l 257
 1016 1614 l 257
 18 1614 l 257
 18 -26 l 257
92 54 m 257
 92 1537 l 257
 485 817 l 257
 92 54 l 257
184 54 m 257
 523 740 l 257
 864 54 l 257
 184 54 l 257
212 1548 m 257
 843 1548 l 257
 525 899 l 257
 212 1548 l 257
563 822 m 257
 939 1548 l 257
 939 54 l 257
 563 822 l 257
EndSplineSet
EndChar

StartChar: uni1108
Encoding: 4360 4360 351
Width: 1024
VWidth: 0
Flags: HW
LayerCount: 2
Fore
SplineSet
18 -26 m 257
 1016 -26 l 257
 1016 1614 l 257
 18 1614 l 257
 18 -26 l 257
92 54 m 257
 92 1537 l 257
 485 817 l 257
 92 54 l 257
184 54 m 257
 523 740 l 257
 864 54 l 257
 184 54 l 257
212 1548 m 257
 843 1548 l 257
 525 899 l 257
 212 1548 l 257
563 822 m 257
 939 1548 l 257
 939 54 l 257
 563 822 l 257
EndSplineSet
EndChar

StartChar: uni1109
Encoding: 4361 4361 352
Width: 1024
VWidth: 0
Flags: HW
LayerCount: 2
Fore
SplineSet
18 -26 m 257
 1016 -26 l 257
 1016 1614 l 257
 18 1614 l 257
 18 -26 l 257
92 54 m 257
 92 1537 l 257
 485 817 l 257
 92 54 l 257
184 54 m 257
 523 740 l 257
 864 54 l 257
 184 54 l 257
212 1548 m 257
 843 1548 l 257
 525 899 l 257
 212 1548 l 257
563 822 m 257
 939 1548 l 257
 939 54 l 257
 563 822 l 257
EndSplineSet
EndChar

StartChar: uni110A
Encoding: 4362 4362 353
Width: 1024
VWidth: 0
Flags: HW
LayerCount: 2
Fore
SplineSet
18 -26 m 257
 1016 -26 l 257
 1016 1614 l 257
 18 1614 l 257
 18 -26 l 257
92 54 m 257
 92 1537 l 257
 485 817 l 257
 92 54 l 257
184 54 m 257
 523 740 l 257
 864 54 l 257
 184 54 l 257
212 1548 m 257
 843 1548 l 257
 525 899 l 257
 212 1548 l 257
563 822 m 257
 939 1548 l 257
 939 54 l 257
 563 822 l 257
EndSplineSet
EndChar

StartChar: uni110B
Encoding: 4363 4363 354
Width: 1024
VWidth: 0
Flags: HW
LayerCount: 2
Fore
SplineSet
18 -26 m 257
 1016 -26 l 257
 1016 1614 l 257
 18 1614 l 257
 18 -26 l 257
92 54 m 257
 92 1537 l 257
 485 817 l 257
 92 54 l 257
184 54 m 257
 523 740 l 257
 864 54 l 257
 184 54 l 257
212 1548 m 257
 843 1548 l 257
 525 899 l 257
 212 1548 l 257
563 822 m 257
 939 1548 l 257
 939 54 l 257
 563 822 l 257
EndSplineSet
EndChar

StartChar: uni110C
Encoding: 4364 4364 355
Width: 1024
VWidth: 0
Flags: HW
LayerCount: 2
Fore
SplineSet
18 -26 m 257
 1016 -26 l 257
 1016 1614 l 257
 18 1614 l 257
 18 -26 l 257
92 54 m 257
 92 1537 l 257
 485 817 l 257
 92 54 l 257
184 54 m 257
 523 740 l 257
 864 54 l 257
 184 54 l 257
212 1548 m 257
 843 1548 l 257
 525 899 l 257
 212 1548 l 257
563 822 m 257
 939 1548 l 257
 939 54 l 257
 563 822 l 257
EndSplineSet
EndChar

StartChar: uni110D
Encoding: 4365 4365 356
Width: 1024
VWidth: 0
Flags: HW
LayerCount: 2
Fore
SplineSet
18 -26 m 257
 1016 -26 l 257
 1016 1614 l 257
 18 1614 l 257
 18 -26 l 257
92 54 m 257
 92 1537 l 257
 485 817 l 257
 92 54 l 257
184 54 m 257
 523 740 l 257
 864 54 l 257
 184 54 l 257
212 1548 m 257
 843 1548 l 257
 525 899 l 257
 212 1548 l 257
563 822 m 257
 939 1548 l 257
 939 54 l 257
 563 822 l 257
EndSplineSet
EndChar

StartChar: uni110E
Encoding: 4366 4366 357
Width: 1024
VWidth: 0
Flags: HW
LayerCount: 2
Fore
SplineSet
18 -26 m 257
 1016 -26 l 257
 1016 1614 l 257
 18 1614 l 257
 18 -26 l 257
92 54 m 257
 92 1537 l 257
 485 817 l 257
 92 54 l 257
184 54 m 257
 523 740 l 257
 864 54 l 257
 184 54 l 257
212 1548 m 257
 843 1548 l 257
 525 899 l 257
 212 1548 l 257
563 822 m 257
 939 1548 l 257
 939 54 l 257
 563 822 l 257
EndSplineSet
EndChar

StartChar: uni110F
Encoding: 4367 4367 358
Width: 1024
VWidth: 0
Flags: HW
LayerCount: 2
Fore
SplineSet
18 -26 m 257
 1016 -26 l 257
 1016 1614 l 257
 18 1614 l 257
 18 -26 l 257
92 54 m 257
 92 1537 l 257
 485 817 l 257
 92 54 l 257
184 54 m 257
 523 740 l 257
 864 54 l 257
 184 54 l 257
212 1548 m 257
 843 1548 l 257
 525 899 l 257
 212 1548 l 257
563 822 m 257
 939 1548 l 257
 939 54 l 257
 563 822 l 257
EndSplineSet
EndChar

StartChar: uni1110
Encoding: 4368 4368 359
Width: 1024
VWidth: 0
Flags: HW
LayerCount: 2
Fore
SplineSet
18 -26 m 257
 1016 -26 l 257
 1016 1614 l 257
 18 1614 l 257
 18 -26 l 257
92 54 m 257
 92 1537 l 257
 485 817 l 257
 92 54 l 257
184 54 m 257
 523 740 l 257
 864 54 l 257
 184 54 l 257
212 1548 m 257
 843 1548 l 257
 525 899 l 257
 212 1548 l 257
563 822 m 257
 939 1548 l 257
 939 54 l 257
 563 822 l 257
EndSplineSet
EndChar

StartChar: uni1111
Encoding: 4369 4369 360
Width: 1024
VWidth: 0
Flags: HW
LayerCount: 2
Fore
SplineSet
18 -26 m 257
 1016 -26 l 257
 1016 1614 l 257
 18 1614 l 257
 18 -26 l 257
92 54 m 257
 92 1537 l 257
 485 817 l 257
 92 54 l 257
184 54 m 257
 523 740 l 257
 864 54 l 257
 184 54 l 257
212 1548 m 257
 843 1548 l 257
 525 899 l 257
 212 1548 l 257
563 822 m 257
 939 1548 l 257
 939 54 l 257
 563 822 l 257
EndSplineSet
EndChar

StartChar: uni1112
Encoding: 4370 4370 361
Width: 1024
VWidth: 0
Flags: HW
LayerCount: 2
Fore
SplineSet
18 -26 m 257
 1016 -26 l 257
 1016 1614 l 257
 18 1614 l 257
 18 -26 l 257
92 54 m 257
 92 1537 l 257
 485 817 l 257
 92 54 l 257
184 54 m 257
 523 740 l 257
 864 54 l 257
 184 54 l 257
212 1548 m 257
 843 1548 l 257
 525 899 l 257
 212 1548 l 257
563 822 m 257
 939 1548 l 257
 939 54 l 257
 563 822 l 257
EndSplineSet
EndChar

StartChar: uni1113
Encoding: 4371 4371 362
Width: 1024
VWidth: 0
Flags: HW
LayerCount: 2
Fore
SplineSet
18 -26 m 257
 1016 -26 l 257
 1016 1614 l 257
 18 1614 l 257
 18 -26 l 257
92 54 m 257
 92 1537 l 257
 485 817 l 257
 92 54 l 257
184 54 m 257
 523 740 l 257
 864 54 l 257
 184 54 l 257
212 1548 m 257
 843 1548 l 257
 525 899 l 257
 212 1548 l 257
563 822 m 257
 939 1548 l 257
 939 54 l 257
 563 822 l 257
EndSplineSet
EndChar

StartChar: uni1114
Encoding: 4372 4372 363
Width: 1024
VWidth: 0
Flags: HW
LayerCount: 2
Fore
SplineSet
18 -26 m 257
 1016 -26 l 257
 1016 1614 l 257
 18 1614 l 257
 18 -26 l 257
92 54 m 257
 92 1537 l 257
 485 817 l 257
 92 54 l 257
184 54 m 257
 523 740 l 257
 864 54 l 257
 184 54 l 257
212 1548 m 257
 843 1548 l 257
 525 899 l 257
 212 1548 l 257
563 822 m 257
 939 1548 l 257
 939 54 l 257
 563 822 l 257
EndSplineSet
EndChar

StartChar: uni1115
Encoding: 4373 4373 364
Width: 1024
VWidth: 0
Flags: HW
LayerCount: 2
Fore
SplineSet
18 -26 m 257
 1016 -26 l 257
 1016 1614 l 257
 18 1614 l 257
 18 -26 l 257
92 54 m 257
 92 1537 l 257
 485 817 l 257
 92 54 l 257
184 54 m 257
 523 740 l 257
 864 54 l 257
 184 54 l 257
212 1548 m 257
 843 1548 l 257
 525 899 l 257
 212 1548 l 257
563 822 m 257
 939 1548 l 257
 939 54 l 257
 563 822 l 257
EndSplineSet
EndChar

StartChar: uni1116
Encoding: 4374 4374 365
Width: 1024
VWidth: 0
Flags: HW
LayerCount: 2
Fore
SplineSet
18 -26 m 257
 1016 -26 l 257
 1016 1614 l 257
 18 1614 l 257
 18 -26 l 257
92 54 m 257
 92 1537 l 257
 485 817 l 257
 92 54 l 257
184 54 m 257
 523 740 l 257
 864 54 l 257
 184 54 l 257
212 1548 m 257
 843 1548 l 257
 525 899 l 257
 212 1548 l 257
563 822 m 257
 939 1548 l 257
 939 54 l 257
 563 822 l 257
EndSplineSet
EndChar

StartChar: uni1117
Encoding: 4375 4375 366
Width: 1024
VWidth: 0
Flags: HW
LayerCount: 2
Fore
SplineSet
18 -26 m 257
 1016 -26 l 257
 1016 1614 l 257
 18 1614 l 257
 18 -26 l 257
92 54 m 257
 92 1537 l 257
 485 817 l 257
 92 54 l 257
184 54 m 257
 523 740 l 257
 864 54 l 257
 184 54 l 257
212 1548 m 257
 843 1548 l 257
 525 899 l 257
 212 1548 l 257
563 822 m 257
 939 1548 l 257
 939 54 l 257
 563 822 l 257
EndSplineSet
EndChar

StartChar: uni1118
Encoding: 4376 4376 367
Width: 1024
VWidth: 0
Flags: HW
LayerCount: 2
Fore
SplineSet
18 -26 m 257
 1016 -26 l 257
 1016 1614 l 257
 18 1614 l 257
 18 -26 l 257
92 54 m 257
 92 1537 l 257
 485 817 l 257
 92 54 l 257
184 54 m 257
 523 740 l 257
 864 54 l 257
 184 54 l 257
212 1548 m 257
 843 1548 l 257
 525 899 l 257
 212 1548 l 257
563 822 m 257
 939 1548 l 257
 939 54 l 257
 563 822 l 257
EndSplineSet
EndChar

StartChar: uni1119
Encoding: 4377 4377 368
Width: 1024
VWidth: 0
Flags: HW
LayerCount: 2
Fore
SplineSet
18 -26 m 257
 1016 -26 l 257
 1016 1614 l 257
 18 1614 l 257
 18 -26 l 257
92 54 m 257
 92 1537 l 257
 485 817 l 257
 92 54 l 257
184 54 m 257
 523 740 l 257
 864 54 l 257
 184 54 l 257
212 1548 m 257
 843 1548 l 257
 525 899 l 257
 212 1548 l 257
563 822 m 257
 939 1548 l 257
 939 54 l 257
 563 822 l 257
EndSplineSet
EndChar

StartChar: uni111A
Encoding: 4378 4378 369
Width: 1024
VWidth: 0
Flags: HW
LayerCount: 2
Fore
SplineSet
18 -26 m 257
 1016 -26 l 257
 1016 1614 l 257
 18 1614 l 257
 18 -26 l 257
92 54 m 257
 92 1537 l 257
 485 817 l 257
 92 54 l 257
184 54 m 257
 523 740 l 257
 864 54 l 257
 184 54 l 257
212 1548 m 257
 843 1548 l 257
 525 899 l 257
 212 1548 l 257
563 822 m 257
 939 1548 l 257
 939 54 l 257
 563 822 l 257
EndSplineSet
EndChar

StartChar: uni111B
Encoding: 4379 4379 370
Width: 1024
VWidth: 0
Flags: HW
LayerCount: 2
Fore
SplineSet
18 -26 m 257
 1016 -26 l 257
 1016 1614 l 257
 18 1614 l 257
 18 -26 l 257
92 54 m 257
 92 1537 l 257
 485 817 l 257
 92 54 l 257
184 54 m 257
 523 740 l 257
 864 54 l 257
 184 54 l 257
212 1548 m 257
 843 1548 l 257
 525 899 l 257
 212 1548 l 257
563 822 m 257
 939 1548 l 257
 939 54 l 257
 563 822 l 257
EndSplineSet
EndChar

StartChar: uni111C
Encoding: 4380 4380 371
Width: 1024
VWidth: 0
Flags: HW
LayerCount: 2
Fore
SplineSet
18 -26 m 257
 1016 -26 l 257
 1016 1614 l 257
 18 1614 l 257
 18 -26 l 257
92 54 m 257
 92 1537 l 257
 485 817 l 257
 92 54 l 257
184 54 m 257
 523 740 l 257
 864 54 l 257
 184 54 l 257
212 1548 m 257
 843 1548 l 257
 525 899 l 257
 212 1548 l 257
563 822 m 257
 939 1548 l 257
 939 54 l 257
 563 822 l 257
EndSplineSet
EndChar

StartChar: uni111D
Encoding: 4381 4381 372
Width: 1024
VWidth: 0
Flags: HW
LayerCount: 2
Fore
SplineSet
18 -26 m 257
 1016 -26 l 257
 1016 1614 l 257
 18 1614 l 257
 18 -26 l 257
92 54 m 257
 92 1537 l 257
 485 817 l 257
 92 54 l 257
184 54 m 257
 523 740 l 257
 864 54 l 257
 184 54 l 257
212 1548 m 257
 843 1548 l 257
 525 899 l 257
 212 1548 l 257
563 822 m 257
 939 1548 l 257
 939 54 l 257
 563 822 l 257
EndSplineSet
EndChar

StartChar: uni111E
Encoding: 4382 4382 373
Width: 1024
VWidth: 0
Flags: HW
LayerCount: 2
Fore
SplineSet
18 -26 m 257
 1016 -26 l 257
 1016 1614 l 257
 18 1614 l 257
 18 -26 l 257
92 54 m 257
 92 1537 l 257
 485 817 l 257
 92 54 l 257
184 54 m 257
 523 740 l 257
 864 54 l 257
 184 54 l 257
212 1548 m 257
 843 1548 l 257
 525 899 l 257
 212 1548 l 257
563 822 m 257
 939 1548 l 257
 939 54 l 257
 563 822 l 257
EndSplineSet
EndChar

StartChar: uni111F
Encoding: 4383 4383 374
Width: 1024
VWidth: 0
Flags: HW
LayerCount: 2
Fore
SplineSet
18 -26 m 257
 1016 -26 l 257
 1016 1614 l 257
 18 1614 l 257
 18 -26 l 257
92 54 m 257
 92 1537 l 257
 485 817 l 257
 92 54 l 257
184 54 m 257
 523 740 l 257
 864 54 l 257
 184 54 l 257
212 1548 m 257
 843 1548 l 257
 525 899 l 257
 212 1548 l 257
563 822 m 257
 939 1548 l 257
 939 54 l 257
 563 822 l 257
EndSplineSet
EndChar

StartChar: uni1120
Encoding: 4384 4384 375
Width: 1024
VWidth: 0
Flags: HW
LayerCount: 2
Fore
SplineSet
18 -26 m 257
 1016 -26 l 257
 1016 1614 l 257
 18 1614 l 257
 18 -26 l 257
92 54 m 257
 92 1537 l 257
 485 817 l 257
 92 54 l 257
184 54 m 257
 523 740 l 257
 864 54 l 257
 184 54 l 257
212 1548 m 257
 843 1548 l 257
 525 899 l 257
 212 1548 l 257
563 822 m 257
 939 1548 l 257
 939 54 l 257
 563 822 l 257
EndSplineSet
EndChar

StartChar: uni1121
Encoding: 4385 4385 376
Width: 1024
VWidth: 0
Flags: HW
LayerCount: 2
Fore
SplineSet
18 -26 m 257
 1016 -26 l 257
 1016 1614 l 257
 18 1614 l 257
 18 -26 l 257
92 54 m 257
 92 1537 l 257
 485 817 l 257
 92 54 l 257
184 54 m 257
 523 740 l 257
 864 54 l 257
 184 54 l 257
212 1548 m 257
 843 1548 l 257
 525 899 l 257
 212 1548 l 257
563 822 m 257
 939 1548 l 257
 939 54 l 257
 563 822 l 257
EndSplineSet
EndChar

StartChar: uni1122
Encoding: 4386 4386 377
Width: 1024
VWidth: 0
Flags: HW
LayerCount: 2
Fore
SplineSet
18 -26 m 257
 1016 -26 l 257
 1016 1614 l 257
 18 1614 l 257
 18 -26 l 257
92 54 m 257
 92 1537 l 257
 485 817 l 257
 92 54 l 257
184 54 m 257
 523 740 l 257
 864 54 l 257
 184 54 l 257
212 1548 m 257
 843 1548 l 257
 525 899 l 257
 212 1548 l 257
563 822 m 257
 939 1548 l 257
 939 54 l 257
 563 822 l 257
EndSplineSet
EndChar

StartChar: uni1123
Encoding: 4387 4387 378
Width: 1024
VWidth: 0
Flags: HW
LayerCount: 2
Fore
SplineSet
18 -26 m 257
 1016 -26 l 257
 1016 1614 l 257
 18 1614 l 257
 18 -26 l 257
92 54 m 257
 92 1537 l 257
 485 817 l 257
 92 54 l 257
184 54 m 257
 523 740 l 257
 864 54 l 257
 184 54 l 257
212 1548 m 257
 843 1548 l 257
 525 899 l 257
 212 1548 l 257
563 822 m 257
 939 1548 l 257
 939 54 l 257
 563 822 l 257
EndSplineSet
EndChar

StartChar: uni1124
Encoding: 4388 4388 379
Width: 1024
VWidth: 0
Flags: HW
LayerCount: 2
Fore
SplineSet
18 -26 m 257
 1016 -26 l 257
 1016 1614 l 257
 18 1614 l 257
 18 -26 l 257
92 54 m 257
 92 1537 l 257
 485 817 l 257
 92 54 l 257
184 54 m 257
 523 740 l 257
 864 54 l 257
 184 54 l 257
212 1548 m 257
 843 1548 l 257
 525 899 l 257
 212 1548 l 257
563 822 m 257
 939 1548 l 257
 939 54 l 257
 563 822 l 257
EndSplineSet
EndChar

StartChar: uni1125
Encoding: 4389 4389 380
Width: 1024
VWidth: 0
Flags: HW
LayerCount: 2
Fore
SplineSet
18 -26 m 257
 1016 -26 l 257
 1016 1614 l 257
 18 1614 l 257
 18 -26 l 257
92 54 m 257
 92 1537 l 257
 485 817 l 257
 92 54 l 257
184 54 m 257
 523 740 l 257
 864 54 l 257
 184 54 l 257
212 1548 m 257
 843 1548 l 257
 525 899 l 257
 212 1548 l 257
563 822 m 257
 939 1548 l 257
 939 54 l 257
 563 822 l 257
EndSplineSet
EndChar

StartChar: uni1126
Encoding: 4390 4390 381
Width: 1024
VWidth: 0
Flags: HW
LayerCount: 2
Fore
SplineSet
18 -26 m 257
 1016 -26 l 257
 1016 1614 l 257
 18 1614 l 257
 18 -26 l 257
92 54 m 257
 92 1537 l 257
 485 817 l 257
 92 54 l 257
184 54 m 257
 523 740 l 257
 864 54 l 257
 184 54 l 257
212 1548 m 257
 843 1548 l 257
 525 899 l 257
 212 1548 l 257
563 822 m 257
 939 1548 l 257
 939 54 l 257
 563 822 l 257
EndSplineSet
EndChar

StartChar: uni1127
Encoding: 4391 4391 382
Width: 1024
VWidth: 0
Flags: HW
LayerCount: 2
Fore
SplineSet
18 -26 m 257
 1016 -26 l 257
 1016 1614 l 257
 18 1614 l 257
 18 -26 l 257
92 54 m 257
 92 1537 l 257
 485 817 l 257
 92 54 l 257
184 54 m 257
 523 740 l 257
 864 54 l 257
 184 54 l 257
212 1548 m 257
 843 1548 l 257
 525 899 l 257
 212 1548 l 257
563 822 m 257
 939 1548 l 257
 939 54 l 257
 563 822 l 257
EndSplineSet
EndChar

StartChar: uni1128
Encoding: 4392 4392 383
Width: 1024
VWidth: 0
Flags: HW
LayerCount: 2
Fore
SplineSet
18 -26 m 257
 1016 -26 l 257
 1016 1614 l 257
 18 1614 l 257
 18 -26 l 257
92 54 m 257
 92 1537 l 257
 485 817 l 257
 92 54 l 257
184 54 m 257
 523 740 l 257
 864 54 l 257
 184 54 l 257
212 1548 m 257
 843 1548 l 257
 525 899 l 257
 212 1548 l 257
563 822 m 257
 939 1548 l 257
 939 54 l 257
 563 822 l 257
EndSplineSet
EndChar

StartChar: uni1129
Encoding: 4393 4393 384
Width: 1024
VWidth: 0
Flags: HW
LayerCount: 2
Fore
SplineSet
18 -26 m 257
 1016 -26 l 257
 1016 1614 l 257
 18 1614 l 257
 18 -26 l 257
92 54 m 257
 92 1537 l 257
 485 817 l 257
 92 54 l 257
184 54 m 257
 523 740 l 257
 864 54 l 257
 184 54 l 257
212 1548 m 257
 843 1548 l 257
 525 899 l 257
 212 1548 l 257
563 822 m 257
 939 1548 l 257
 939 54 l 257
 563 822 l 257
EndSplineSet
EndChar

StartChar: uni112A
Encoding: 4394 4394 385
Width: 1024
VWidth: 0
Flags: HW
LayerCount: 2
Fore
SplineSet
18 -26 m 257
 1016 -26 l 257
 1016 1614 l 257
 18 1614 l 257
 18 -26 l 257
92 54 m 257
 92 1537 l 257
 485 817 l 257
 92 54 l 257
184 54 m 257
 523 740 l 257
 864 54 l 257
 184 54 l 257
212 1548 m 257
 843 1548 l 257
 525 899 l 257
 212 1548 l 257
563 822 m 257
 939 1548 l 257
 939 54 l 257
 563 822 l 257
EndSplineSet
EndChar

StartChar: uni112B
Encoding: 4395 4395 386
Width: 1024
VWidth: 0
Flags: HW
LayerCount: 2
Fore
SplineSet
18 -26 m 257
 1016 -26 l 257
 1016 1614 l 257
 18 1614 l 257
 18 -26 l 257
92 54 m 257
 92 1537 l 257
 485 817 l 257
 92 54 l 257
184 54 m 257
 523 740 l 257
 864 54 l 257
 184 54 l 257
212 1548 m 257
 843 1548 l 257
 525 899 l 257
 212 1548 l 257
563 822 m 257
 939 1548 l 257
 939 54 l 257
 563 822 l 257
EndSplineSet
EndChar

StartChar: uni112C
Encoding: 4396 4396 387
Width: 1024
VWidth: 0
Flags: HW
LayerCount: 2
Fore
SplineSet
18 -26 m 257
 1016 -26 l 257
 1016 1614 l 257
 18 1614 l 257
 18 -26 l 257
92 54 m 257
 92 1537 l 257
 485 817 l 257
 92 54 l 257
184 54 m 257
 523 740 l 257
 864 54 l 257
 184 54 l 257
212 1548 m 257
 843 1548 l 257
 525 899 l 257
 212 1548 l 257
563 822 m 257
 939 1548 l 257
 939 54 l 257
 563 822 l 257
EndSplineSet
EndChar

StartChar: uni112D
Encoding: 4397 4397 388
Width: 1024
VWidth: 0
Flags: HW
LayerCount: 2
Fore
SplineSet
18 -26 m 257
 1016 -26 l 257
 1016 1614 l 257
 18 1614 l 257
 18 -26 l 257
92 54 m 257
 92 1537 l 257
 485 817 l 257
 92 54 l 257
184 54 m 257
 523 740 l 257
 864 54 l 257
 184 54 l 257
212 1548 m 257
 843 1548 l 257
 525 899 l 257
 212 1548 l 257
563 822 m 257
 939 1548 l 257
 939 54 l 257
 563 822 l 257
EndSplineSet
EndChar

StartChar: uni112E
Encoding: 4398 4398 389
Width: 1024
VWidth: 0
Flags: HW
LayerCount: 2
Fore
SplineSet
18 -26 m 257
 1016 -26 l 257
 1016 1614 l 257
 18 1614 l 257
 18 -26 l 257
92 54 m 257
 92 1537 l 257
 485 817 l 257
 92 54 l 257
184 54 m 257
 523 740 l 257
 864 54 l 257
 184 54 l 257
212 1548 m 257
 843 1548 l 257
 525 899 l 257
 212 1548 l 257
563 822 m 257
 939 1548 l 257
 939 54 l 257
 563 822 l 257
EndSplineSet
EndChar

StartChar: uni112F
Encoding: 4399 4399 390
Width: 1024
VWidth: 0
Flags: HW
LayerCount: 2
Fore
SplineSet
18 -26 m 257
 1016 -26 l 257
 1016 1614 l 257
 18 1614 l 257
 18 -26 l 257
92 54 m 257
 92 1537 l 257
 485 817 l 257
 92 54 l 257
184 54 m 257
 523 740 l 257
 864 54 l 257
 184 54 l 257
212 1548 m 257
 843 1548 l 257
 525 899 l 257
 212 1548 l 257
563 822 m 257
 939 1548 l 257
 939 54 l 257
 563 822 l 257
EndSplineSet
EndChar

StartChar: uni1130
Encoding: 4400 4400 391
Width: 1024
VWidth: 0
Flags: HW
LayerCount: 2
Fore
SplineSet
18 -26 m 257
 1016 -26 l 257
 1016 1614 l 257
 18 1614 l 257
 18 -26 l 257
92 54 m 257
 92 1537 l 257
 485 817 l 257
 92 54 l 257
184 54 m 257
 523 740 l 257
 864 54 l 257
 184 54 l 257
212 1548 m 257
 843 1548 l 257
 525 899 l 257
 212 1548 l 257
563 822 m 257
 939 1548 l 257
 939 54 l 257
 563 822 l 257
EndSplineSet
EndChar

StartChar: uni1131
Encoding: 4401 4401 392
Width: 1024
VWidth: 0
Flags: HW
LayerCount: 2
Fore
SplineSet
18 -26 m 257
 1016 -26 l 257
 1016 1614 l 257
 18 1614 l 257
 18 -26 l 257
92 54 m 257
 92 1537 l 257
 485 817 l 257
 92 54 l 257
184 54 m 257
 523 740 l 257
 864 54 l 257
 184 54 l 257
212 1548 m 257
 843 1548 l 257
 525 899 l 257
 212 1548 l 257
563 822 m 257
 939 1548 l 257
 939 54 l 257
 563 822 l 257
EndSplineSet
EndChar

StartChar: uni1132
Encoding: 4402 4402 393
Width: 1024
VWidth: 0
Flags: HW
LayerCount: 2
Fore
SplineSet
18 -26 m 257
 1016 -26 l 257
 1016 1614 l 257
 18 1614 l 257
 18 -26 l 257
92 54 m 257
 92 1537 l 257
 485 817 l 257
 92 54 l 257
184 54 m 257
 523 740 l 257
 864 54 l 257
 184 54 l 257
212 1548 m 257
 843 1548 l 257
 525 899 l 257
 212 1548 l 257
563 822 m 257
 939 1548 l 257
 939 54 l 257
 563 822 l 257
EndSplineSet
EndChar

StartChar: uni1133
Encoding: 4403 4403 394
Width: 1024
VWidth: 0
Flags: HW
LayerCount: 2
Fore
SplineSet
18 -26 m 257
 1016 -26 l 257
 1016 1614 l 257
 18 1614 l 257
 18 -26 l 257
92 54 m 257
 92 1537 l 257
 485 817 l 257
 92 54 l 257
184 54 m 257
 523 740 l 257
 864 54 l 257
 184 54 l 257
212 1548 m 257
 843 1548 l 257
 525 899 l 257
 212 1548 l 257
563 822 m 257
 939 1548 l 257
 939 54 l 257
 563 822 l 257
EndSplineSet
EndChar

StartChar: uni1134
Encoding: 4404 4404 395
Width: 1024
VWidth: 0
Flags: HW
LayerCount: 2
Fore
SplineSet
18 -26 m 257
 1016 -26 l 257
 1016 1614 l 257
 18 1614 l 257
 18 -26 l 257
92 54 m 257
 92 1537 l 257
 485 817 l 257
 92 54 l 257
184 54 m 257
 523 740 l 257
 864 54 l 257
 184 54 l 257
212 1548 m 257
 843 1548 l 257
 525 899 l 257
 212 1548 l 257
563 822 m 257
 939 1548 l 257
 939 54 l 257
 563 822 l 257
EndSplineSet
EndChar

StartChar: uni1135
Encoding: 4405 4405 396
Width: 1024
VWidth: 0
Flags: HW
LayerCount: 2
Fore
SplineSet
18 -26 m 257
 1016 -26 l 257
 1016 1614 l 257
 18 1614 l 257
 18 -26 l 257
92 54 m 257
 92 1537 l 257
 485 817 l 257
 92 54 l 257
184 54 m 257
 523 740 l 257
 864 54 l 257
 184 54 l 257
212 1548 m 257
 843 1548 l 257
 525 899 l 257
 212 1548 l 257
563 822 m 257
 939 1548 l 257
 939 54 l 257
 563 822 l 257
EndSplineSet
EndChar

StartChar: uni1136
Encoding: 4406 4406 397
Width: 1024
VWidth: 0
Flags: HW
LayerCount: 2
Fore
SplineSet
18 -26 m 257
 1016 -26 l 257
 1016 1614 l 257
 18 1614 l 257
 18 -26 l 257
92 54 m 257
 92 1537 l 257
 485 817 l 257
 92 54 l 257
184 54 m 257
 523 740 l 257
 864 54 l 257
 184 54 l 257
212 1548 m 257
 843 1548 l 257
 525 899 l 257
 212 1548 l 257
563 822 m 257
 939 1548 l 257
 939 54 l 257
 563 822 l 257
EndSplineSet
EndChar

StartChar: uni1137
Encoding: 4407 4407 398
Width: 1024
VWidth: 0
Flags: HW
LayerCount: 2
Fore
SplineSet
18 -26 m 257
 1016 -26 l 257
 1016 1614 l 257
 18 1614 l 257
 18 -26 l 257
92 54 m 257
 92 1537 l 257
 485 817 l 257
 92 54 l 257
184 54 m 257
 523 740 l 257
 864 54 l 257
 184 54 l 257
212 1548 m 257
 843 1548 l 257
 525 899 l 257
 212 1548 l 257
563 822 m 257
 939 1548 l 257
 939 54 l 257
 563 822 l 257
EndSplineSet
EndChar

StartChar: uni1138
Encoding: 4408 4408 399
Width: 1024
VWidth: 0
Flags: HW
LayerCount: 2
Fore
SplineSet
18 -26 m 257
 1016 -26 l 257
 1016 1614 l 257
 18 1614 l 257
 18 -26 l 257
92 54 m 257
 92 1537 l 257
 485 817 l 257
 92 54 l 257
184 54 m 257
 523 740 l 257
 864 54 l 257
 184 54 l 257
212 1548 m 257
 843 1548 l 257
 525 899 l 257
 212 1548 l 257
563 822 m 257
 939 1548 l 257
 939 54 l 257
 563 822 l 257
EndSplineSet
EndChar

StartChar: uni1139
Encoding: 4409 4409 400
Width: 1024
VWidth: 0
Flags: HW
LayerCount: 2
Fore
SplineSet
18 -26 m 257
 1016 -26 l 257
 1016 1614 l 257
 18 1614 l 257
 18 -26 l 257
92 54 m 257
 92 1537 l 257
 485 817 l 257
 92 54 l 257
184 54 m 257
 523 740 l 257
 864 54 l 257
 184 54 l 257
212 1548 m 257
 843 1548 l 257
 525 899 l 257
 212 1548 l 257
563 822 m 257
 939 1548 l 257
 939 54 l 257
 563 822 l 257
EndSplineSet
EndChar

StartChar: uni113A
Encoding: 4410 4410 401
Width: 1024
VWidth: 0
Flags: HW
LayerCount: 2
Fore
SplineSet
18 -26 m 257
 1016 -26 l 257
 1016 1614 l 257
 18 1614 l 257
 18 -26 l 257
92 54 m 257
 92 1537 l 257
 485 817 l 257
 92 54 l 257
184 54 m 257
 523 740 l 257
 864 54 l 257
 184 54 l 257
212 1548 m 257
 843 1548 l 257
 525 899 l 257
 212 1548 l 257
563 822 m 257
 939 1548 l 257
 939 54 l 257
 563 822 l 257
EndSplineSet
EndChar

StartChar: uni113B
Encoding: 4411 4411 402
Width: 1024
VWidth: 0
Flags: HW
LayerCount: 2
Fore
SplineSet
18 -26 m 257
 1016 -26 l 257
 1016 1614 l 257
 18 1614 l 257
 18 -26 l 257
92 54 m 257
 92 1537 l 257
 485 817 l 257
 92 54 l 257
184 54 m 257
 523 740 l 257
 864 54 l 257
 184 54 l 257
212 1548 m 257
 843 1548 l 257
 525 899 l 257
 212 1548 l 257
563 822 m 257
 939 1548 l 257
 939 54 l 257
 563 822 l 257
EndSplineSet
EndChar

StartChar: uni113C
Encoding: 4412 4412 403
Width: 1024
VWidth: 0
Flags: HW
LayerCount: 2
Fore
SplineSet
18 -26 m 257
 1016 -26 l 257
 1016 1614 l 257
 18 1614 l 257
 18 -26 l 257
92 54 m 257
 92 1537 l 257
 485 817 l 257
 92 54 l 257
184 54 m 257
 523 740 l 257
 864 54 l 257
 184 54 l 257
212 1548 m 257
 843 1548 l 257
 525 899 l 257
 212 1548 l 257
563 822 m 257
 939 1548 l 257
 939 54 l 257
 563 822 l 257
EndSplineSet
EndChar

StartChar: uni113D
Encoding: 4413 4413 404
Width: 1024
VWidth: 0
Flags: HW
LayerCount: 2
Fore
SplineSet
18 -26 m 257
 1016 -26 l 257
 1016 1614 l 257
 18 1614 l 257
 18 -26 l 257
92 54 m 257
 92 1537 l 257
 485 817 l 257
 92 54 l 257
184 54 m 257
 523 740 l 257
 864 54 l 257
 184 54 l 257
212 1548 m 257
 843 1548 l 257
 525 899 l 257
 212 1548 l 257
563 822 m 257
 939 1548 l 257
 939 54 l 257
 563 822 l 257
EndSplineSet
EndChar

StartChar: uni113E
Encoding: 4414 4414 405
Width: 1024
VWidth: 0
Flags: HW
LayerCount: 2
Fore
SplineSet
18 -26 m 257
 1016 -26 l 257
 1016 1614 l 257
 18 1614 l 257
 18 -26 l 257
92 54 m 257
 92 1537 l 257
 485 817 l 257
 92 54 l 257
184 54 m 257
 523 740 l 257
 864 54 l 257
 184 54 l 257
212 1548 m 257
 843 1548 l 257
 525 899 l 257
 212 1548 l 257
563 822 m 257
 939 1548 l 257
 939 54 l 257
 563 822 l 257
EndSplineSet
EndChar

StartChar: uni113F
Encoding: 4415 4415 406
Width: 1024
VWidth: 0
Flags: HW
LayerCount: 2
Fore
SplineSet
18 -26 m 257
 1016 -26 l 257
 1016 1614 l 257
 18 1614 l 257
 18 -26 l 257
92 54 m 257
 92 1537 l 257
 485 817 l 257
 92 54 l 257
184 54 m 257
 523 740 l 257
 864 54 l 257
 184 54 l 257
212 1548 m 257
 843 1548 l 257
 525 899 l 257
 212 1548 l 257
563 822 m 257
 939 1548 l 257
 939 54 l 257
 563 822 l 257
EndSplineSet
EndChar

StartChar: uni1140
Encoding: 4416 4416 407
Width: 1024
VWidth: 0
Flags: HW
LayerCount: 2
Fore
SplineSet
18 -26 m 257
 1016 -26 l 257
 1016 1614 l 257
 18 1614 l 257
 18 -26 l 257
92 54 m 257
 92 1537 l 257
 485 817 l 257
 92 54 l 257
184 54 m 257
 523 740 l 257
 864 54 l 257
 184 54 l 257
212 1548 m 257
 843 1548 l 257
 525 899 l 257
 212 1548 l 257
563 822 m 257
 939 1548 l 257
 939 54 l 257
 563 822 l 257
EndSplineSet
EndChar

StartChar: uni1141
Encoding: 4417 4417 408
Width: 1024
VWidth: 0
Flags: HW
LayerCount: 2
Fore
SplineSet
18 -26 m 257
 1016 -26 l 257
 1016 1614 l 257
 18 1614 l 257
 18 -26 l 257
92 54 m 257
 92 1537 l 257
 485 817 l 257
 92 54 l 257
184 54 m 257
 523 740 l 257
 864 54 l 257
 184 54 l 257
212 1548 m 257
 843 1548 l 257
 525 899 l 257
 212 1548 l 257
563 822 m 257
 939 1548 l 257
 939 54 l 257
 563 822 l 257
EndSplineSet
EndChar

StartChar: uni1142
Encoding: 4418 4418 409
Width: 1024
VWidth: 0
Flags: HW
LayerCount: 2
Fore
SplineSet
18 -26 m 257
 1016 -26 l 257
 1016 1614 l 257
 18 1614 l 257
 18 -26 l 257
92 54 m 257
 92 1537 l 257
 485 817 l 257
 92 54 l 257
184 54 m 257
 523 740 l 257
 864 54 l 257
 184 54 l 257
212 1548 m 257
 843 1548 l 257
 525 899 l 257
 212 1548 l 257
563 822 m 257
 939 1548 l 257
 939 54 l 257
 563 822 l 257
EndSplineSet
EndChar

StartChar: uni1143
Encoding: 4419 4419 410
Width: 1024
VWidth: 0
Flags: HW
LayerCount: 2
Fore
SplineSet
18 -26 m 257
 1016 -26 l 257
 1016 1614 l 257
 18 1614 l 257
 18 -26 l 257
92 54 m 257
 92 1537 l 257
 485 817 l 257
 92 54 l 257
184 54 m 257
 523 740 l 257
 864 54 l 257
 184 54 l 257
212 1548 m 257
 843 1548 l 257
 525 899 l 257
 212 1548 l 257
563 822 m 257
 939 1548 l 257
 939 54 l 257
 563 822 l 257
EndSplineSet
EndChar

StartChar: uni1144
Encoding: 4420 4420 411
Width: 1024
VWidth: 0
Flags: HW
LayerCount: 2
Fore
SplineSet
18 -26 m 257
 1016 -26 l 257
 1016 1614 l 257
 18 1614 l 257
 18 -26 l 257
92 54 m 257
 92 1537 l 257
 485 817 l 257
 92 54 l 257
184 54 m 257
 523 740 l 257
 864 54 l 257
 184 54 l 257
212 1548 m 257
 843 1548 l 257
 525 899 l 257
 212 1548 l 257
563 822 m 257
 939 1548 l 257
 939 54 l 257
 563 822 l 257
EndSplineSet
EndChar

StartChar: uni1145
Encoding: 4421 4421 412
Width: 1024
VWidth: 0
Flags: HW
LayerCount: 2
Fore
SplineSet
18 -26 m 257
 1016 -26 l 257
 1016 1614 l 257
 18 1614 l 257
 18 -26 l 257
92 54 m 257
 92 1537 l 257
 485 817 l 257
 92 54 l 257
184 54 m 257
 523 740 l 257
 864 54 l 257
 184 54 l 257
212 1548 m 257
 843 1548 l 257
 525 899 l 257
 212 1548 l 257
563 822 m 257
 939 1548 l 257
 939 54 l 257
 563 822 l 257
EndSplineSet
EndChar

StartChar: uni1146
Encoding: 4422 4422 413
Width: 1024
VWidth: 0
Flags: HW
LayerCount: 2
Fore
SplineSet
18 -26 m 257
 1016 -26 l 257
 1016 1614 l 257
 18 1614 l 257
 18 -26 l 257
92 54 m 257
 92 1537 l 257
 485 817 l 257
 92 54 l 257
184 54 m 257
 523 740 l 257
 864 54 l 257
 184 54 l 257
212 1548 m 257
 843 1548 l 257
 525 899 l 257
 212 1548 l 257
563 822 m 257
 939 1548 l 257
 939 54 l 257
 563 822 l 257
EndSplineSet
EndChar

StartChar: uni1147
Encoding: 4423 4423 414
Width: 1024
VWidth: 0
Flags: HW
LayerCount: 2
Fore
SplineSet
18 -26 m 257
 1016 -26 l 257
 1016 1614 l 257
 18 1614 l 257
 18 -26 l 257
92 54 m 257
 92 1537 l 257
 485 817 l 257
 92 54 l 257
184 54 m 257
 523 740 l 257
 864 54 l 257
 184 54 l 257
212 1548 m 257
 843 1548 l 257
 525 899 l 257
 212 1548 l 257
563 822 m 257
 939 1548 l 257
 939 54 l 257
 563 822 l 257
EndSplineSet
EndChar

StartChar: uni1148
Encoding: 4424 4424 415
Width: 1024
VWidth: 0
Flags: HW
LayerCount: 2
Fore
SplineSet
18 -26 m 257
 1016 -26 l 257
 1016 1614 l 257
 18 1614 l 257
 18 -26 l 257
92 54 m 257
 92 1537 l 257
 485 817 l 257
 92 54 l 257
184 54 m 257
 523 740 l 257
 864 54 l 257
 184 54 l 257
212 1548 m 257
 843 1548 l 257
 525 899 l 257
 212 1548 l 257
563 822 m 257
 939 1548 l 257
 939 54 l 257
 563 822 l 257
EndSplineSet
EndChar

StartChar: uni1149
Encoding: 4425 4425 416
Width: 1024
VWidth: 0
Flags: HW
LayerCount: 2
Fore
SplineSet
18 -26 m 257
 1016 -26 l 257
 1016 1614 l 257
 18 1614 l 257
 18 -26 l 257
92 54 m 257
 92 1537 l 257
 485 817 l 257
 92 54 l 257
184 54 m 257
 523 740 l 257
 864 54 l 257
 184 54 l 257
212 1548 m 257
 843 1548 l 257
 525 899 l 257
 212 1548 l 257
563 822 m 257
 939 1548 l 257
 939 54 l 257
 563 822 l 257
EndSplineSet
EndChar

StartChar: uni114A
Encoding: 4426 4426 417
Width: 1024
VWidth: 0
Flags: HW
LayerCount: 2
Fore
SplineSet
18 -26 m 257
 1016 -26 l 257
 1016 1614 l 257
 18 1614 l 257
 18 -26 l 257
92 54 m 257
 92 1537 l 257
 485 817 l 257
 92 54 l 257
184 54 m 257
 523 740 l 257
 864 54 l 257
 184 54 l 257
212 1548 m 257
 843 1548 l 257
 525 899 l 257
 212 1548 l 257
563 822 m 257
 939 1548 l 257
 939 54 l 257
 563 822 l 257
EndSplineSet
EndChar

StartChar: uni114B
Encoding: 4427 4427 418
Width: 1024
VWidth: 0
Flags: HW
LayerCount: 2
Fore
SplineSet
18 -26 m 257
 1016 -26 l 257
 1016 1614 l 257
 18 1614 l 257
 18 -26 l 257
92 54 m 257
 92 1537 l 257
 485 817 l 257
 92 54 l 257
184 54 m 257
 523 740 l 257
 864 54 l 257
 184 54 l 257
212 1548 m 257
 843 1548 l 257
 525 899 l 257
 212 1548 l 257
563 822 m 257
 939 1548 l 257
 939 54 l 257
 563 822 l 257
EndSplineSet
EndChar

StartChar: uni114C
Encoding: 4428 4428 419
Width: 1024
VWidth: 0
Flags: HW
LayerCount: 2
Fore
SplineSet
18 -26 m 257
 1016 -26 l 257
 1016 1614 l 257
 18 1614 l 257
 18 -26 l 257
92 54 m 257
 92 1537 l 257
 485 817 l 257
 92 54 l 257
184 54 m 257
 523 740 l 257
 864 54 l 257
 184 54 l 257
212 1548 m 257
 843 1548 l 257
 525 899 l 257
 212 1548 l 257
563 822 m 257
 939 1548 l 257
 939 54 l 257
 563 822 l 257
EndSplineSet
EndChar

StartChar: uni114D
Encoding: 4429 4429 420
Width: 1024
VWidth: 0
Flags: HW
LayerCount: 2
Fore
SplineSet
18 -26 m 257
 1016 -26 l 257
 1016 1614 l 257
 18 1614 l 257
 18 -26 l 257
92 54 m 257
 92 1537 l 257
 485 817 l 257
 92 54 l 257
184 54 m 257
 523 740 l 257
 864 54 l 257
 184 54 l 257
212 1548 m 257
 843 1548 l 257
 525 899 l 257
 212 1548 l 257
563 822 m 257
 939 1548 l 257
 939 54 l 257
 563 822 l 257
EndSplineSet
EndChar

StartChar: uni114E
Encoding: 4430 4430 421
Width: 1024
VWidth: 0
Flags: HW
LayerCount: 2
Fore
SplineSet
18 -26 m 257
 1016 -26 l 257
 1016 1614 l 257
 18 1614 l 257
 18 -26 l 257
92 54 m 257
 92 1537 l 257
 485 817 l 257
 92 54 l 257
184 54 m 257
 523 740 l 257
 864 54 l 257
 184 54 l 257
212 1548 m 257
 843 1548 l 257
 525 899 l 257
 212 1548 l 257
563 822 m 257
 939 1548 l 257
 939 54 l 257
 563 822 l 257
EndSplineSet
EndChar

StartChar: uni114F
Encoding: 4431 4431 422
Width: 1024
VWidth: 0
Flags: HW
LayerCount: 2
Fore
SplineSet
18 -26 m 257
 1016 -26 l 257
 1016 1614 l 257
 18 1614 l 257
 18 -26 l 257
92 54 m 257
 92 1537 l 257
 485 817 l 257
 92 54 l 257
184 54 m 257
 523 740 l 257
 864 54 l 257
 184 54 l 257
212 1548 m 257
 843 1548 l 257
 525 899 l 257
 212 1548 l 257
563 822 m 257
 939 1548 l 257
 939 54 l 257
 563 822 l 257
EndSplineSet
EndChar

StartChar: uni1150
Encoding: 4432 4432 423
Width: 1024
VWidth: 0
Flags: HW
LayerCount: 2
Fore
SplineSet
18 -26 m 257
 1016 -26 l 257
 1016 1614 l 257
 18 1614 l 257
 18 -26 l 257
92 54 m 257
 92 1537 l 257
 485 817 l 257
 92 54 l 257
184 54 m 257
 523 740 l 257
 864 54 l 257
 184 54 l 257
212 1548 m 257
 843 1548 l 257
 525 899 l 257
 212 1548 l 257
563 822 m 257
 939 1548 l 257
 939 54 l 257
 563 822 l 257
EndSplineSet
EndChar

StartChar: uni1151
Encoding: 4433 4433 424
Width: 1024
VWidth: 0
Flags: HW
LayerCount: 2
Fore
SplineSet
18 -26 m 257
 1016 -26 l 257
 1016 1614 l 257
 18 1614 l 257
 18 -26 l 257
92 54 m 257
 92 1537 l 257
 485 817 l 257
 92 54 l 257
184 54 m 257
 523 740 l 257
 864 54 l 257
 184 54 l 257
212 1548 m 257
 843 1548 l 257
 525 899 l 257
 212 1548 l 257
563 822 m 257
 939 1548 l 257
 939 54 l 257
 563 822 l 257
EndSplineSet
EndChar

StartChar: uni1152
Encoding: 4434 4434 425
Width: 1024
VWidth: 0
Flags: HW
LayerCount: 2
Fore
SplineSet
18 -26 m 257
 1016 -26 l 257
 1016 1614 l 257
 18 1614 l 257
 18 -26 l 257
92 54 m 257
 92 1537 l 257
 485 817 l 257
 92 54 l 257
184 54 m 257
 523 740 l 257
 864 54 l 257
 184 54 l 257
212 1548 m 257
 843 1548 l 257
 525 899 l 257
 212 1548 l 257
563 822 m 257
 939 1548 l 257
 939 54 l 257
 563 822 l 257
EndSplineSet
EndChar

StartChar: uni1153
Encoding: 4435 4435 426
Width: 1024
VWidth: 0
Flags: HW
LayerCount: 2
Fore
SplineSet
18 -26 m 257
 1016 -26 l 257
 1016 1614 l 257
 18 1614 l 257
 18 -26 l 257
92 54 m 257
 92 1537 l 257
 485 817 l 257
 92 54 l 257
184 54 m 257
 523 740 l 257
 864 54 l 257
 184 54 l 257
212 1548 m 257
 843 1548 l 257
 525 899 l 257
 212 1548 l 257
563 822 m 257
 939 1548 l 257
 939 54 l 257
 563 822 l 257
EndSplineSet
EndChar

StartChar: uni1154
Encoding: 4436 4436 427
Width: 1024
VWidth: 0
Flags: HW
LayerCount: 2
Fore
SplineSet
18 -26 m 257
 1016 -26 l 257
 1016 1614 l 257
 18 1614 l 257
 18 -26 l 257
92 54 m 257
 92 1537 l 257
 485 817 l 257
 92 54 l 257
184 54 m 257
 523 740 l 257
 864 54 l 257
 184 54 l 257
212 1548 m 257
 843 1548 l 257
 525 899 l 257
 212 1548 l 257
563 822 m 257
 939 1548 l 257
 939 54 l 257
 563 822 l 257
EndSplineSet
EndChar

StartChar: uni1155
Encoding: 4437 4437 428
Width: 1024
VWidth: 0
Flags: HW
LayerCount: 2
Fore
SplineSet
18 -26 m 257
 1016 -26 l 257
 1016 1614 l 257
 18 1614 l 257
 18 -26 l 257
92 54 m 257
 92 1537 l 257
 485 817 l 257
 92 54 l 257
184 54 m 257
 523 740 l 257
 864 54 l 257
 184 54 l 257
212 1548 m 257
 843 1548 l 257
 525 899 l 257
 212 1548 l 257
563 822 m 257
 939 1548 l 257
 939 54 l 257
 563 822 l 257
EndSplineSet
EndChar

StartChar: uni1156
Encoding: 4438 4438 429
Width: 1024
VWidth: 0
Flags: HW
LayerCount: 2
Fore
SplineSet
18 -26 m 257
 1016 -26 l 257
 1016 1614 l 257
 18 1614 l 257
 18 -26 l 257
92 54 m 257
 92 1537 l 257
 485 817 l 257
 92 54 l 257
184 54 m 257
 523 740 l 257
 864 54 l 257
 184 54 l 257
212 1548 m 257
 843 1548 l 257
 525 899 l 257
 212 1548 l 257
563 822 m 257
 939 1548 l 257
 939 54 l 257
 563 822 l 257
EndSplineSet
EndChar

StartChar: uni1157
Encoding: 4439 4439 430
Width: 1024
VWidth: 0
Flags: HW
LayerCount: 2
Fore
SplineSet
18 -26 m 257
 1016 -26 l 257
 1016 1614 l 257
 18 1614 l 257
 18 -26 l 257
92 54 m 257
 92 1537 l 257
 485 817 l 257
 92 54 l 257
184 54 m 257
 523 740 l 257
 864 54 l 257
 184 54 l 257
212 1548 m 257
 843 1548 l 257
 525 899 l 257
 212 1548 l 257
563 822 m 257
 939 1548 l 257
 939 54 l 257
 563 822 l 257
EndSplineSet
EndChar

StartChar: uni1158
Encoding: 4440 4440 431
Width: 1024
VWidth: 0
Flags: HW
LayerCount: 2
Fore
SplineSet
18 -26 m 257
 1016 -26 l 257
 1016 1614 l 257
 18 1614 l 257
 18 -26 l 257
92 54 m 257
 92 1537 l 257
 485 817 l 257
 92 54 l 257
184 54 m 257
 523 740 l 257
 864 54 l 257
 184 54 l 257
212 1548 m 257
 843 1548 l 257
 525 899 l 257
 212 1548 l 257
563 822 m 257
 939 1548 l 257
 939 54 l 257
 563 822 l 257
EndSplineSet
EndChar

StartChar: uni1159
Encoding: 4441 4441 432
Width: 1024
VWidth: 0
Flags: HW
LayerCount: 2
Fore
SplineSet
18 -26 m 257
 1016 -26 l 257
 1016 1614 l 257
 18 1614 l 257
 18 -26 l 257
92 54 m 257
 92 1537 l 257
 485 817 l 257
 92 54 l 257
184 54 m 257
 523 740 l 257
 864 54 l 257
 184 54 l 257
212 1548 m 257
 843 1548 l 257
 525 899 l 257
 212 1548 l 257
563 822 m 257
 939 1548 l 257
 939 54 l 257
 563 822 l 257
EndSplineSet
EndChar

StartChar: uni115A
Encoding: 4442 4442 433
Width: 1024
VWidth: 0
Flags: HW
LayerCount: 2
Fore
SplineSet
18 -26 m 257
 1016 -26 l 257
 1016 1614 l 257
 18 1614 l 257
 18 -26 l 257
92 54 m 257
 92 1537 l 257
 485 817 l 257
 92 54 l 257
184 54 m 257
 523 740 l 257
 864 54 l 257
 184 54 l 257
212 1548 m 257
 843 1548 l 257
 525 899 l 257
 212 1548 l 257
563 822 m 257
 939 1548 l 257
 939 54 l 257
 563 822 l 257
EndSplineSet
EndChar

StartChar: uni115B
Encoding: 4443 4443 434
Width: 1024
VWidth: 0
Flags: HW
LayerCount: 2
Fore
SplineSet
18 -26 m 257
 1016 -26 l 257
 1016 1614 l 257
 18 1614 l 257
 18 -26 l 257
92 54 m 257
 92 1537 l 257
 485 817 l 257
 92 54 l 257
184 54 m 257
 523 740 l 257
 864 54 l 257
 184 54 l 257
212 1548 m 257
 843 1548 l 257
 525 899 l 257
 212 1548 l 257
563 822 m 257
 939 1548 l 257
 939 54 l 257
 563 822 l 257
EndSplineSet
EndChar

StartChar: uni115C
Encoding: 4444 4444 435
Width: 1024
VWidth: 0
Flags: HW
LayerCount: 2
Fore
SplineSet
18 -26 m 257
 1016 -26 l 257
 1016 1614 l 257
 18 1614 l 257
 18 -26 l 257
92 54 m 257
 92 1537 l 257
 485 817 l 257
 92 54 l 257
184 54 m 257
 523 740 l 257
 864 54 l 257
 184 54 l 257
212 1548 m 257
 843 1548 l 257
 525 899 l 257
 212 1548 l 257
563 822 m 257
 939 1548 l 257
 939 54 l 257
 563 822 l 257
EndSplineSet
EndChar

StartChar: uni115D
Encoding: 4445 4445 436
Width: 1024
VWidth: 0
Flags: HW
LayerCount: 2
Fore
SplineSet
18 -26 m 257
 1016 -26 l 257
 1016 1614 l 257
 18 1614 l 257
 18 -26 l 257
92 54 m 257
 92 1537 l 257
 485 817 l 257
 92 54 l 257
184 54 m 257
 523 740 l 257
 864 54 l 257
 184 54 l 257
212 1548 m 257
 843 1548 l 257
 525 899 l 257
 212 1548 l 257
563 822 m 257
 939 1548 l 257
 939 54 l 257
 563 822 l 257
EndSplineSet
EndChar

StartChar: uni115E
Encoding: 4446 4446 437
Width: 1024
VWidth: 0
Flags: HW
LayerCount: 2
Fore
SplineSet
18 -26 m 257
 1016 -26 l 257
 1016 1614 l 257
 18 1614 l 257
 18 -26 l 257
92 54 m 257
 92 1537 l 257
 485 817 l 257
 92 54 l 257
184 54 m 257
 523 740 l 257
 864 54 l 257
 184 54 l 257
212 1548 m 257
 843 1548 l 257
 525 899 l 257
 212 1548 l 257
563 822 m 257
 939 1548 l 257
 939 54 l 257
 563 822 l 257
EndSplineSet
EndChar

StartChar: uni115F
Encoding: 4447 4447 438
Width: 1024
VWidth: 0
Flags: HW
LayerCount: 2
Fore
SplineSet
18 -26 m 257
 1016 -26 l 257
 1016 1614 l 257
 18 1614 l 257
 18 -26 l 257
92 54 m 257
 92 1537 l 257
 485 817 l 257
 92 54 l 257
184 54 m 257
 523 740 l 257
 864 54 l 257
 184 54 l 257
212 1548 m 257
 843 1548 l 257
 525 899 l 257
 212 1548 l 257
563 822 m 257
 939 1548 l 257
 939 54 l 257
 563 822 l 257
EndSplineSet
EndChar

StartChar: uni1160
Encoding: 4448 4448 439
Width: 1024
VWidth: 0
Flags: HW
LayerCount: 2
Fore
SplineSet
18 -26 m 257
 1016 -26 l 257
 1016 1614 l 257
 18 1614 l 257
 18 -26 l 257
92 54 m 257
 92 1537 l 257
 485 817 l 257
 92 54 l 257
184 54 m 257
 523 740 l 257
 864 54 l 257
 184 54 l 257
212 1548 m 257
 843 1548 l 257
 525 899 l 257
 212 1548 l 257
563 822 m 257
 939 1548 l 257
 939 54 l 257
 563 822 l 257
EndSplineSet
EndChar

StartChar: uni1161
Encoding: 4449 4449 440
Width: 1024
VWidth: 0
Flags: HW
LayerCount: 2
Fore
SplineSet
18 -26 m 257
 1016 -26 l 257
 1016 1614 l 257
 18 1614 l 257
 18 -26 l 257
92 54 m 257
 92 1537 l 257
 485 817 l 257
 92 54 l 257
184 54 m 257
 523 740 l 257
 864 54 l 257
 184 54 l 257
212 1548 m 257
 843 1548 l 257
 525 899 l 257
 212 1548 l 257
563 822 m 257
 939 1548 l 257
 939 54 l 257
 563 822 l 257
EndSplineSet
EndChar

StartChar: uni1162
Encoding: 4450 4450 441
Width: 1024
VWidth: 0
Flags: HW
LayerCount: 2
Fore
SplineSet
18 -26 m 257
 1016 -26 l 257
 1016 1614 l 257
 18 1614 l 257
 18 -26 l 257
92 54 m 257
 92 1537 l 257
 485 817 l 257
 92 54 l 257
184 54 m 257
 523 740 l 257
 864 54 l 257
 184 54 l 257
212 1548 m 257
 843 1548 l 257
 525 899 l 257
 212 1548 l 257
563 822 m 257
 939 1548 l 257
 939 54 l 257
 563 822 l 257
EndSplineSet
EndChar

StartChar: uni1163
Encoding: 4451 4451 442
Width: 1024
VWidth: 0
Flags: HW
LayerCount: 2
Fore
SplineSet
18 -26 m 257
 1016 -26 l 257
 1016 1614 l 257
 18 1614 l 257
 18 -26 l 257
92 54 m 257
 92 1537 l 257
 485 817 l 257
 92 54 l 257
184 54 m 257
 523 740 l 257
 864 54 l 257
 184 54 l 257
212 1548 m 257
 843 1548 l 257
 525 899 l 257
 212 1548 l 257
563 822 m 257
 939 1548 l 257
 939 54 l 257
 563 822 l 257
EndSplineSet
EndChar

StartChar: uni1164
Encoding: 4452 4452 443
Width: 1024
VWidth: 0
Flags: HW
LayerCount: 2
Fore
SplineSet
18 -26 m 257
 1016 -26 l 257
 1016 1614 l 257
 18 1614 l 257
 18 -26 l 257
92 54 m 257
 92 1537 l 257
 485 817 l 257
 92 54 l 257
184 54 m 257
 523 740 l 257
 864 54 l 257
 184 54 l 257
212 1548 m 257
 843 1548 l 257
 525 899 l 257
 212 1548 l 257
563 822 m 257
 939 1548 l 257
 939 54 l 257
 563 822 l 257
EndSplineSet
EndChar

StartChar: uni1165
Encoding: 4453 4453 444
Width: 1024
VWidth: 0
Flags: HW
LayerCount: 2
Fore
SplineSet
18 -26 m 257
 1016 -26 l 257
 1016 1614 l 257
 18 1614 l 257
 18 -26 l 257
92 54 m 257
 92 1537 l 257
 485 817 l 257
 92 54 l 257
184 54 m 257
 523 740 l 257
 864 54 l 257
 184 54 l 257
212 1548 m 257
 843 1548 l 257
 525 899 l 257
 212 1548 l 257
563 822 m 257
 939 1548 l 257
 939 54 l 257
 563 822 l 257
EndSplineSet
EndChar

StartChar: uni1166
Encoding: 4454 4454 445
Width: 1024
VWidth: 0
Flags: HW
LayerCount: 2
Fore
SplineSet
18 -26 m 257
 1016 -26 l 257
 1016 1614 l 257
 18 1614 l 257
 18 -26 l 257
92 54 m 257
 92 1537 l 257
 485 817 l 257
 92 54 l 257
184 54 m 257
 523 740 l 257
 864 54 l 257
 184 54 l 257
212 1548 m 257
 843 1548 l 257
 525 899 l 257
 212 1548 l 257
563 822 m 257
 939 1548 l 257
 939 54 l 257
 563 822 l 257
EndSplineSet
EndChar

StartChar: uni1167
Encoding: 4455 4455 446
Width: 1024
VWidth: 0
Flags: HW
LayerCount: 2
Fore
SplineSet
18 -26 m 257
 1016 -26 l 257
 1016 1614 l 257
 18 1614 l 257
 18 -26 l 257
92 54 m 257
 92 1537 l 257
 485 817 l 257
 92 54 l 257
184 54 m 257
 523 740 l 257
 864 54 l 257
 184 54 l 257
212 1548 m 257
 843 1548 l 257
 525 899 l 257
 212 1548 l 257
563 822 m 257
 939 1548 l 257
 939 54 l 257
 563 822 l 257
EndSplineSet
EndChar

StartChar: uni1168
Encoding: 4456 4456 447
Width: 1024
VWidth: 0
Flags: HW
LayerCount: 2
Fore
SplineSet
18 -26 m 257
 1016 -26 l 257
 1016 1614 l 257
 18 1614 l 257
 18 -26 l 257
92 54 m 257
 92 1537 l 257
 485 817 l 257
 92 54 l 257
184 54 m 257
 523 740 l 257
 864 54 l 257
 184 54 l 257
212 1548 m 257
 843 1548 l 257
 525 899 l 257
 212 1548 l 257
563 822 m 257
 939 1548 l 257
 939 54 l 257
 563 822 l 257
EndSplineSet
EndChar

StartChar: uni1169
Encoding: 4457 4457 448
Width: 1024
VWidth: 0
Flags: HW
LayerCount: 2
Fore
SplineSet
18 -26 m 257
 1016 -26 l 257
 1016 1614 l 257
 18 1614 l 257
 18 -26 l 257
92 54 m 257
 92 1537 l 257
 485 817 l 257
 92 54 l 257
184 54 m 257
 523 740 l 257
 864 54 l 257
 184 54 l 257
212 1548 m 257
 843 1548 l 257
 525 899 l 257
 212 1548 l 257
563 822 m 257
 939 1548 l 257
 939 54 l 257
 563 822 l 257
EndSplineSet
EndChar

StartChar: uni116A
Encoding: 4458 4458 449
Width: 1024
VWidth: 0
Flags: HW
LayerCount: 2
Fore
SplineSet
18 -26 m 257
 1016 -26 l 257
 1016 1614 l 257
 18 1614 l 257
 18 -26 l 257
92 54 m 257
 92 1537 l 257
 485 817 l 257
 92 54 l 257
184 54 m 257
 523 740 l 257
 864 54 l 257
 184 54 l 257
212 1548 m 257
 843 1548 l 257
 525 899 l 257
 212 1548 l 257
563 822 m 257
 939 1548 l 257
 939 54 l 257
 563 822 l 257
EndSplineSet
EndChar

StartChar: uni116B
Encoding: 4459 4459 450
Width: 1024
VWidth: 0
Flags: HW
LayerCount: 2
Fore
SplineSet
18 -26 m 257
 1016 -26 l 257
 1016 1614 l 257
 18 1614 l 257
 18 -26 l 257
92 54 m 257
 92 1537 l 257
 485 817 l 257
 92 54 l 257
184 54 m 257
 523 740 l 257
 864 54 l 257
 184 54 l 257
212 1548 m 257
 843 1548 l 257
 525 899 l 257
 212 1548 l 257
563 822 m 257
 939 1548 l 257
 939 54 l 257
 563 822 l 257
EndSplineSet
EndChar

StartChar: uni116C
Encoding: 4460 4460 451
Width: 1024
VWidth: 0
Flags: HW
LayerCount: 2
Fore
SplineSet
18 -26 m 257
 1016 -26 l 257
 1016 1614 l 257
 18 1614 l 257
 18 -26 l 257
92 54 m 257
 92 1537 l 257
 485 817 l 257
 92 54 l 257
184 54 m 257
 523 740 l 257
 864 54 l 257
 184 54 l 257
212 1548 m 257
 843 1548 l 257
 525 899 l 257
 212 1548 l 257
563 822 m 257
 939 1548 l 257
 939 54 l 257
 563 822 l 257
EndSplineSet
EndChar

StartChar: uni116D
Encoding: 4461 4461 452
Width: 1024
VWidth: 0
Flags: HW
LayerCount: 2
Fore
SplineSet
18 -26 m 257
 1016 -26 l 257
 1016 1614 l 257
 18 1614 l 257
 18 -26 l 257
92 54 m 257
 92 1537 l 257
 485 817 l 257
 92 54 l 257
184 54 m 257
 523 740 l 257
 864 54 l 257
 184 54 l 257
212 1548 m 257
 843 1548 l 257
 525 899 l 257
 212 1548 l 257
563 822 m 257
 939 1548 l 257
 939 54 l 257
 563 822 l 257
EndSplineSet
EndChar

StartChar: uni116E
Encoding: 4462 4462 453
Width: 1024
VWidth: 0
Flags: HW
LayerCount: 2
Fore
SplineSet
18 -26 m 257
 1016 -26 l 257
 1016 1614 l 257
 18 1614 l 257
 18 -26 l 257
92 54 m 257
 92 1537 l 257
 485 817 l 257
 92 54 l 257
184 54 m 257
 523 740 l 257
 864 54 l 257
 184 54 l 257
212 1548 m 257
 843 1548 l 257
 525 899 l 257
 212 1548 l 257
563 822 m 257
 939 1548 l 257
 939 54 l 257
 563 822 l 257
EndSplineSet
EndChar

StartChar: uni116F
Encoding: 4463 4463 454
Width: 1024
VWidth: 0
Flags: HW
LayerCount: 2
Fore
SplineSet
18 -26 m 257
 1016 -26 l 257
 1016 1614 l 257
 18 1614 l 257
 18 -26 l 257
92 54 m 257
 92 1537 l 257
 485 817 l 257
 92 54 l 257
184 54 m 257
 523 740 l 257
 864 54 l 257
 184 54 l 257
212 1548 m 257
 843 1548 l 257
 525 899 l 257
 212 1548 l 257
563 822 m 257
 939 1548 l 257
 939 54 l 257
 563 822 l 257
EndSplineSet
EndChar

StartChar: uni1170
Encoding: 4464 4464 455
Width: 1024
VWidth: 0
Flags: HW
LayerCount: 2
Fore
SplineSet
18 -26 m 257
 1016 -26 l 257
 1016 1614 l 257
 18 1614 l 257
 18 -26 l 257
92 54 m 257
 92 1537 l 257
 485 817 l 257
 92 54 l 257
184 54 m 257
 523 740 l 257
 864 54 l 257
 184 54 l 257
212 1548 m 257
 843 1548 l 257
 525 899 l 257
 212 1548 l 257
563 822 m 257
 939 1548 l 257
 939 54 l 257
 563 822 l 257
EndSplineSet
EndChar

StartChar: uni1171
Encoding: 4465 4465 456
Width: 1024
VWidth: 0
Flags: HW
LayerCount: 2
Fore
SplineSet
18 -26 m 257
 1016 -26 l 257
 1016 1614 l 257
 18 1614 l 257
 18 -26 l 257
92 54 m 257
 92 1537 l 257
 485 817 l 257
 92 54 l 257
184 54 m 257
 523 740 l 257
 864 54 l 257
 184 54 l 257
212 1548 m 257
 843 1548 l 257
 525 899 l 257
 212 1548 l 257
563 822 m 257
 939 1548 l 257
 939 54 l 257
 563 822 l 257
EndSplineSet
EndChar

StartChar: uni1172
Encoding: 4466 4466 457
Width: 1024
VWidth: 0
Flags: HW
LayerCount: 2
Fore
SplineSet
18 -26 m 257
 1016 -26 l 257
 1016 1614 l 257
 18 1614 l 257
 18 -26 l 257
92 54 m 257
 92 1537 l 257
 485 817 l 257
 92 54 l 257
184 54 m 257
 523 740 l 257
 864 54 l 257
 184 54 l 257
212 1548 m 257
 843 1548 l 257
 525 899 l 257
 212 1548 l 257
563 822 m 257
 939 1548 l 257
 939 54 l 257
 563 822 l 257
EndSplineSet
EndChar

StartChar: uni1173
Encoding: 4467 4467 458
Width: 1024
VWidth: 0
Flags: HW
LayerCount: 2
Fore
SplineSet
18 -26 m 257
 1016 -26 l 257
 1016 1614 l 257
 18 1614 l 257
 18 -26 l 257
92 54 m 257
 92 1537 l 257
 485 817 l 257
 92 54 l 257
184 54 m 257
 523 740 l 257
 864 54 l 257
 184 54 l 257
212 1548 m 257
 843 1548 l 257
 525 899 l 257
 212 1548 l 257
563 822 m 257
 939 1548 l 257
 939 54 l 257
 563 822 l 257
EndSplineSet
EndChar

StartChar: uni1174
Encoding: 4468 4468 459
Width: 1024
VWidth: 0
Flags: HW
LayerCount: 2
Fore
SplineSet
18 -26 m 257
 1016 -26 l 257
 1016 1614 l 257
 18 1614 l 257
 18 -26 l 257
92 54 m 257
 92 1537 l 257
 485 817 l 257
 92 54 l 257
184 54 m 257
 523 740 l 257
 864 54 l 257
 184 54 l 257
212 1548 m 257
 843 1548 l 257
 525 899 l 257
 212 1548 l 257
563 822 m 257
 939 1548 l 257
 939 54 l 257
 563 822 l 257
EndSplineSet
EndChar

StartChar: uni1175
Encoding: 4469 4469 460
Width: 1024
VWidth: 0
Flags: HW
LayerCount: 2
Fore
SplineSet
18 -26 m 257
 1016 -26 l 257
 1016 1614 l 257
 18 1614 l 257
 18 -26 l 257
92 54 m 257
 92 1537 l 257
 485 817 l 257
 92 54 l 257
184 54 m 257
 523 740 l 257
 864 54 l 257
 184 54 l 257
212 1548 m 257
 843 1548 l 257
 525 899 l 257
 212 1548 l 257
563 822 m 257
 939 1548 l 257
 939 54 l 257
 563 822 l 257
EndSplineSet
EndChar

StartChar: uni1176
Encoding: 4470 4470 461
Width: 1024
VWidth: 0
Flags: HW
LayerCount: 2
Fore
SplineSet
18 -26 m 257
 1016 -26 l 257
 1016 1614 l 257
 18 1614 l 257
 18 -26 l 257
92 54 m 257
 92 1537 l 257
 485 817 l 257
 92 54 l 257
184 54 m 257
 523 740 l 257
 864 54 l 257
 184 54 l 257
212 1548 m 257
 843 1548 l 257
 525 899 l 257
 212 1548 l 257
563 822 m 257
 939 1548 l 257
 939 54 l 257
 563 822 l 257
EndSplineSet
EndChar

StartChar: uni1177
Encoding: 4471 4471 462
Width: 1024
VWidth: 0
Flags: HW
LayerCount: 2
Fore
SplineSet
18 -26 m 257
 1016 -26 l 257
 1016 1614 l 257
 18 1614 l 257
 18 -26 l 257
92 54 m 257
 92 1537 l 257
 485 817 l 257
 92 54 l 257
184 54 m 257
 523 740 l 257
 864 54 l 257
 184 54 l 257
212 1548 m 257
 843 1548 l 257
 525 899 l 257
 212 1548 l 257
563 822 m 257
 939 1548 l 257
 939 54 l 257
 563 822 l 257
EndSplineSet
EndChar

StartChar: uni1178
Encoding: 4472 4472 463
Width: 1024
VWidth: 0
Flags: HW
LayerCount: 2
Fore
SplineSet
18 -26 m 257
 1016 -26 l 257
 1016 1614 l 257
 18 1614 l 257
 18 -26 l 257
92 54 m 257
 92 1537 l 257
 485 817 l 257
 92 54 l 257
184 54 m 257
 523 740 l 257
 864 54 l 257
 184 54 l 257
212 1548 m 257
 843 1548 l 257
 525 899 l 257
 212 1548 l 257
563 822 m 257
 939 1548 l 257
 939 54 l 257
 563 822 l 257
EndSplineSet
EndChar

StartChar: uni1179
Encoding: 4473 4473 464
Width: 1024
VWidth: 0
Flags: HW
LayerCount: 2
Fore
SplineSet
18 -26 m 257
 1016 -26 l 257
 1016 1614 l 257
 18 1614 l 257
 18 -26 l 257
92 54 m 257
 92 1537 l 257
 485 817 l 257
 92 54 l 257
184 54 m 257
 523 740 l 257
 864 54 l 257
 184 54 l 257
212 1548 m 257
 843 1548 l 257
 525 899 l 257
 212 1548 l 257
563 822 m 257
 939 1548 l 257
 939 54 l 257
 563 822 l 257
EndSplineSet
EndChar

StartChar: uni117A
Encoding: 4474 4474 465
Width: 1024
VWidth: 0
Flags: HW
LayerCount: 2
Fore
SplineSet
18 -26 m 257
 1016 -26 l 257
 1016 1614 l 257
 18 1614 l 257
 18 -26 l 257
92 54 m 257
 92 1537 l 257
 485 817 l 257
 92 54 l 257
184 54 m 257
 523 740 l 257
 864 54 l 257
 184 54 l 257
212 1548 m 257
 843 1548 l 257
 525 899 l 257
 212 1548 l 257
563 822 m 257
 939 1548 l 257
 939 54 l 257
 563 822 l 257
EndSplineSet
EndChar

StartChar: uni117B
Encoding: 4475 4475 466
Width: 1024
VWidth: 0
Flags: HW
LayerCount: 2
Fore
SplineSet
18 -26 m 257
 1016 -26 l 257
 1016 1614 l 257
 18 1614 l 257
 18 -26 l 257
92 54 m 257
 92 1537 l 257
 485 817 l 257
 92 54 l 257
184 54 m 257
 523 740 l 257
 864 54 l 257
 184 54 l 257
212 1548 m 257
 843 1548 l 257
 525 899 l 257
 212 1548 l 257
563 822 m 257
 939 1548 l 257
 939 54 l 257
 563 822 l 257
EndSplineSet
EndChar

StartChar: uni117C
Encoding: 4476 4476 467
Width: 1024
VWidth: 0
Flags: HW
LayerCount: 2
Fore
SplineSet
18 -26 m 257
 1016 -26 l 257
 1016 1614 l 257
 18 1614 l 257
 18 -26 l 257
92 54 m 257
 92 1537 l 257
 485 817 l 257
 92 54 l 257
184 54 m 257
 523 740 l 257
 864 54 l 257
 184 54 l 257
212 1548 m 257
 843 1548 l 257
 525 899 l 257
 212 1548 l 257
563 822 m 257
 939 1548 l 257
 939 54 l 257
 563 822 l 257
EndSplineSet
EndChar

StartChar: uni117D
Encoding: 4477 4477 468
Width: 1024
VWidth: 0
Flags: HW
LayerCount: 2
Fore
SplineSet
18 -26 m 257
 1016 -26 l 257
 1016 1614 l 257
 18 1614 l 257
 18 -26 l 257
92 54 m 257
 92 1537 l 257
 485 817 l 257
 92 54 l 257
184 54 m 257
 523 740 l 257
 864 54 l 257
 184 54 l 257
212 1548 m 257
 843 1548 l 257
 525 899 l 257
 212 1548 l 257
563 822 m 257
 939 1548 l 257
 939 54 l 257
 563 822 l 257
EndSplineSet
EndChar

StartChar: uni117E
Encoding: 4478 4478 469
Width: 1024
VWidth: 0
Flags: HW
LayerCount: 2
Fore
SplineSet
18 -26 m 257
 1016 -26 l 257
 1016 1614 l 257
 18 1614 l 257
 18 -26 l 257
92 54 m 257
 92 1537 l 257
 485 817 l 257
 92 54 l 257
184 54 m 257
 523 740 l 257
 864 54 l 257
 184 54 l 257
212 1548 m 257
 843 1548 l 257
 525 899 l 257
 212 1548 l 257
563 822 m 257
 939 1548 l 257
 939 54 l 257
 563 822 l 257
EndSplineSet
EndChar

StartChar: uni117F
Encoding: 4479 4479 470
Width: 1024
VWidth: 0
Flags: HW
LayerCount: 2
Fore
SplineSet
18 -26 m 257
 1016 -26 l 257
 1016 1614 l 257
 18 1614 l 257
 18 -26 l 257
92 54 m 257
 92 1537 l 257
 485 817 l 257
 92 54 l 257
184 54 m 257
 523 740 l 257
 864 54 l 257
 184 54 l 257
212 1548 m 257
 843 1548 l 257
 525 899 l 257
 212 1548 l 257
563 822 m 257
 939 1548 l 257
 939 54 l 257
 563 822 l 257
EndSplineSet
EndChar

StartChar: uni1180
Encoding: 4480 4480 471
Width: 1024
VWidth: 0
Flags: HW
LayerCount: 2
Fore
SplineSet
18 -26 m 257
 1016 -26 l 257
 1016 1614 l 257
 18 1614 l 257
 18 -26 l 257
92 54 m 257
 92 1537 l 257
 485 817 l 257
 92 54 l 257
184 54 m 257
 523 740 l 257
 864 54 l 257
 184 54 l 257
212 1548 m 257
 843 1548 l 257
 525 899 l 257
 212 1548 l 257
563 822 m 257
 939 1548 l 257
 939 54 l 257
 563 822 l 257
EndSplineSet
EndChar

StartChar: uni1181
Encoding: 4481 4481 472
Width: 1024
VWidth: 0
Flags: HW
LayerCount: 2
Fore
SplineSet
18 -26 m 257
 1016 -26 l 257
 1016 1614 l 257
 18 1614 l 257
 18 -26 l 257
92 54 m 257
 92 1537 l 257
 485 817 l 257
 92 54 l 257
184 54 m 257
 523 740 l 257
 864 54 l 257
 184 54 l 257
212 1548 m 257
 843 1548 l 257
 525 899 l 257
 212 1548 l 257
563 822 m 257
 939 1548 l 257
 939 54 l 257
 563 822 l 257
EndSplineSet
EndChar

StartChar: uni1182
Encoding: 4482 4482 473
Width: 1024
VWidth: 0
Flags: HW
LayerCount: 2
Fore
SplineSet
18 -26 m 257
 1016 -26 l 257
 1016 1614 l 257
 18 1614 l 257
 18 -26 l 257
92 54 m 257
 92 1537 l 257
 485 817 l 257
 92 54 l 257
184 54 m 257
 523 740 l 257
 864 54 l 257
 184 54 l 257
212 1548 m 257
 843 1548 l 257
 525 899 l 257
 212 1548 l 257
563 822 m 257
 939 1548 l 257
 939 54 l 257
 563 822 l 257
EndSplineSet
EndChar

StartChar: uni1183
Encoding: 4483 4483 474
Width: 1024
VWidth: 0
Flags: HW
LayerCount: 2
Fore
SplineSet
18 -26 m 257
 1016 -26 l 257
 1016 1614 l 257
 18 1614 l 257
 18 -26 l 257
92 54 m 257
 92 1537 l 257
 485 817 l 257
 92 54 l 257
184 54 m 257
 523 740 l 257
 864 54 l 257
 184 54 l 257
212 1548 m 257
 843 1548 l 257
 525 899 l 257
 212 1548 l 257
563 822 m 257
 939 1548 l 257
 939 54 l 257
 563 822 l 257
EndSplineSet
EndChar

StartChar: uni1184
Encoding: 4484 4484 475
Width: 1024
VWidth: 0
Flags: HW
LayerCount: 2
Fore
SplineSet
18 -26 m 257
 1016 -26 l 257
 1016 1614 l 257
 18 1614 l 257
 18 -26 l 257
92 54 m 257
 92 1537 l 257
 485 817 l 257
 92 54 l 257
184 54 m 257
 523 740 l 257
 864 54 l 257
 184 54 l 257
212 1548 m 257
 843 1548 l 257
 525 899 l 257
 212 1548 l 257
563 822 m 257
 939 1548 l 257
 939 54 l 257
 563 822 l 257
EndSplineSet
EndChar

StartChar: uni1185
Encoding: 4485 4485 476
Width: 1024
VWidth: 0
Flags: HW
LayerCount: 2
Fore
SplineSet
18 -26 m 257
 1016 -26 l 257
 1016 1614 l 257
 18 1614 l 257
 18 -26 l 257
92 54 m 257
 92 1537 l 257
 485 817 l 257
 92 54 l 257
184 54 m 257
 523 740 l 257
 864 54 l 257
 184 54 l 257
212 1548 m 257
 843 1548 l 257
 525 899 l 257
 212 1548 l 257
563 822 m 257
 939 1548 l 257
 939 54 l 257
 563 822 l 257
EndSplineSet
EndChar

StartChar: uni1186
Encoding: 4486 4486 477
Width: 1024
VWidth: 0
Flags: HW
LayerCount: 2
Fore
SplineSet
18 -26 m 257
 1016 -26 l 257
 1016 1614 l 257
 18 1614 l 257
 18 -26 l 257
92 54 m 257
 92 1537 l 257
 485 817 l 257
 92 54 l 257
184 54 m 257
 523 740 l 257
 864 54 l 257
 184 54 l 257
212 1548 m 257
 843 1548 l 257
 525 899 l 257
 212 1548 l 257
563 822 m 257
 939 1548 l 257
 939 54 l 257
 563 822 l 257
EndSplineSet
EndChar

StartChar: uni1187
Encoding: 4487 4487 478
Width: 1024
VWidth: 0
Flags: HW
LayerCount: 2
Fore
SplineSet
18 -26 m 257
 1016 -26 l 257
 1016 1614 l 257
 18 1614 l 257
 18 -26 l 257
92 54 m 257
 92 1537 l 257
 485 817 l 257
 92 54 l 257
184 54 m 257
 523 740 l 257
 864 54 l 257
 184 54 l 257
212 1548 m 257
 843 1548 l 257
 525 899 l 257
 212 1548 l 257
563 822 m 257
 939 1548 l 257
 939 54 l 257
 563 822 l 257
EndSplineSet
EndChar

StartChar: uni1188
Encoding: 4488 4488 479
Width: 1024
VWidth: 0
Flags: HW
LayerCount: 2
Fore
SplineSet
18 -26 m 257
 1016 -26 l 257
 1016 1614 l 257
 18 1614 l 257
 18 -26 l 257
92 54 m 257
 92 1537 l 257
 485 817 l 257
 92 54 l 257
184 54 m 257
 523 740 l 257
 864 54 l 257
 184 54 l 257
212 1548 m 257
 843 1548 l 257
 525 899 l 257
 212 1548 l 257
563 822 m 257
 939 1548 l 257
 939 54 l 257
 563 822 l 257
EndSplineSet
EndChar

StartChar: uni1189
Encoding: 4489 4489 480
Width: 1024
VWidth: 0
Flags: HW
LayerCount: 2
Fore
SplineSet
18 -26 m 257
 1016 -26 l 257
 1016 1614 l 257
 18 1614 l 257
 18 -26 l 257
92 54 m 257
 92 1537 l 257
 485 817 l 257
 92 54 l 257
184 54 m 257
 523 740 l 257
 864 54 l 257
 184 54 l 257
212 1548 m 257
 843 1548 l 257
 525 899 l 257
 212 1548 l 257
563 822 m 257
 939 1548 l 257
 939 54 l 257
 563 822 l 257
EndSplineSet
EndChar

StartChar: uni118A
Encoding: 4490 4490 481
Width: 1024
VWidth: 0
Flags: HW
LayerCount: 2
Fore
SplineSet
18 -26 m 257
 1016 -26 l 257
 1016 1614 l 257
 18 1614 l 257
 18 -26 l 257
92 54 m 257
 92 1537 l 257
 485 817 l 257
 92 54 l 257
184 54 m 257
 523 740 l 257
 864 54 l 257
 184 54 l 257
212 1548 m 257
 843 1548 l 257
 525 899 l 257
 212 1548 l 257
563 822 m 257
 939 1548 l 257
 939 54 l 257
 563 822 l 257
EndSplineSet
EndChar

StartChar: uni118B
Encoding: 4491 4491 482
Width: 1024
VWidth: 0
Flags: HW
LayerCount: 2
Fore
SplineSet
18 -26 m 257
 1016 -26 l 257
 1016 1614 l 257
 18 1614 l 257
 18 -26 l 257
92 54 m 257
 92 1537 l 257
 485 817 l 257
 92 54 l 257
184 54 m 257
 523 740 l 257
 864 54 l 257
 184 54 l 257
212 1548 m 257
 843 1548 l 257
 525 899 l 257
 212 1548 l 257
563 822 m 257
 939 1548 l 257
 939 54 l 257
 563 822 l 257
EndSplineSet
EndChar

StartChar: uni118C
Encoding: 4492 4492 483
Width: 1024
VWidth: 0
Flags: HW
LayerCount: 2
Fore
SplineSet
18 -26 m 257
 1016 -26 l 257
 1016 1614 l 257
 18 1614 l 257
 18 -26 l 257
92 54 m 257
 92 1537 l 257
 485 817 l 257
 92 54 l 257
184 54 m 257
 523 740 l 257
 864 54 l 257
 184 54 l 257
212 1548 m 257
 843 1548 l 257
 525 899 l 257
 212 1548 l 257
563 822 m 257
 939 1548 l 257
 939 54 l 257
 563 822 l 257
EndSplineSet
EndChar

StartChar: uni118D
Encoding: 4493 4493 484
Width: 1024
VWidth: 0
Flags: HW
LayerCount: 2
Fore
SplineSet
18 -26 m 257
 1016 -26 l 257
 1016 1614 l 257
 18 1614 l 257
 18 -26 l 257
92 54 m 257
 92 1537 l 257
 485 817 l 257
 92 54 l 257
184 54 m 257
 523 740 l 257
 864 54 l 257
 184 54 l 257
212 1548 m 257
 843 1548 l 257
 525 899 l 257
 212 1548 l 257
563 822 m 257
 939 1548 l 257
 939 54 l 257
 563 822 l 257
EndSplineSet
EndChar

StartChar: uni118E
Encoding: 4494 4494 485
Width: 1024
VWidth: 0
Flags: HW
LayerCount: 2
Fore
SplineSet
18 -26 m 257
 1016 -26 l 257
 1016 1614 l 257
 18 1614 l 257
 18 -26 l 257
92 54 m 257
 92 1537 l 257
 485 817 l 257
 92 54 l 257
184 54 m 257
 523 740 l 257
 864 54 l 257
 184 54 l 257
212 1548 m 257
 843 1548 l 257
 525 899 l 257
 212 1548 l 257
563 822 m 257
 939 1548 l 257
 939 54 l 257
 563 822 l 257
EndSplineSet
EndChar

StartChar: uni118F
Encoding: 4495 4495 486
Width: 1024
VWidth: 0
Flags: HW
LayerCount: 2
Fore
SplineSet
18 -26 m 257
 1016 -26 l 257
 1016 1614 l 257
 18 1614 l 257
 18 -26 l 257
92 54 m 257
 92 1537 l 257
 485 817 l 257
 92 54 l 257
184 54 m 257
 523 740 l 257
 864 54 l 257
 184 54 l 257
212 1548 m 257
 843 1548 l 257
 525 899 l 257
 212 1548 l 257
563 822 m 257
 939 1548 l 257
 939 54 l 257
 563 822 l 257
EndSplineSet
EndChar

StartChar: uni1190
Encoding: 4496 4496 487
Width: 1024
VWidth: 0
Flags: HW
LayerCount: 2
Fore
SplineSet
18 -26 m 257
 1016 -26 l 257
 1016 1614 l 257
 18 1614 l 257
 18 -26 l 257
92 54 m 257
 92 1537 l 257
 485 817 l 257
 92 54 l 257
184 54 m 257
 523 740 l 257
 864 54 l 257
 184 54 l 257
212 1548 m 257
 843 1548 l 257
 525 899 l 257
 212 1548 l 257
563 822 m 257
 939 1548 l 257
 939 54 l 257
 563 822 l 257
EndSplineSet
EndChar

StartChar: uni1191
Encoding: 4497 4497 488
Width: 1024
VWidth: 0
Flags: HW
LayerCount: 2
Fore
SplineSet
18 -26 m 257
 1016 -26 l 257
 1016 1614 l 257
 18 1614 l 257
 18 -26 l 257
92 54 m 257
 92 1537 l 257
 485 817 l 257
 92 54 l 257
184 54 m 257
 523 740 l 257
 864 54 l 257
 184 54 l 257
212 1548 m 257
 843 1548 l 257
 525 899 l 257
 212 1548 l 257
563 822 m 257
 939 1548 l 257
 939 54 l 257
 563 822 l 257
EndSplineSet
EndChar

StartChar: uni1192
Encoding: 4498 4498 489
Width: 1024
VWidth: 0
Flags: HW
LayerCount: 2
Fore
SplineSet
18 -26 m 257
 1016 -26 l 257
 1016 1614 l 257
 18 1614 l 257
 18 -26 l 257
92 54 m 257
 92 1537 l 257
 485 817 l 257
 92 54 l 257
184 54 m 257
 523 740 l 257
 864 54 l 257
 184 54 l 257
212 1548 m 257
 843 1548 l 257
 525 899 l 257
 212 1548 l 257
563 822 m 257
 939 1548 l 257
 939 54 l 257
 563 822 l 257
EndSplineSet
EndChar

StartChar: uni1193
Encoding: 4499 4499 490
Width: 1024
VWidth: 0
Flags: HW
LayerCount: 2
Fore
SplineSet
18 -26 m 257
 1016 -26 l 257
 1016 1614 l 257
 18 1614 l 257
 18 -26 l 257
92 54 m 257
 92 1537 l 257
 485 817 l 257
 92 54 l 257
184 54 m 257
 523 740 l 257
 864 54 l 257
 184 54 l 257
212 1548 m 257
 843 1548 l 257
 525 899 l 257
 212 1548 l 257
563 822 m 257
 939 1548 l 257
 939 54 l 257
 563 822 l 257
EndSplineSet
EndChar

StartChar: uni1194
Encoding: 4500 4500 491
Width: 1024
VWidth: 0
Flags: HW
LayerCount: 2
Fore
SplineSet
18 -26 m 257
 1016 -26 l 257
 1016 1614 l 257
 18 1614 l 257
 18 -26 l 257
92 54 m 257
 92 1537 l 257
 485 817 l 257
 92 54 l 257
184 54 m 257
 523 740 l 257
 864 54 l 257
 184 54 l 257
212 1548 m 257
 843 1548 l 257
 525 899 l 257
 212 1548 l 257
563 822 m 257
 939 1548 l 257
 939 54 l 257
 563 822 l 257
EndSplineSet
EndChar

StartChar: uni1195
Encoding: 4501 4501 492
Width: 1024
VWidth: 0
Flags: HW
LayerCount: 2
Fore
SplineSet
18 -26 m 257
 1016 -26 l 257
 1016 1614 l 257
 18 1614 l 257
 18 -26 l 257
92 54 m 257
 92 1537 l 257
 485 817 l 257
 92 54 l 257
184 54 m 257
 523 740 l 257
 864 54 l 257
 184 54 l 257
212 1548 m 257
 843 1548 l 257
 525 899 l 257
 212 1548 l 257
563 822 m 257
 939 1548 l 257
 939 54 l 257
 563 822 l 257
EndSplineSet
EndChar

StartChar: uni1196
Encoding: 4502 4502 493
Width: 1024
VWidth: 0
Flags: HW
LayerCount: 2
Fore
SplineSet
18 -26 m 257
 1016 -26 l 257
 1016 1614 l 257
 18 1614 l 257
 18 -26 l 257
92 54 m 257
 92 1537 l 257
 485 817 l 257
 92 54 l 257
184 54 m 257
 523 740 l 257
 864 54 l 257
 184 54 l 257
212 1548 m 257
 843 1548 l 257
 525 899 l 257
 212 1548 l 257
563 822 m 257
 939 1548 l 257
 939 54 l 257
 563 822 l 257
EndSplineSet
EndChar

StartChar: uni1197
Encoding: 4503 4503 494
Width: 1024
VWidth: 0
Flags: HW
LayerCount: 2
Fore
SplineSet
18 -26 m 257
 1016 -26 l 257
 1016 1614 l 257
 18 1614 l 257
 18 -26 l 257
92 54 m 257
 92 1537 l 257
 485 817 l 257
 92 54 l 257
184 54 m 257
 523 740 l 257
 864 54 l 257
 184 54 l 257
212 1548 m 257
 843 1548 l 257
 525 899 l 257
 212 1548 l 257
563 822 m 257
 939 1548 l 257
 939 54 l 257
 563 822 l 257
EndSplineSet
EndChar

StartChar: uni1198
Encoding: 4504 4504 495
Width: 1024
VWidth: 0
Flags: HW
LayerCount: 2
Fore
SplineSet
18 -26 m 257
 1016 -26 l 257
 1016 1614 l 257
 18 1614 l 257
 18 -26 l 257
92 54 m 257
 92 1537 l 257
 485 817 l 257
 92 54 l 257
184 54 m 257
 523 740 l 257
 864 54 l 257
 184 54 l 257
212 1548 m 257
 843 1548 l 257
 525 899 l 257
 212 1548 l 257
563 822 m 257
 939 1548 l 257
 939 54 l 257
 563 822 l 257
EndSplineSet
EndChar

StartChar: uni1199
Encoding: 4505 4505 496
Width: 1024
VWidth: 0
Flags: HW
LayerCount: 2
Fore
SplineSet
18 -26 m 257
 1016 -26 l 257
 1016 1614 l 257
 18 1614 l 257
 18 -26 l 257
92 54 m 257
 92 1537 l 257
 485 817 l 257
 92 54 l 257
184 54 m 257
 523 740 l 257
 864 54 l 257
 184 54 l 257
212 1548 m 257
 843 1548 l 257
 525 899 l 257
 212 1548 l 257
563 822 m 257
 939 1548 l 257
 939 54 l 257
 563 822 l 257
EndSplineSet
EndChar

StartChar: uni119A
Encoding: 4506 4506 497
Width: 1024
VWidth: 0
Flags: HW
LayerCount: 2
Fore
SplineSet
18 -26 m 257
 1016 -26 l 257
 1016 1614 l 257
 18 1614 l 257
 18 -26 l 257
92 54 m 257
 92 1537 l 257
 485 817 l 257
 92 54 l 257
184 54 m 257
 523 740 l 257
 864 54 l 257
 184 54 l 257
212 1548 m 257
 843 1548 l 257
 525 899 l 257
 212 1548 l 257
563 822 m 257
 939 1548 l 257
 939 54 l 257
 563 822 l 257
EndSplineSet
EndChar

StartChar: uni119B
Encoding: 4507 4507 498
Width: 1024
VWidth: 0
Flags: HW
LayerCount: 2
Fore
SplineSet
18 -26 m 257
 1016 -26 l 257
 1016 1614 l 257
 18 1614 l 257
 18 -26 l 257
92 54 m 257
 92 1537 l 257
 485 817 l 257
 92 54 l 257
184 54 m 257
 523 740 l 257
 864 54 l 257
 184 54 l 257
212 1548 m 257
 843 1548 l 257
 525 899 l 257
 212 1548 l 257
563 822 m 257
 939 1548 l 257
 939 54 l 257
 563 822 l 257
EndSplineSet
EndChar

StartChar: uni119C
Encoding: 4508 4508 499
Width: 1024
VWidth: 0
Flags: HW
LayerCount: 2
Fore
SplineSet
18 -26 m 257
 1016 -26 l 257
 1016 1614 l 257
 18 1614 l 257
 18 -26 l 257
92 54 m 257
 92 1537 l 257
 485 817 l 257
 92 54 l 257
184 54 m 257
 523 740 l 257
 864 54 l 257
 184 54 l 257
212 1548 m 257
 843 1548 l 257
 525 899 l 257
 212 1548 l 257
563 822 m 257
 939 1548 l 257
 939 54 l 257
 563 822 l 257
EndSplineSet
EndChar

StartChar: uni119D
Encoding: 4509 4509 500
Width: 1024
VWidth: 0
Flags: HW
LayerCount: 2
Fore
SplineSet
18 -26 m 257
 1016 -26 l 257
 1016 1614 l 257
 18 1614 l 257
 18 -26 l 257
92 54 m 257
 92 1537 l 257
 485 817 l 257
 92 54 l 257
184 54 m 257
 523 740 l 257
 864 54 l 257
 184 54 l 257
212 1548 m 257
 843 1548 l 257
 525 899 l 257
 212 1548 l 257
563 822 m 257
 939 1548 l 257
 939 54 l 257
 563 822 l 257
EndSplineSet
EndChar

StartChar: uni119E
Encoding: 4510 4510 501
Width: 1024
VWidth: 0
Flags: HW
LayerCount: 2
Fore
SplineSet
18 -26 m 257
 1016 -26 l 257
 1016 1614 l 257
 18 1614 l 257
 18 -26 l 257
92 54 m 257
 92 1537 l 257
 485 817 l 257
 92 54 l 257
184 54 m 257
 523 740 l 257
 864 54 l 257
 184 54 l 257
212 1548 m 257
 843 1548 l 257
 525 899 l 257
 212 1548 l 257
563 822 m 257
 939 1548 l 257
 939 54 l 257
 563 822 l 257
EndSplineSet
EndChar

StartChar: uni119F
Encoding: 4511 4511 502
Width: 1024
VWidth: 0
Flags: HW
LayerCount: 2
Fore
SplineSet
18 -26 m 257
 1016 -26 l 257
 1016 1614 l 257
 18 1614 l 257
 18 -26 l 257
92 54 m 257
 92 1537 l 257
 485 817 l 257
 92 54 l 257
184 54 m 257
 523 740 l 257
 864 54 l 257
 184 54 l 257
212 1548 m 257
 843 1548 l 257
 525 899 l 257
 212 1548 l 257
563 822 m 257
 939 1548 l 257
 939 54 l 257
 563 822 l 257
EndSplineSet
EndChar

StartChar: uni11A0
Encoding: 4512 4512 503
Width: 1024
VWidth: 0
Flags: HW
LayerCount: 2
Fore
SplineSet
18 -26 m 257
 1016 -26 l 257
 1016 1614 l 257
 18 1614 l 257
 18 -26 l 257
92 54 m 257
 92 1537 l 257
 485 817 l 257
 92 54 l 257
184 54 m 257
 523 740 l 257
 864 54 l 257
 184 54 l 257
212 1548 m 257
 843 1548 l 257
 525 899 l 257
 212 1548 l 257
563 822 m 257
 939 1548 l 257
 939 54 l 257
 563 822 l 257
EndSplineSet
EndChar

StartChar: uni11A1
Encoding: 4513 4513 504
Width: 1024
VWidth: 0
Flags: HW
LayerCount: 2
Fore
SplineSet
18 -26 m 257
 1016 -26 l 257
 1016 1614 l 257
 18 1614 l 257
 18 -26 l 257
92 54 m 257
 92 1537 l 257
 485 817 l 257
 92 54 l 257
184 54 m 257
 523 740 l 257
 864 54 l 257
 184 54 l 257
212 1548 m 257
 843 1548 l 257
 525 899 l 257
 212 1548 l 257
563 822 m 257
 939 1548 l 257
 939 54 l 257
 563 822 l 257
EndSplineSet
EndChar

StartChar: uni11A2
Encoding: 4514 4514 505
Width: 1024
VWidth: 0
Flags: HW
LayerCount: 2
Fore
SplineSet
18 -26 m 257
 1016 -26 l 257
 1016 1614 l 257
 18 1614 l 257
 18 -26 l 257
92 54 m 257
 92 1537 l 257
 485 817 l 257
 92 54 l 257
184 54 m 257
 523 740 l 257
 864 54 l 257
 184 54 l 257
212 1548 m 257
 843 1548 l 257
 525 899 l 257
 212 1548 l 257
563 822 m 257
 939 1548 l 257
 939 54 l 257
 563 822 l 257
EndSplineSet
EndChar

StartChar: uni11A3
Encoding: 4515 4515 506
Width: 1024
VWidth: 0
Flags: HW
LayerCount: 2
Fore
SplineSet
18 -26 m 257
 1016 -26 l 257
 1016 1614 l 257
 18 1614 l 257
 18 -26 l 257
92 54 m 257
 92 1537 l 257
 485 817 l 257
 92 54 l 257
184 54 m 257
 523 740 l 257
 864 54 l 257
 184 54 l 257
212 1548 m 257
 843 1548 l 257
 525 899 l 257
 212 1548 l 257
563 822 m 257
 939 1548 l 257
 939 54 l 257
 563 822 l 257
EndSplineSet
EndChar

StartChar: uni11A4
Encoding: 4516 4516 507
Width: 1024
VWidth: 0
Flags: HW
LayerCount: 2
Fore
SplineSet
18 -26 m 257
 1016 -26 l 257
 1016 1614 l 257
 18 1614 l 257
 18 -26 l 257
92 54 m 257
 92 1537 l 257
 485 817 l 257
 92 54 l 257
184 54 m 257
 523 740 l 257
 864 54 l 257
 184 54 l 257
212 1548 m 257
 843 1548 l 257
 525 899 l 257
 212 1548 l 257
563 822 m 257
 939 1548 l 257
 939 54 l 257
 563 822 l 257
EndSplineSet
EndChar

StartChar: uni11A5
Encoding: 4517 4517 508
Width: 1024
VWidth: 0
Flags: HW
LayerCount: 2
Fore
SplineSet
18 -26 m 257
 1016 -26 l 257
 1016 1614 l 257
 18 1614 l 257
 18 -26 l 257
92 54 m 257
 92 1537 l 257
 485 817 l 257
 92 54 l 257
184 54 m 257
 523 740 l 257
 864 54 l 257
 184 54 l 257
212 1548 m 257
 843 1548 l 257
 525 899 l 257
 212 1548 l 257
563 822 m 257
 939 1548 l 257
 939 54 l 257
 563 822 l 257
EndSplineSet
EndChar

StartChar: uni11A6
Encoding: 4518 4518 509
Width: 1024
VWidth: 0
Flags: HW
LayerCount: 2
Fore
SplineSet
18 -26 m 257
 1016 -26 l 257
 1016 1614 l 257
 18 1614 l 257
 18 -26 l 257
92 54 m 257
 92 1537 l 257
 485 817 l 257
 92 54 l 257
184 54 m 257
 523 740 l 257
 864 54 l 257
 184 54 l 257
212 1548 m 257
 843 1548 l 257
 525 899 l 257
 212 1548 l 257
563 822 m 257
 939 1548 l 257
 939 54 l 257
 563 822 l 257
EndSplineSet
EndChar

StartChar: uni11A7
Encoding: 4519 4519 510
Width: 1024
VWidth: 0
Flags: HW
LayerCount: 2
Fore
SplineSet
18 -26 m 257
 1016 -26 l 257
 1016 1614 l 257
 18 1614 l 257
 18 -26 l 257
92 54 m 257
 92 1537 l 257
 485 817 l 257
 92 54 l 257
184 54 m 257
 523 740 l 257
 864 54 l 257
 184 54 l 257
212 1548 m 257
 843 1548 l 257
 525 899 l 257
 212 1548 l 257
563 822 m 257
 939 1548 l 257
 939 54 l 257
 563 822 l 257
EndSplineSet
EndChar

StartChar: uni11A8
Encoding: 4520 4520 511
Width: 1024
VWidth: 0
Flags: HW
LayerCount: 2
Fore
SplineSet
18 -26 m 257
 1016 -26 l 257
 1016 1614 l 257
 18 1614 l 257
 18 -26 l 257
92 54 m 257
 92 1537 l 257
 485 817 l 257
 92 54 l 257
184 54 m 257
 523 740 l 257
 864 54 l 257
 184 54 l 257
212 1548 m 257
 843 1548 l 257
 525 899 l 257
 212 1548 l 257
563 822 m 257
 939 1548 l 257
 939 54 l 257
 563 822 l 257
EndSplineSet
EndChar

StartChar: uni11A9
Encoding: 4521 4521 512
Width: 1024
VWidth: 0
Flags: HW
LayerCount: 2
Fore
SplineSet
18 -26 m 257
 1016 -26 l 257
 1016 1614 l 257
 18 1614 l 257
 18 -26 l 257
92 54 m 257
 92 1537 l 257
 485 817 l 257
 92 54 l 257
184 54 m 257
 523 740 l 257
 864 54 l 257
 184 54 l 257
212 1548 m 257
 843 1548 l 257
 525 899 l 257
 212 1548 l 257
563 822 m 257
 939 1548 l 257
 939 54 l 257
 563 822 l 257
EndSplineSet
EndChar

StartChar: uni11AA
Encoding: 4522 4522 513
Width: 1024
VWidth: 0
Flags: HW
LayerCount: 2
Fore
SplineSet
18 -26 m 257
 1016 -26 l 257
 1016 1614 l 257
 18 1614 l 257
 18 -26 l 257
92 54 m 257
 92 1537 l 257
 485 817 l 257
 92 54 l 257
184 54 m 257
 523 740 l 257
 864 54 l 257
 184 54 l 257
212 1548 m 257
 843 1548 l 257
 525 899 l 257
 212 1548 l 257
563 822 m 257
 939 1548 l 257
 939 54 l 257
 563 822 l 257
EndSplineSet
EndChar

StartChar: uni11AB
Encoding: 4523 4523 514
Width: 1024
VWidth: 0
Flags: HW
LayerCount: 2
Fore
SplineSet
18 -26 m 257
 1016 -26 l 257
 1016 1614 l 257
 18 1614 l 257
 18 -26 l 257
92 54 m 257
 92 1537 l 257
 485 817 l 257
 92 54 l 257
184 54 m 257
 523 740 l 257
 864 54 l 257
 184 54 l 257
212 1548 m 257
 843 1548 l 257
 525 899 l 257
 212 1548 l 257
563 822 m 257
 939 1548 l 257
 939 54 l 257
 563 822 l 257
EndSplineSet
EndChar

StartChar: uni11AC
Encoding: 4524 4524 515
Width: 1024
VWidth: 0
Flags: HW
LayerCount: 2
Fore
SplineSet
18 -26 m 257
 1016 -26 l 257
 1016 1614 l 257
 18 1614 l 257
 18 -26 l 257
92 54 m 257
 92 1537 l 257
 485 817 l 257
 92 54 l 257
184 54 m 257
 523 740 l 257
 864 54 l 257
 184 54 l 257
212 1548 m 257
 843 1548 l 257
 525 899 l 257
 212 1548 l 257
563 822 m 257
 939 1548 l 257
 939 54 l 257
 563 822 l 257
EndSplineSet
EndChar

StartChar: uni11AD
Encoding: 4525 4525 516
Width: 1024
VWidth: 0
Flags: HW
LayerCount: 2
Fore
SplineSet
18 -26 m 257
 1016 -26 l 257
 1016 1614 l 257
 18 1614 l 257
 18 -26 l 257
92 54 m 257
 92 1537 l 257
 485 817 l 257
 92 54 l 257
184 54 m 257
 523 740 l 257
 864 54 l 257
 184 54 l 257
212 1548 m 257
 843 1548 l 257
 525 899 l 257
 212 1548 l 257
563 822 m 257
 939 1548 l 257
 939 54 l 257
 563 822 l 257
EndSplineSet
EndChar

StartChar: uni11AE
Encoding: 4526 4526 517
Width: 1024
VWidth: 0
Flags: HW
LayerCount: 2
Fore
SplineSet
18 -26 m 257
 1016 -26 l 257
 1016 1614 l 257
 18 1614 l 257
 18 -26 l 257
92 54 m 257
 92 1537 l 257
 485 817 l 257
 92 54 l 257
184 54 m 257
 523 740 l 257
 864 54 l 257
 184 54 l 257
212 1548 m 257
 843 1548 l 257
 525 899 l 257
 212 1548 l 257
563 822 m 257
 939 1548 l 257
 939 54 l 257
 563 822 l 257
EndSplineSet
EndChar

StartChar: uni11AF
Encoding: 4527 4527 518
Width: 1024
VWidth: 0
Flags: HW
LayerCount: 2
Fore
SplineSet
18 -26 m 257
 1016 -26 l 257
 1016 1614 l 257
 18 1614 l 257
 18 -26 l 257
92 54 m 257
 92 1537 l 257
 485 817 l 257
 92 54 l 257
184 54 m 257
 523 740 l 257
 864 54 l 257
 184 54 l 257
212 1548 m 257
 843 1548 l 257
 525 899 l 257
 212 1548 l 257
563 822 m 257
 939 1548 l 257
 939 54 l 257
 563 822 l 257
EndSplineSet
EndChar

StartChar: uni11B0
Encoding: 4528 4528 519
Width: 1024
VWidth: 0
Flags: HW
LayerCount: 2
Fore
SplineSet
18 -26 m 257
 1016 -26 l 257
 1016 1614 l 257
 18 1614 l 257
 18 -26 l 257
92 54 m 257
 92 1537 l 257
 485 817 l 257
 92 54 l 257
184 54 m 257
 523 740 l 257
 864 54 l 257
 184 54 l 257
212 1548 m 257
 843 1548 l 257
 525 899 l 257
 212 1548 l 257
563 822 m 257
 939 1548 l 257
 939 54 l 257
 563 822 l 257
EndSplineSet
EndChar

StartChar: uni11B1
Encoding: 4529 4529 520
Width: 1024
VWidth: 0
Flags: HW
LayerCount: 2
Fore
SplineSet
18 -26 m 257
 1016 -26 l 257
 1016 1614 l 257
 18 1614 l 257
 18 -26 l 257
92 54 m 257
 92 1537 l 257
 485 817 l 257
 92 54 l 257
184 54 m 257
 523 740 l 257
 864 54 l 257
 184 54 l 257
212 1548 m 257
 843 1548 l 257
 525 899 l 257
 212 1548 l 257
563 822 m 257
 939 1548 l 257
 939 54 l 257
 563 822 l 257
EndSplineSet
EndChar

StartChar: uni11B2
Encoding: 4530 4530 521
Width: 1024
VWidth: 0
Flags: HW
LayerCount: 2
Fore
SplineSet
18 -26 m 257
 1016 -26 l 257
 1016 1614 l 257
 18 1614 l 257
 18 -26 l 257
92 54 m 257
 92 1537 l 257
 485 817 l 257
 92 54 l 257
184 54 m 257
 523 740 l 257
 864 54 l 257
 184 54 l 257
212 1548 m 257
 843 1548 l 257
 525 899 l 257
 212 1548 l 257
563 822 m 257
 939 1548 l 257
 939 54 l 257
 563 822 l 257
EndSplineSet
EndChar

StartChar: uni11B3
Encoding: 4531 4531 522
Width: 1024
VWidth: 0
Flags: HW
LayerCount: 2
Fore
SplineSet
18 -26 m 257
 1016 -26 l 257
 1016 1614 l 257
 18 1614 l 257
 18 -26 l 257
92 54 m 257
 92 1537 l 257
 485 817 l 257
 92 54 l 257
184 54 m 257
 523 740 l 257
 864 54 l 257
 184 54 l 257
212 1548 m 257
 843 1548 l 257
 525 899 l 257
 212 1548 l 257
563 822 m 257
 939 1548 l 257
 939 54 l 257
 563 822 l 257
EndSplineSet
EndChar

StartChar: uni11B4
Encoding: 4532 4532 523
Width: 1024
VWidth: 0
Flags: HW
LayerCount: 2
Fore
SplineSet
18 -26 m 257
 1016 -26 l 257
 1016 1614 l 257
 18 1614 l 257
 18 -26 l 257
92 54 m 257
 92 1537 l 257
 485 817 l 257
 92 54 l 257
184 54 m 257
 523 740 l 257
 864 54 l 257
 184 54 l 257
212 1548 m 257
 843 1548 l 257
 525 899 l 257
 212 1548 l 257
563 822 m 257
 939 1548 l 257
 939 54 l 257
 563 822 l 257
EndSplineSet
EndChar

StartChar: uni11B5
Encoding: 4533 4533 524
Width: 1024
VWidth: 0
Flags: HW
LayerCount: 2
Fore
SplineSet
18 -26 m 257
 1016 -26 l 257
 1016 1614 l 257
 18 1614 l 257
 18 -26 l 257
92 54 m 257
 92 1537 l 257
 485 817 l 257
 92 54 l 257
184 54 m 257
 523 740 l 257
 864 54 l 257
 184 54 l 257
212 1548 m 257
 843 1548 l 257
 525 899 l 257
 212 1548 l 257
563 822 m 257
 939 1548 l 257
 939 54 l 257
 563 822 l 257
EndSplineSet
EndChar

StartChar: uni11B6
Encoding: 4534 4534 525
Width: 1024
VWidth: 0
Flags: HW
LayerCount: 2
Fore
SplineSet
18 -26 m 257
 1016 -26 l 257
 1016 1614 l 257
 18 1614 l 257
 18 -26 l 257
92 54 m 257
 92 1537 l 257
 485 817 l 257
 92 54 l 257
184 54 m 257
 523 740 l 257
 864 54 l 257
 184 54 l 257
212 1548 m 257
 843 1548 l 257
 525 899 l 257
 212 1548 l 257
563 822 m 257
 939 1548 l 257
 939 54 l 257
 563 822 l 257
EndSplineSet
EndChar

StartChar: uni11B7
Encoding: 4535 4535 526
Width: 1024
VWidth: 0
Flags: HW
LayerCount: 2
Fore
SplineSet
18 -26 m 257
 1016 -26 l 257
 1016 1614 l 257
 18 1614 l 257
 18 -26 l 257
92 54 m 257
 92 1537 l 257
 485 817 l 257
 92 54 l 257
184 54 m 257
 523 740 l 257
 864 54 l 257
 184 54 l 257
212 1548 m 257
 843 1548 l 257
 525 899 l 257
 212 1548 l 257
563 822 m 257
 939 1548 l 257
 939 54 l 257
 563 822 l 257
EndSplineSet
EndChar

StartChar: uni11B8
Encoding: 4536 4536 527
Width: 1024
VWidth: 0
Flags: HW
LayerCount: 2
Fore
SplineSet
18 -26 m 257
 1016 -26 l 257
 1016 1614 l 257
 18 1614 l 257
 18 -26 l 257
92 54 m 257
 92 1537 l 257
 485 817 l 257
 92 54 l 257
184 54 m 257
 523 740 l 257
 864 54 l 257
 184 54 l 257
212 1548 m 257
 843 1548 l 257
 525 899 l 257
 212 1548 l 257
563 822 m 257
 939 1548 l 257
 939 54 l 257
 563 822 l 257
EndSplineSet
EndChar

StartChar: uni11B9
Encoding: 4537 4537 528
Width: 1024
VWidth: 0
Flags: HW
LayerCount: 2
Fore
SplineSet
18 -26 m 257
 1016 -26 l 257
 1016 1614 l 257
 18 1614 l 257
 18 -26 l 257
92 54 m 257
 92 1537 l 257
 485 817 l 257
 92 54 l 257
184 54 m 257
 523 740 l 257
 864 54 l 257
 184 54 l 257
212 1548 m 257
 843 1548 l 257
 525 899 l 257
 212 1548 l 257
563 822 m 257
 939 1548 l 257
 939 54 l 257
 563 822 l 257
EndSplineSet
EndChar

StartChar: uni11BA
Encoding: 4538 4538 529
Width: 1024
VWidth: 0
Flags: HW
LayerCount: 2
Fore
SplineSet
18 -26 m 257
 1016 -26 l 257
 1016 1614 l 257
 18 1614 l 257
 18 -26 l 257
92 54 m 257
 92 1537 l 257
 485 817 l 257
 92 54 l 257
184 54 m 257
 523 740 l 257
 864 54 l 257
 184 54 l 257
212 1548 m 257
 843 1548 l 257
 525 899 l 257
 212 1548 l 257
563 822 m 257
 939 1548 l 257
 939 54 l 257
 563 822 l 257
EndSplineSet
EndChar

StartChar: uni11BB
Encoding: 4539 4539 530
Width: 1024
VWidth: 0
Flags: HW
LayerCount: 2
Fore
SplineSet
18 -26 m 257
 1016 -26 l 257
 1016 1614 l 257
 18 1614 l 257
 18 -26 l 257
92 54 m 257
 92 1537 l 257
 485 817 l 257
 92 54 l 257
184 54 m 257
 523 740 l 257
 864 54 l 257
 184 54 l 257
212 1548 m 257
 843 1548 l 257
 525 899 l 257
 212 1548 l 257
563 822 m 257
 939 1548 l 257
 939 54 l 257
 563 822 l 257
EndSplineSet
EndChar

StartChar: uni11BC
Encoding: 4540 4540 531
Width: 1024
VWidth: 0
Flags: HW
LayerCount: 2
Fore
SplineSet
18 -26 m 257
 1016 -26 l 257
 1016 1614 l 257
 18 1614 l 257
 18 -26 l 257
92 54 m 257
 92 1537 l 257
 485 817 l 257
 92 54 l 257
184 54 m 257
 523 740 l 257
 864 54 l 257
 184 54 l 257
212 1548 m 257
 843 1548 l 257
 525 899 l 257
 212 1548 l 257
563 822 m 257
 939 1548 l 257
 939 54 l 257
 563 822 l 257
EndSplineSet
EndChar

StartChar: uni11BD
Encoding: 4541 4541 532
Width: 1024
VWidth: 0
Flags: HW
LayerCount: 2
Fore
SplineSet
18 -26 m 257
 1016 -26 l 257
 1016 1614 l 257
 18 1614 l 257
 18 -26 l 257
92 54 m 257
 92 1537 l 257
 485 817 l 257
 92 54 l 257
184 54 m 257
 523 740 l 257
 864 54 l 257
 184 54 l 257
212 1548 m 257
 843 1548 l 257
 525 899 l 257
 212 1548 l 257
563 822 m 257
 939 1548 l 257
 939 54 l 257
 563 822 l 257
EndSplineSet
EndChar

StartChar: uni11BE
Encoding: 4542 4542 533
Width: 1024
VWidth: 0
Flags: HW
LayerCount: 2
Fore
SplineSet
18 -26 m 257
 1016 -26 l 257
 1016 1614 l 257
 18 1614 l 257
 18 -26 l 257
92 54 m 257
 92 1537 l 257
 485 817 l 257
 92 54 l 257
184 54 m 257
 523 740 l 257
 864 54 l 257
 184 54 l 257
212 1548 m 257
 843 1548 l 257
 525 899 l 257
 212 1548 l 257
563 822 m 257
 939 1548 l 257
 939 54 l 257
 563 822 l 257
EndSplineSet
EndChar

StartChar: uni11BF
Encoding: 4543 4543 534
Width: 1024
VWidth: 0
Flags: HW
LayerCount: 2
Fore
SplineSet
18 -26 m 257
 1016 -26 l 257
 1016 1614 l 257
 18 1614 l 257
 18 -26 l 257
92 54 m 257
 92 1537 l 257
 485 817 l 257
 92 54 l 257
184 54 m 257
 523 740 l 257
 864 54 l 257
 184 54 l 257
212 1548 m 257
 843 1548 l 257
 525 899 l 257
 212 1548 l 257
563 822 m 257
 939 1548 l 257
 939 54 l 257
 563 822 l 257
EndSplineSet
EndChar

StartChar: uni11C0
Encoding: 4544 4544 535
Width: 1024
VWidth: 0
Flags: HW
LayerCount: 2
Fore
SplineSet
18 -26 m 257
 1016 -26 l 257
 1016 1614 l 257
 18 1614 l 257
 18 -26 l 257
92 54 m 257
 92 1537 l 257
 485 817 l 257
 92 54 l 257
184 54 m 257
 523 740 l 257
 864 54 l 257
 184 54 l 257
212 1548 m 257
 843 1548 l 257
 525 899 l 257
 212 1548 l 257
563 822 m 257
 939 1548 l 257
 939 54 l 257
 563 822 l 257
EndSplineSet
EndChar

StartChar: uni11C1
Encoding: 4545 4545 536
Width: 1024
VWidth: 0
Flags: HW
LayerCount: 2
Fore
SplineSet
18 -26 m 257
 1016 -26 l 257
 1016 1614 l 257
 18 1614 l 257
 18 -26 l 257
92 54 m 257
 92 1537 l 257
 485 817 l 257
 92 54 l 257
184 54 m 257
 523 740 l 257
 864 54 l 257
 184 54 l 257
212 1548 m 257
 843 1548 l 257
 525 899 l 257
 212 1548 l 257
563 822 m 257
 939 1548 l 257
 939 54 l 257
 563 822 l 257
EndSplineSet
EndChar

StartChar: uni11C2
Encoding: 4546 4546 537
Width: 1024
VWidth: 0
Flags: HW
LayerCount: 2
Fore
SplineSet
18 -26 m 257
 1016 -26 l 257
 1016 1614 l 257
 18 1614 l 257
 18 -26 l 257
92 54 m 257
 92 1537 l 257
 485 817 l 257
 92 54 l 257
184 54 m 257
 523 740 l 257
 864 54 l 257
 184 54 l 257
212 1548 m 257
 843 1548 l 257
 525 899 l 257
 212 1548 l 257
563 822 m 257
 939 1548 l 257
 939 54 l 257
 563 822 l 257
EndSplineSet
EndChar

StartChar: uni11C3
Encoding: 4547 4547 538
Width: 1024
VWidth: 0
Flags: HW
LayerCount: 2
Fore
SplineSet
18 -26 m 257
 1016 -26 l 257
 1016 1614 l 257
 18 1614 l 257
 18 -26 l 257
92 54 m 257
 92 1537 l 257
 485 817 l 257
 92 54 l 257
184 54 m 257
 523 740 l 257
 864 54 l 257
 184 54 l 257
212 1548 m 257
 843 1548 l 257
 525 899 l 257
 212 1548 l 257
563 822 m 257
 939 1548 l 257
 939 54 l 257
 563 822 l 257
EndSplineSet
EndChar

StartChar: uni11C4
Encoding: 4548 4548 539
Width: 1024
VWidth: 0
Flags: HW
LayerCount: 2
Fore
SplineSet
18 -26 m 257
 1016 -26 l 257
 1016 1614 l 257
 18 1614 l 257
 18 -26 l 257
92 54 m 257
 92 1537 l 257
 485 817 l 257
 92 54 l 257
184 54 m 257
 523 740 l 257
 864 54 l 257
 184 54 l 257
212 1548 m 257
 843 1548 l 257
 525 899 l 257
 212 1548 l 257
563 822 m 257
 939 1548 l 257
 939 54 l 257
 563 822 l 257
EndSplineSet
EndChar

StartChar: uni11C5
Encoding: 4549 4549 540
Width: 1024
VWidth: 0
Flags: HW
LayerCount: 2
Fore
SplineSet
18 -26 m 257
 1016 -26 l 257
 1016 1614 l 257
 18 1614 l 257
 18 -26 l 257
92 54 m 257
 92 1537 l 257
 485 817 l 257
 92 54 l 257
184 54 m 257
 523 740 l 257
 864 54 l 257
 184 54 l 257
212 1548 m 257
 843 1548 l 257
 525 899 l 257
 212 1548 l 257
563 822 m 257
 939 1548 l 257
 939 54 l 257
 563 822 l 257
EndSplineSet
EndChar

StartChar: uni11C6
Encoding: 4550 4550 541
Width: 1024
VWidth: 0
Flags: HW
LayerCount: 2
Fore
SplineSet
18 -26 m 257
 1016 -26 l 257
 1016 1614 l 257
 18 1614 l 257
 18 -26 l 257
92 54 m 257
 92 1537 l 257
 485 817 l 257
 92 54 l 257
184 54 m 257
 523 740 l 257
 864 54 l 257
 184 54 l 257
212 1548 m 257
 843 1548 l 257
 525 899 l 257
 212 1548 l 257
563 822 m 257
 939 1548 l 257
 939 54 l 257
 563 822 l 257
EndSplineSet
EndChar

StartChar: uni11C7
Encoding: 4551 4551 542
Width: 1024
VWidth: 0
Flags: HW
LayerCount: 2
Fore
SplineSet
18 -26 m 257
 1016 -26 l 257
 1016 1614 l 257
 18 1614 l 257
 18 -26 l 257
92 54 m 257
 92 1537 l 257
 485 817 l 257
 92 54 l 257
184 54 m 257
 523 740 l 257
 864 54 l 257
 184 54 l 257
212 1548 m 257
 843 1548 l 257
 525 899 l 257
 212 1548 l 257
563 822 m 257
 939 1548 l 257
 939 54 l 257
 563 822 l 257
EndSplineSet
EndChar

StartChar: uni11C8
Encoding: 4552 4552 543
Width: 1024
VWidth: 0
Flags: HW
LayerCount: 2
Fore
SplineSet
18 -26 m 257
 1016 -26 l 257
 1016 1614 l 257
 18 1614 l 257
 18 -26 l 257
92 54 m 257
 92 1537 l 257
 485 817 l 257
 92 54 l 257
184 54 m 257
 523 740 l 257
 864 54 l 257
 184 54 l 257
212 1548 m 257
 843 1548 l 257
 525 899 l 257
 212 1548 l 257
563 822 m 257
 939 1548 l 257
 939 54 l 257
 563 822 l 257
EndSplineSet
EndChar

StartChar: uni11C9
Encoding: 4553 4553 544
Width: 1024
VWidth: 0
Flags: HW
LayerCount: 2
Fore
SplineSet
18 -26 m 257
 1016 -26 l 257
 1016 1614 l 257
 18 1614 l 257
 18 -26 l 257
92 54 m 257
 92 1537 l 257
 485 817 l 257
 92 54 l 257
184 54 m 257
 523 740 l 257
 864 54 l 257
 184 54 l 257
212 1548 m 257
 843 1548 l 257
 525 899 l 257
 212 1548 l 257
563 822 m 257
 939 1548 l 257
 939 54 l 257
 563 822 l 257
EndSplineSet
EndChar

StartChar: uni11CA
Encoding: 4554 4554 545
Width: 1024
VWidth: 0
Flags: HW
LayerCount: 2
Fore
SplineSet
18 -26 m 257
 1016 -26 l 257
 1016 1614 l 257
 18 1614 l 257
 18 -26 l 257
92 54 m 257
 92 1537 l 257
 485 817 l 257
 92 54 l 257
184 54 m 257
 523 740 l 257
 864 54 l 257
 184 54 l 257
212 1548 m 257
 843 1548 l 257
 525 899 l 257
 212 1548 l 257
563 822 m 257
 939 1548 l 257
 939 54 l 257
 563 822 l 257
EndSplineSet
EndChar

StartChar: uni11CB
Encoding: 4555 4555 546
Width: 1024
VWidth: 0
Flags: HW
LayerCount: 2
Fore
SplineSet
18 -26 m 257
 1016 -26 l 257
 1016 1614 l 257
 18 1614 l 257
 18 -26 l 257
92 54 m 257
 92 1537 l 257
 485 817 l 257
 92 54 l 257
184 54 m 257
 523 740 l 257
 864 54 l 257
 184 54 l 257
212 1548 m 257
 843 1548 l 257
 525 899 l 257
 212 1548 l 257
563 822 m 257
 939 1548 l 257
 939 54 l 257
 563 822 l 257
EndSplineSet
EndChar

StartChar: uni11CC
Encoding: 4556 4556 547
Width: 1024
VWidth: 0
Flags: HW
LayerCount: 2
Fore
SplineSet
18 -26 m 257
 1016 -26 l 257
 1016 1614 l 257
 18 1614 l 257
 18 -26 l 257
92 54 m 257
 92 1537 l 257
 485 817 l 257
 92 54 l 257
184 54 m 257
 523 740 l 257
 864 54 l 257
 184 54 l 257
212 1548 m 257
 843 1548 l 257
 525 899 l 257
 212 1548 l 257
563 822 m 257
 939 1548 l 257
 939 54 l 257
 563 822 l 257
EndSplineSet
EndChar

StartChar: uni11CD
Encoding: 4557 4557 548
Width: 1024
VWidth: 0
Flags: HW
LayerCount: 2
Fore
SplineSet
18 -26 m 257
 1016 -26 l 257
 1016 1614 l 257
 18 1614 l 257
 18 -26 l 257
92 54 m 257
 92 1537 l 257
 485 817 l 257
 92 54 l 257
184 54 m 257
 523 740 l 257
 864 54 l 257
 184 54 l 257
212 1548 m 257
 843 1548 l 257
 525 899 l 257
 212 1548 l 257
563 822 m 257
 939 1548 l 257
 939 54 l 257
 563 822 l 257
EndSplineSet
EndChar

StartChar: uni11CE
Encoding: 4558 4558 549
Width: 1024
VWidth: 0
Flags: HW
LayerCount: 2
Fore
SplineSet
18 -26 m 257
 1016 -26 l 257
 1016 1614 l 257
 18 1614 l 257
 18 -26 l 257
92 54 m 257
 92 1537 l 257
 485 817 l 257
 92 54 l 257
184 54 m 257
 523 740 l 257
 864 54 l 257
 184 54 l 257
212 1548 m 257
 843 1548 l 257
 525 899 l 257
 212 1548 l 257
563 822 m 257
 939 1548 l 257
 939 54 l 257
 563 822 l 257
EndSplineSet
EndChar

StartChar: uni11CF
Encoding: 4559 4559 550
Width: 1024
VWidth: 0
Flags: HW
LayerCount: 2
Fore
SplineSet
18 -26 m 257
 1016 -26 l 257
 1016 1614 l 257
 18 1614 l 257
 18 -26 l 257
92 54 m 257
 92 1537 l 257
 485 817 l 257
 92 54 l 257
184 54 m 257
 523 740 l 257
 864 54 l 257
 184 54 l 257
212 1548 m 257
 843 1548 l 257
 525 899 l 257
 212 1548 l 257
563 822 m 257
 939 1548 l 257
 939 54 l 257
 563 822 l 257
EndSplineSet
EndChar

StartChar: uni11D0
Encoding: 4560 4560 551
Width: 1024
VWidth: 0
Flags: HW
LayerCount: 2
Fore
SplineSet
18 -26 m 257
 1016 -26 l 257
 1016 1614 l 257
 18 1614 l 257
 18 -26 l 257
92 54 m 257
 92 1537 l 257
 485 817 l 257
 92 54 l 257
184 54 m 257
 523 740 l 257
 864 54 l 257
 184 54 l 257
212 1548 m 257
 843 1548 l 257
 525 899 l 257
 212 1548 l 257
563 822 m 257
 939 1548 l 257
 939 54 l 257
 563 822 l 257
EndSplineSet
EndChar

StartChar: uni11D1
Encoding: 4561 4561 552
Width: 1024
VWidth: 0
Flags: HW
LayerCount: 2
Fore
SplineSet
18 -26 m 257
 1016 -26 l 257
 1016 1614 l 257
 18 1614 l 257
 18 -26 l 257
92 54 m 257
 92 1537 l 257
 485 817 l 257
 92 54 l 257
184 54 m 257
 523 740 l 257
 864 54 l 257
 184 54 l 257
212 1548 m 257
 843 1548 l 257
 525 899 l 257
 212 1548 l 257
563 822 m 257
 939 1548 l 257
 939 54 l 257
 563 822 l 257
EndSplineSet
EndChar

StartChar: uni11D2
Encoding: 4562 4562 553
Width: 1024
VWidth: 0
Flags: HW
LayerCount: 2
Fore
SplineSet
18 -26 m 257
 1016 -26 l 257
 1016 1614 l 257
 18 1614 l 257
 18 -26 l 257
92 54 m 257
 92 1537 l 257
 485 817 l 257
 92 54 l 257
184 54 m 257
 523 740 l 257
 864 54 l 257
 184 54 l 257
212 1548 m 257
 843 1548 l 257
 525 899 l 257
 212 1548 l 257
563 822 m 257
 939 1548 l 257
 939 54 l 257
 563 822 l 257
EndSplineSet
EndChar

StartChar: uni11D3
Encoding: 4563 4563 554
Width: 1024
VWidth: 0
Flags: HW
LayerCount: 2
Fore
SplineSet
18 -26 m 257
 1016 -26 l 257
 1016 1614 l 257
 18 1614 l 257
 18 -26 l 257
92 54 m 257
 92 1537 l 257
 485 817 l 257
 92 54 l 257
184 54 m 257
 523 740 l 257
 864 54 l 257
 184 54 l 257
212 1548 m 257
 843 1548 l 257
 525 899 l 257
 212 1548 l 257
563 822 m 257
 939 1548 l 257
 939 54 l 257
 563 822 l 257
EndSplineSet
EndChar

StartChar: uni11D4
Encoding: 4564 4564 555
Width: 1024
VWidth: 0
Flags: HW
LayerCount: 2
Fore
SplineSet
18 -26 m 257
 1016 -26 l 257
 1016 1614 l 257
 18 1614 l 257
 18 -26 l 257
92 54 m 257
 92 1537 l 257
 485 817 l 257
 92 54 l 257
184 54 m 257
 523 740 l 257
 864 54 l 257
 184 54 l 257
212 1548 m 257
 843 1548 l 257
 525 899 l 257
 212 1548 l 257
563 822 m 257
 939 1548 l 257
 939 54 l 257
 563 822 l 257
EndSplineSet
EndChar

StartChar: uni11D5
Encoding: 4565 4565 556
Width: 1024
VWidth: 0
Flags: HW
LayerCount: 2
Fore
SplineSet
18 -26 m 257
 1016 -26 l 257
 1016 1614 l 257
 18 1614 l 257
 18 -26 l 257
92 54 m 257
 92 1537 l 257
 485 817 l 257
 92 54 l 257
184 54 m 257
 523 740 l 257
 864 54 l 257
 184 54 l 257
212 1548 m 257
 843 1548 l 257
 525 899 l 257
 212 1548 l 257
563 822 m 257
 939 1548 l 257
 939 54 l 257
 563 822 l 257
EndSplineSet
EndChar

StartChar: uni11D6
Encoding: 4566 4566 557
Width: 1024
VWidth: 0
Flags: HW
LayerCount: 2
Fore
SplineSet
18 -26 m 257
 1016 -26 l 257
 1016 1614 l 257
 18 1614 l 257
 18 -26 l 257
92 54 m 257
 92 1537 l 257
 485 817 l 257
 92 54 l 257
184 54 m 257
 523 740 l 257
 864 54 l 257
 184 54 l 257
212 1548 m 257
 843 1548 l 257
 525 899 l 257
 212 1548 l 257
563 822 m 257
 939 1548 l 257
 939 54 l 257
 563 822 l 257
EndSplineSet
EndChar

StartChar: uni11D7
Encoding: 4567 4567 558
Width: 1024
VWidth: 0
Flags: HW
LayerCount: 2
Fore
SplineSet
18 -26 m 257
 1016 -26 l 257
 1016 1614 l 257
 18 1614 l 257
 18 -26 l 257
92 54 m 257
 92 1537 l 257
 485 817 l 257
 92 54 l 257
184 54 m 257
 523 740 l 257
 864 54 l 257
 184 54 l 257
212 1548 m 257
 843 1548 l 257
 525 899 l 257
 212 1548 l 257
563 822 m 257
 939 1548 l 257
 939 54 l 257
 563 822 l 257
EndSplineSet
EndChar

StartChar: uni11D8
Encoding: 4568 4568 559
Width: 1024
VWidth: 0
Flags: HW
LayerCount: 2
Fore
SplineSet
18 -26 m 257
 1016 -26 l 257
 1016 1614 l 257
 18 1614 l 257
 18 -26 l 257
92 54 m 257
 92 1537 l 257
 485 817 l 257
 92 54 l 257
184 54 m 257
 523 740 l 257
 864 54 l 257
 184 54 l 257
212 1548 m 257
 843 1548 l 257
 525 899 l 257
 212 1548 l 257
563 822 m 257
 939 1548 l 257
 939 54 l 257
 563 822 l 257
EndSplineSet
EndChar

StartChar: uni11D9
Encoding: 4569 4569 560
Width: 1024
VWidth: 0
Flags: HW
LayerCount: 2
Fore
SplineSet
18 -26 m 257
 1016 -26 l 257
 1016 1614 l 257
 18 1614 l 257
 18 -26 l 257
92 54 m 257
 92 1537 l 257
 485 817 l 257
 92 54 l 257
184 54 m 257
 523 740 l 257
 864 54 l 257
 184 54 l 257
212 1548 m 257
 843 1548 l 257
 525 899 l 257
 212 1548 l 257
563 822 m 257
 939 1548 l 257
 939 54 l 257
 563 822 l 257
EndSplineSet
EndChar

StartChar: uni11DA
Encoding: 4570 4570 561
Width: 1024
VWidth: 0
Flags: HW
LayerCount: 2
Fore
SplineSet
18 -26 m 257
 1016 -26 l 257
 1016 1614 l 257
 18 1614 l 257
 18 -26 l 257
92 54 m 257
 92 1537 l 257
 485 817 l 257
 92 54 l 257
184 54 m 257
 523 740 l 257
 864 54 l 257
 184 54 l 257
212 1548 m 257
 843 1548 l 257
 525 899 l 257
 212 1548 l 257
563 822 m 257
 939 1548 l 257
 939 54 l 257
 563 822 l 257
EndSplineSet
EndChar

StartChar: uni11DB
Encoding: 4571 4571 562
Width: 1024
VWidth: 0
Flags: HW
LayerCount: 2
Fore
SplineSet
18 -26 m 257
 1016 -26 l 257
 1016 1614 l 257
 18 1614 l 257
 18 -26 l 257
92 54 m 257
 92 1537 l 257
 485 817 l 257
 92 54 l 257
184 54 m 257
 523 740 l 257
 864 54 l 257
 184 54 l 257
212 1548 m 257
 843 1548 l 257
 525 899 l 257
 212 1548 l 257
563 822 m 257
 939 1548 l 257
 939 54 l 257
 563 822 l 257
EndSplineSet
EndChar

StartChar: uni11DC
Encoding: 4572 4572 563
Width: 1024
VWidth: 0
Flags: HW
LayerCount: 2
Fore
SplineSet
18 -26 m 257
 1016 -26 l 257
 1016 1614 l 257
 18 1614 l 257
 18 -26 l 257
92 54 m 257
 92 1537 l 257
 485 817 l 257
 92 54 l 257
184 54 m 257
 523 740 l 257
 864 54 l 257
 184 54 l 257
212 1548 m 257
 843 1548 l 257
 525 899 l 257
 212 1548 l 257
563 822 m 257
 939 1548 l 257
 939 54 l 257
 563 822 l 257
EndSplineSet
EndChar

StartChar: uni11DD
Encoding: 4573 4573 564
Width: 1024
VWidth: 0
Flags: HW
LayerCount: 2
Fore
SplineSet
18 -26 m 257
 1016 -26 l 257
 1016 1614 l 257
 18 1614 l 257
 18 -26 l 257
92 54 m 257
 92 1537 l 257
 485 817 l 257
 92 54 l 257
184 54 m 257
 523 740 l 257
 864 54 l 257
 184 54 l 257
212 1548 m 257
 843 1548 l 257
 525 899 l 257
 212 1548 l 257
563 822 m 257
 939 1548 l 257
 939 54 l 257
 563 822 l 257
EndSplineSet
EndChar

StartChar: uni11DE
Encoding: 4574 4574 565
Width: 1024
VWidth: 0
Flags: HW
LayerCount: 2
Fore
SplineSet
18 -26 m 257
 1016 -26 l 257
 1016 1614 l 257
 18 1614 l 257
 18 -26 l 257
92 54 m 257
 92 1537 l 257
 485 817 l 257
 92 54 l 257
184 54 m 257
 523 740 l 257
 864 54 l 257
 184 54 l 257
212 1548 m 257
 843 1548 l 257
 525 899 l 257
 212 1548 l 257
563 822 m 257
 939 1548 l 257
 939 54 l 257
 563 822 l 257
EndSplineSet
EndChar

StartChar: uni11DF
Encoding: 4575 4575 566
Width: 1024
VWidth: 0
Flags: HW
LayerCount: 2
Fore
SplineSet
18 -26 m 257
 1016 -26 l 257
 1016 1614 l 257
 18 1614 l 257
 18 -26 l 257
92 54 m 257
 92 1537 l 257
 485 817 l 257
 92 54 l 257
184 54 m 257
 523 740 l 257
 864 54 l 257
 184 54 l 257
212 1548 m 257
 843 1548 l 257
 525 899 l 257
 212 1548 l 257
563 822 m 257
 939 1548 l 257
 939 54 l 257
 563 822 l 257
EndSplineSet
EndChar

StartChar: uni11E0
Encoding: 4576 4576 567
Width: 1024
VWidth: 0
Flags: HW
LayerCount: 2
Fore
SplineSet
18 -26 m 257
 1016 -26 l 257
 1016 1614 l 257
 18 1614 l 257
 18 -26 l 257
92 54 m 257
 92 1537 l 257
 485 817 l 257
 92 54 l 257
184 54 m 257
 523 740 l 257
 864 54 l 257
 184 54 l 257
212 1548 m 257
 843 1548 l 257
 525 899 l 257
 212 1548 l 257
563 822 m 257
 939 1548 l 257
 939 54 l 257
 563 822 l 257
EndSplineSet
EndChar

StartChar: uni11E1
Encoding: 4577 4577 568
Width: 1024
VWidth: 0
Flags: HW
LayerCount: 2
Fore
SplineSet
18 -26 m 257
 1016 -26 l 257
 1016 1614 l 257
 18 1614 l 257
 18 -26 l 257
92 54 m 257
 92 1537 l 257
 485 817 l 257
 92 54 l 257
184 54 m 257
 523 740 l 257
 864 54 l 257
 184 54 l 257
212 1548 m 257
 843 1548 l 257
 525 899 l 257
 212 1548 l 257
563 822 m 257
 939 1548 l 257
 939 54 l 257
 563 822 l 257
EndSplineSet
EndChar

StartChar: uni11E2
Encoding: 4578 4578 569
Width: 1024
VWidth: 0
Flags: HW
LayerCount: 2
Fore
SplineSet
18 -26 m 257
 1016 -26 l 257
 1016 1614 l 257
 18 1614 l 257
 18 -26 l 257
92 54 m 257
 92 1537 l 257
 485 817 l 257
 92 54 l 257
184 54 m 257
 523 740 l 257
 864 54 l 257
 184 54 l 257
212 1548 m 257
 843 1548 l 257
 525 899 l 257
 212 1548 l 257
563 822 m 257
 939 1548 l 257
 939 54 l 257
 563 822 l 257
EndSplineSet
EndChar

StartChar: uni11E3
Encoding: 4579 4579 570
Width: 1024
VWidth: 0
Flags: HW
LayerCount: 2
Fore
SplineSet
18 -26 m 257
 1016 -26 l 257
 1016 1614 l 257
 18 1614 l 257
 18 -26 l 257
92 54 m 257
 92 1537 l 257
 485 817 l 257
 92 54 l 257
184 54 m 257
 523 740 l 257
 864 54 l 257
 184 54 l 257
212 1548 m 257
 843 1548 l 257
 525 899 l 257
 212 1548 l 257
563 822 m 257
 939 1548 l 257
 939 54 l 257
 563 822 l 257
EndSplineSet
EndChar

StartChar: uni11E4
Encoding: 4580 4580 571
Width: 1024
VWidth: 0
Flags: HW
LayerCount: 2
Fore
SplineSet
18 -26 m 257
 1016 -26 l 257
 1016 1614 l 257
 18 1614 l 257
 18 -26 l 257
92 54 m 257
 92 1537 l 257
 485 817 l 257
 92 54 l 257
184 54 m 257
 523 740 l 257
 864 54 l 257
 184 54 l 257
212 1548 m 257
 843 1548 l 257
 525 899 l 257
 212 1548 l 257
563 822 m 257
 939 1548 l 257
 939 54 l 257
 563 822 l 257
EndSplineSet
EndChar

StartChar: uni11E5
Encoding: 4581 4581 572
Width: 1024
VWidth: 0
Flags: HW
LayerCount: 2
Fore
SplineSet
18 -26 m 257
 1016 -26 l 257
 1016 1614 l 257
 18 1614 l 257
 18 -26 l 257
92 54 m 257
 92 1537 l 257
 485 817 l 257
 92 54 l 257
184 54 m 257
 523 740 l 257
 864 54 l 257
 184 54 l 257
212 1548 m 257
 843 1548 l 257
 525 899 l 257
 212 1548 l 257
563 822 m 257
 939 1548 l 257
 939 54 l 257
 563 822 l 257
EndSplineSet
EndChar

StartChar: uni11E6
Encoding: 4582 4582 573
Width: 1024
VWidth: 0
Flags: HW
LayerCount: 2
Fore
SplineSet
18 -26 m 257
 1016 -26 l 257
 1016 1614 l 257
 18 1614 l 257
 18 -26 l 257
92 54 m 257
 92 1537 l 257
 485 817 l 257
 92 54 l 257
184 54 m 257
 523 740 l 257
 864 54 l 257
 184 54 l 257
212 1548 m 257
 843 1548 l 257
 525 899 l 257
 212 1548 l 257
563 822 m 257
 939 1548 l 257
 939 54 l 257
 563 822 l 257
EndSplineSet
EndChar

StartChar: uni11E7
Encoding: 4583 4583 574
Width: 1024
VWidth: 0
Flags: HW
LayerCount: 2
Fore
SplineSet
18 -26 m 257
 1016 -26 l 257
 1016 1614 l 257
 18 1614 l 257
 18 -26 l 257
92 54 m 257
 92 1537 l 257
 485 817 l 257
 92 54 l 257
184 54 m 257
 523 740 l 257
 864 54 l 257
 184 54 l 257
212 1548 m 257
 843 1548 l 257
 525 899 l 257
 212 1548 l 257
563 822 m 257
 939 1548 l 257
 939 54 l 257
 563 822 l 257
EndSplineSet
EndChar

StartChar: uni11E8
Encoding: 4584 4584 575
Width: 1024
VWidth: 0
Flags: HW
LayerCount: 2
Fore
SplineSet
18 -26 m 257
 1016 -26 l 257
 1016 1614 l 257
 18 1614 l 257
 18 -26 l 257
92 54 m 257
 92 1537 l 257
 485 817 l 257
 92 54 l 257
184 54 m 257
 523 740 l 257
 864 54 l 257
 184 54 l 257
212 1548 m 257
 843 1548 l 257
 525 899 l 257
 212 1548 l 257
563 822 m 257
 939 1548 l 257
 939 54 l 257
 563 822 l 257
EndSplineSet
EndChar

StartChar: uni11E9
Encoding: 4585 4585 576
Width: 1024
VWidth: 0
Flags: HW
LayerCount: 2
Fore
SplineSet
18 -26 m 257
 1016 -26 l 257
 1016 1614 l 257
 18 1614 l 257
 18 -26 l 257
92 54 m 257
 92 1537 l 257
 485 817 l 257
 92 54 l 257
184 54 m 257
 523 740 l 257
 864 54 l 257
 184 54 l 257
212 1548 m 257
 843 1548 l 257
 525 899 l 257
 212 1548 l 257
563 822 m 257
 939 1548 l 257
 939 54 l 257
 563 822 l 257
EndSplineSet
EndChar

StartChar: uni11EA
Encoding: 4586 4586 577
Width: 1024
VWidth: 0
Flags: HW
LayerCount: 2
Fore
SplineSet
18 -26 m 257
 1016 -26 l 257
 1016 1614 l 257
 18 1614 l 257
 18 -26 l 257
92 54 m 257
 92 1537 l 257
 485 817 l 257
 92 54 l 257
184 54 m 257
 523 740 l 257
 864 54 l 257
 184 54 l 257
212 1548 m 257
 843 1548 l 257
 525 899 l 257
 212 1548 l 257
563 822 m 257
 939 1548 l 257
 939 54 l 257
 563 822 l 257
EndSplineSet
EndChar

StartChar: uni11EB
Encoding: 4587 4587 578
Width: 1024
VWidth: 0
Flags: HW
LayerCount: 2
Fore
SplineSet
18 -26 m 257
 1016 -26 l 257
 1016 1614 l 257
 18 1614 l 257
 18 -26 l 257
92 54 m 257
 92 1537 l 257
 485 817 l 257
 92 54 l 257
184 54 m 257
 523 740 l 257
 864 54 l 257
 184 54 l 257
212 1548 m 257
 843 1548 l 257
 525 899 l 257
 212 1548 l 257
563 822 m 257
 939 1548 l 257
 939 54 l 257
 563 822 l 257
EndSplineSet
EndChar

StartChar: uni11EC
Encoding: 4588 4588 579
Width: 1024
VWidth: 0
Flags: HW
LayerCount: 2
Fore
SplineSet
18 -26 m 257
 1016 -26 l 257
 1016 1614 l 257
 18 1614 l 257
 18 -26 l 257
92 54 m 257
 92 1537 l 257
 485 817 l 257
 92 54 l 257
184 54 m 257
 523 740 l 257
 864 54 l 257
 184 54 l 257
212 1548 m 257
 843 1548 l 257
 525 899 l 257
 212 1548 l 257
563 822 m 257
 939 1548 l 257
 939 54 l 257
 563 822 l 257
EndSplineSet
EndChar

StartChar: uni11ED
Encoding: 4589 4589 580
Width: 1024
VWidth: 0
Flags: HW
LayerCount: 2
Fore
SplineSet
18 -26 m 257
 1016 -26 l 257
 1016 1614 l 257
 18 1614 l 257
 18 -26 l 257
92 54 m 257
 92 1537 l 257
 485 817 l 257
 92 54 l 257
184 54 m 257
 523 740 l 257
 864 54 l 257
 184 54 l 257
212 1548 m 257
 843 1548 l 257
 525 899 l 257
 212 1548 l 257
563 822 m 257
 939 1548 l 257
 939 54 l 257
 563 822 l 257
EndSplineSet
EndChar

StartChar: uni11EE
Encoding: 4590 4590 581
Width: 1024
VWidth: 0
Flags: HW
LayerCount: 2
Fore
SplineSet
18 -26 m 257
 1016 -26 l 257
 1016 1614 l 257
 18 1614 l 257
 18 -26 l 257
92 54 m 257
 92 1537 l 257
 485 817 l 257
 92 54 l 257
184 54 m 257
 523 740 l 257
 864 54 l 257
 184 54 l 257
212 1548 m 257
 843 1548 l 257
 525 899 l 257
 212 1548 l 257
563 822 m 257
 939 1548 l 257
 939 54 l 257
 563 822 l 257
EndSplineSet
EndChar

StartChar: uni11EF
Encoding: 4591 4591 582
Width: 1024
VWidth: 0
Flags: HW
LayerCount: 2
Fore
SplineSet
18 -26 m 257
 1016 -26 l 257
 1016 1614 l 257
 18 1614 l 257
 18 -26 l 257
92 54 m 257
 92 1537 l 257
 485 817 l 257
 92 54 l 257
184 54 m 257
 523 740 l 257
 864 54 l 257
 184 54 l 257
212 1548 m 257
 843 1548 l 257
 525 899 l 257
 212 1548 l 257
563 822 m 257
 939 1548 l 257
 939 54 l 257
 563 822 l 257
EndSplineSet
EndChar

StartChar: uni11F0
Encoding: 4592 4592 583
Width: 1024
VWidth: 0
Flags: HW
LayerCount: 2
Fore
SplineSet
18 -26 m 257
 1016 -26 l 257
 1016 1614 l 257
 18 1614 l 257
 18 -26 l 257
92 54 m 257
 92 1537 l 257
 485 817 l 257
 92 54 l 257
184 54 m 257
 523 740 l 257
 864 54 l 257
 184 54 l 257
212 1548 m 257
 843 1548 l 257
 525 899 l 257
 212 1548 l 257
563 822 m 257
 939 1548 l 257
 939 54 l 257
 563 822 l 257
EndSplineSet
EndChar

StartChar: uni11F1
Encoding: 4593 4593 584
Width: 1024
VWidth: 0
Flags: HW
LayerCount: 2
Fore
SplineSet
18 -26 m 257
 1016 -26 l 257
 1016 1614 l 257
 18 1614 l 257
 18 -26 l 257
92 54 m 257
 92 1537 l 257
 485 817 l 257
 92 54 l 257
184 54 m 257
 523 740 l 257
 864 54 l 257
 184 54 l 257
212 1548 m 257
 843 1548 l 257
 525 899 l 257
 212 1548 l 257
563 822 m 257
 939 1548 l 257
 939 54 l 257
 563 822 l 257
EndSplineSet
EndChar

StartChar: uni11F2
Encoding: 4594 4594 585
Width: 1024
VWidth: 0
Flags: HW
LayerCount: 2
Fore
SplineSet
18 -26 m 257
 1016 -26 l 257
 1016 1614 l 257
 18 1614 l 257
 18 -26 l 257
92 54 m 257
 92 1537 l 257
 485 817 l 257
 92 54 l 257
184 54 m 257
 523 740 l 257
 864 54 l 257
 184 54 l 257
212 1548 m 257
 843 1548 l 257
 525 899 l 257
 212 1548 l 257
563 822 m 257
 939 1548 l 257
 939 54 l 257
 563 822 l 257
EndSplineSet
EndChar

StartChar: uni11F3
Encoding: 4595 4595 586
Width: 1024
VWidth: 0
Flags: HW
LayerCount: 2
Fore
SplineSet
18 -26 m 257
 1016 -26 l 257
 1016 1614 l 257
 18 1614 l 257
 18 -26 l 257
92 54 m 257
 92 1537 l 257
 485 817 l 257
 92 54 l 257
184 54 m 257
 523 740 l 257
 864 54 l 257
 184 54 l 257
212 1548 m 257
 843 1548 l 257
 525 899 l 257
 212 1548 l 257
563 822 m 257
 939 1548 l 257
 939 54 l 257
 563 822 l 257
EndSplineSet
EndChar

StartChar: uni11F4
Encoding: 4596 4596 587
Width: 1024
VWidth: 0
Flags: HW
LayerCount: 2
Fore
SplineSet
18 -26 m 257
 1016 -26 l 257
 1016 1614 l 257
 18 1614 l 257
 18 -26 l 257
92 54 m 257
 92 1537 l 257
 485 817 l 257
 92 54 l 257
184 54 m 257
 523 740 l 257
 864 54 l 257
 184 54 l 257
212 1548 m 257
 843 1548 l 257
 525 899 l 257
 212 1548 l 257
563 822 m 257
 939 1548 l 257
 939 54 l 257
 563 822 l 257
EndSplineSet
EndChar

StartChar: uni11F5
Encoding: 4597 4597 588
Width: 1024
VWidth: 0
Flags: HW
LayerCount: 2
Fore
SplineSet
18 -26 m 257
 1016 -26 l 257
 1016 1614 l 257
 18 1614 l 257
 18 -26 l 257
92 54 m 257
 92 1537 l 257
 485 817 l 257
 92 54 l 257
184 54 m 257
 523 740 l 257
 864 54 l 257
 184 54 l 257
212 1548 m 257
 843 1548 l 257
 525 899 l 257
 212 1548 l 257
563 822 m 257
 939 1548 l 257
 939 54 l 257
 563 822 l 257
EndSplineSet
EndChar

StartChar: uni11F6
Encoding: 4598 4598 589
Width: 1024
VWidth: 0
Flags: HW
LayerCount: 2
Fore
SplineSet
18 -26 m 257
 1016 -26 l 257
 1016 1614 l 257
 18 1614 l 257
 18 -26 l 257
92 54 m 257
 92 1537 l 257
 485 817 l 257
 92 54 l 257
184 54 m 257
 523 740 l 257
 864 54 l 257
 184 54 l 257
212 1548 m 257
 843 1548 l 257
 525 899 l 257
 212 1548 l 257
563 822 m 257
 939 1548 l 257
 939 54 l 257
 563 822 l 257
EndSplineSet
EndChar

StartChar: uni11F7
Encoding: 4599 4599 590
Width: 1024
VWidth: 0
Flags: HW
LayerCount: 2
Fore
SplineSet
18 -26 m 257
 1016 -26 l 257
 1016 1614 l 257
 18 1614 l 257
 18 -26 l 257
92 54 m 257
 92 1537 l 257
 485 817 l 257
 92 54 l 257
184 54 m 257
 523 740 l 257
 864 54 l 257
 184 54 l 257
212 1548 m 257
 843 1548 l 257
 525 899 l 257
 212 1548 l 257
563 822 m 257
 939 1548 l 257
 939 54 l 257
 563 822 l 257
EndSplineSet
EndChar

StartChar: uni11F8
Encoding: 4600 4600 591
Width: 1024
VWidth: 0
Flags: HW
LayerCount: 2
Fore
SplineSet
18 -26 m 257
 1016 -26 l 257
 1016 1614 l 257
 18 1614 l 257
 18 -26 l 257
92 54 m 257
 92 1537 l 257
 485 817 l 257
 92 54 l 257
184 54 m 257
 523 740 l 257
 864 54 l 257
 184 54 l 257
212 1548 m 257
 843 1548 l 257
 525 899 l 257
 212 1548 l 257
563 822 m 257
 939 1548 l 257
 939 54 l 257
 563 822 l 257
EndSplineSet
EndChar

StartChar: uni11F9
Encoding: 4601 4601 592
Width: 1024
VWidth: 0
Flags: HW
LayerCount: 2
Fore
SplineSet
18 -26 m 257
 1016 -26 l 257
 1016 1614 l 257
 18 1614 l 257
 18 -26 l 257
92 54 m 257
 92 1537 l 257
 485 817 l 257
 92 54 l 257
184 54 m 257
 523 740 l 257
 864 54 l 257
 184 54 l 257
212 1548 m 257
 843 1548 l 257
 525 899 l 257
 212 1548 l 257
563 822 m 257
 939 1548 l 257
 939 54 l 257
 563 822 l 257
EndSplineSet
EndChar

StartChar: uni11FA
Encoding: 4602 4602 593
Width: 1024
VWidth: 0
Flags: HW
LayerCount: 2
Fore
SplineSet
18 -26 m 257
 1016 -26 l 257
 1016 1614 l 257
 18 1614 l 257
 18 -26 l 257
92 54 m 257
 92 1537 l 257
 485 817 l 257
 92 54 l 257
184 54 m 257
 523 740 l 257
 864 54 l 257
 184 54 l 257
212 1548 m 257
 843 1548 l 257
 525 899 l 257
 212 1548 l 257
563 822 m 257
 939 1548 l 257
 939 54 l 257
 563 822 l 257
EndSplineSet
EndChar

StartChar: uni11FB
Encoding: 4603 4603 594
Width: 1024
VWidth: 0
Flags: HW
LayerCount: 2
Fore
SplineSet
18 -26 m 257
 1016 -26 l 257
 1016 1614 l 257
 18 1614 l 257
 18 -26 l 257
92 54 m 257
 92 1537 l 257
 485 817 l 257
 92 54 l 257
184 54 m 257
 523 740 l 257
 864 54 l 257
 184 54 l 257
212 1548 m 257
 843 1548 l 257
 525 899 l 257
 212 1548 l 257
563 822 m 257
 939 1548 l 257
 939 54 l 257
 563 822 l 257
EndSplineSet
EndChar

StartChar: uni11FC
Encoding: 4604 4604 595
Width: 1024
VWidth: 0
Flags: HW
LayerCount: 2
Fore
SplineSet
18 -26 m 257
 1016 -26 l 257
 1016 1614 l 257
 18 1614 l 257
 18 -26 l 257
92 54 m 257
 92 1537 l 257
 485 817 l 257
 92 54 l 257
184 54 m 257
 523 740 l 257
 864 54 l 257
 184 54 l 257
212 1548 m 257
 843 1548 l 257
 525 899 l 257
 212 1548 l 257
563 822 m 257
 939 1548 l 257
 939 54 l 257
 563 822 l 257
EndSplineSet
EndChar

StartChar: uni11FD
Encoding: 4605 4605 596
Width: 1024
VWidth: 0
Flags: HW
LayerCount: 2
Fore
SplineSet
18 -26 m 257
 1016 -26 l 257
 1016 1614 l 257
 18 1614 l 257
 18 -26 l 257
92 54 m 257
 92 1537 l 257
 485 817 l 257
 92 54 l 257
184 54 m 257
 523 740 l 257
 864 54 l 257
 184 54 l 257
212 1548 m 257
 843 1548 l 257
 525 899 l 257
 212 1548 l 257
563 822 m 257
 939 1548 l 257
 939 54 l 257
 563 822 l 257
EndSplineSet
EndChar

StartChar: uni11FE
Encoding: 4606 4606 597
Width: 1024
VWidth: 0
Flags: HW
LayerCount: 2
Fore
SplineSet
18 -26 m 257
 1016 -26 l 257
 1016 1614 l 257
 18 1614 l 257
 18 -26 l 257
92 54 m 257
 92 1537 l 257
 485 817 l 257
 92 54 l 257
184 54 m 257
 523 740 l 257
 864 54 l 257
 184 54 l 257
212 1548 m 257
 843 1548 l 257
 525 899 l 257
 212 1548 l 257
563 822 m 257
 939 1548 l 257
 939 54 l 257
 563 822 l 257
EndSplineSet
EndChar

StartChar: uni11FF
Encoding: 4607 4607 598
Width: 1024
VWidth: 0
Flags: HW
LayerCount: 2
Fore
SplineSet
18 -26 m 257
 1016 -26 l 257
 1016 1614 l 257
 18 1614 l 257
 18 -26 l 257
92 54 m 257
 92 1537 l 257
 485 817 l 257
 92 54 l 257
184 54 m 257
 523 740 l 257
 864 54 l 257
 184 54 l 257
212 1548 m 257
 843 1548 l 257
 525 899 l 257
 212 1548 l 257
563 822 m 257
 939 1548 l 257
 939 54 l 257
 563 822 l 257
EndSplineSet
EndChar
